# Made in Blockbench 4.12.6
mtllib body.mtl

o main_housing
v 0.078125 0.1453125 0.1875
v 0.078125 0.1453125 -0.471875
v 0.078125 0 0.1875
v 0.078125 0 -0.471875
v -0.078125 0.1453125 -0.471875
v -0.078125 0.1453125 0.1875
v -0.078125 0 -0.471875
v -0.078125 0 0.1875
vt 0 0.328125
vt 0.25 0.328125
vt 0.25 0.109375
vt 0 0.109375
vt 0.59375 1
vt 0.59375 0.5
vt 0.34375 0.5
vt 0.34375 1
vt 0.03125 0.2421875
vt 0.21875 0.2421875
vt 0.21875 0.109375
vt 0.03125 0.109375
vt 0.59375 1
vt 0.59375 0.5
vt 0.34375 0.5
vt 0.34375 1
vt 0.3515625 1
vt 0.6015625 1
vt 0.6015625 0.5
vt 0.3515625 0.5
vn 0 0 -1
vn 1 0 0
vn 0 0 1
vn -1 0 0
vn 0 1 0
usemtl m_386ca4f1-58b6-72ad-bfad-1068213d77f8
f 4/4/1 7/3/1 5/2/1 2/1/1
f 3/8/2 4/7/2 2/6/2 1/5/2
f 8/12/3 3/11/3 1/10/3 6/9/3
f 7/16/4 8/15/4 6/14/4 5/13/4
f 6/20/5 1/19/5 2/18/5 5/17/5
o belt_housing0
v 0.046875 0.44375 0.2609375
v 0.046875 0.44375 0.1875
v 0.046875 0.0062500000000000056 0.2609375
v 0.046875 0.0062500000000000056 0.1875
v -0.046875 0.44375 0.1875
v -0.046875 0.44375 0.2609375
v -0.046875 0.0062500000000000056 0.1875
v -0.046875 0.0062500000000000056 0.2609375
vt 0.8828125 0.0859375
vt 0.8828125 0.0390625
vt 0.5546875 0.0390625
vt 0.5546875 0.0859375
vt 0.8828125 0.0859375
vt 0.8828125 0.0390625
vt 0.5546875 0.0390625
vt 0.5546875 0.0859375
vt 0.8828125 0.0859375
vt 0.8828125 0.0390625
vt 0.5546875 0.0390625
vt 0.5546875 0.0859375
vt 0.8828125 0.0859375
vt 0.8828125 0.0390625
vt 0.5546875 0.0390625
vt 0.5546875 0.0859375
vt 0.0546875 0.234375
vt 0.109375 0.234375
vt 0.109375 0.1796875
vt 0.0546875 0.1796875
vn 0 0 -1
vn 1 0 0
vn 0 0 1
vn -1 0 0
vn 0 1 0
usemtl m_386ca4f1-58b6-72ad-bfad-1068213d77f8
f 12/24/6 15/23/6 13/22/6 10/21/6
f 11/28/7 12/27/7 10/26/7 9/25/7
f 16/32/8 11/31/8 9/30/8 14/29/8
f 15/36/9 16/35/9 14/34/9 13/33/9
f 14/40/10 9/39/10 10/38/10 13/37/10
o regenerator
v 0.009375000000000001 0.38749999999999996 -0.18593749999999998
v 0.009375000000000001 0.38749999999999996 -0.3140625
v 0.009375000000000001 0.3671875 -0.18593749999999998
v 0.009375000000000001 0.3671875 -0.3140625
v -0.009375000000000001 0.38749999999999996 -0.3140625
v -0.009375000000000001 0.38749999999999996 -0.18593749999999998
v -0.009375000000000001 0.3671875 -0.3140625
v -0.009375000000000001 0.3671875 -0.18593749999999998
vt 0.7265625 1
vt 0.7265625 0.5
vt 0.6015625 0.5
vt 0.6015625 1
vt 0.7265625 1
vt 0.7265625 0.5
vt 0.6015625 0.5
vt 0.6015625 1
vt 0.6015625 1
vt 0.7265625 1
vt 0.7265625 0.5
vt 0.6015625 0.5
vt 0.7265625 1
vt 0.7265625 0.5
vt 0.6015625 0.5
vt 0.6015625 1
vn 1 0 0
vn -1 0 0
vn 0 1 0
vn 0 -1 0
usemtl m_386ca4f1-58b6-72ad-bfad-1068213d77f8
f 19/44/11 20/43/11 18/42/11 17/41/11
f 23/48/12 24/47/12 22/46/12 21/45/12
f 22/52/13 17/51/13 18/50/13 21/49/13
f 23/56/14 20/55/14 19/54/14 24/53/14
o ground_plate
v 0.125 0.00625 0.5
v 0.125 0.00625 -0.46875
v 0.125 -0.0015625 0.5
v 0.125 -0.0015625 -0.46875
v -0.125 0.00625 -0.46875
v -0.125 0.00625 0.5
v -0.125 -0.0015625 -0.46875
v -0.125 -0.0015625 0.5
vt 0.5546875 0.5
vt 0.6015625 0.5
vt 0.6015625 0.25
vt 0.5546875 0.25
vt 0.6015625 0.5
vt 0.6015625 0.25
vt 0.53125 0.25
vt 0.53125 0.5
vt 0.5546875 0.5
vt 0.6015625 0.5
vt 0.6015625 0.25
vt 0.5546875 0.25
vt 0.6015625 0.5
vt 0.6015625 0.25
vt 0.53125 0.25
vt 0.53125 0.5
vt 0.515625 0.5
vt 0.6015625 0.5
vt 0.6015625 0.25
vt 0.515625 0.25
vt 0.515625 0.5
vt 0.6015625 0.5
vt 0.6015625 0.25
vt 0.515625 0.25
vn 0 0 -1
vn 1 0 0
vn 0 0 1
vn -1 0 0
vn 0 1 0
vn 0 -1 0
usemtl m_386ca4f1-58b6-72ad-bfad-1068213d77f8
f 28/60/15 31/59/15 29/58/15 26/57/15
f 27/64/16 28/63/16 26/62/16 25/61/16
f 32/68/17 27/67/17 25/66/17 30/65/17
f 31/72/18 32/71/18 30/70/18 29/69/18
f 30/76/19 25/75/19 26/74/19 29/73/19
f 31/80/20 28/79/20 27/78/20 32/77/20
o output_cable1
v -0.08750000000000002 0.09375 0.0625
v -0.08750000000000002 0.09375 -0.0625
v -0.08750000000000002 0 0.0625
v -0.08750000000000002 0 -0.0625
v -0.5 0.09375 -0.0625
v -0.5 0.09375 0.0625
v -0.5 0 -0.0625
v -0.5 0 0.0625
vt 0.09375 0.984375
vt 0.09375 0.9765625
vt 0.0703125 0.9765625
vt 0.0703125 0.984375
vt 0 1
vt 0.015625 1
vt 0.015625 0.98828125
vt 0 0.98828125
vt 0.09375 0.984375
vt 0.09375 0.9765625
vt 0.0703125 0.9765625
vt 0.0703125 0.984375
vt 0.125 0.859375
vt 0.203125 0.859375
vt 0.203125 0.796875
vt 0.125 0.796875
vt 0.09375 0.9765625
vt 0.09375 0.96875
vt 0.0625 0.96875
vt 0.0625 0.9765625
vt 0.0625 0.984375
vt 0.0703125 0.984375
vt 0.0703125 0.9765625
vt 0.0625 0.9765625
vn 0 0 -1
vn 1 0 0
vn 0 0 1
vn -1 0 0
vn 0 1 0
vn 0 -1 0
usemtl m_386ca4f1-58b6-72ad-bfad-1068213d77f8
f 36/84/21 39/83/21 37/82/21 34/81/21
usemtl none
f 35/88/22 36/87/22 34/86/22 33/85/22
usemtl m_386ca4f1-58b6-72ad-bfad-1068213d77f8
f 40/92/23 35/91/23 33/90/23 38/89/23
f 39/96/24 40/95/24 38/94/24 37/93/24
f 38/100/25 33/99/25 34/98/25 37/97/25
f 39/104/26 36/103/26 35/102/26 40/101/26
o output_cable2
v 0.08750000000000008 0.09375000000000003 -0.06249999999999999
v 0.08750000000000008 0.09375000000000003 0.0625
v 0.08750000000000008 3.469446951953614e-17 -0.0625
v 0.08750000000000008 2.0816681711721685e-17 0.06249999999999999
v 0.5 0.09374999999999997 0.0625
v 0.5 0.09374999999999997 -0.06249999999999999
v 0.5 -3.469446951953614e-17 0.06249999999999999
v 0.5 -2.0816681711721685e-17 -0.0625
vt 0.09375 0.984375
vt 0.09375 0.9765625
vt 0.0703125 0.9765625
vt 0.0703125 0.984375
vt 0 1
vt 0.015625 1
vt 0.015625 0.98828125
vt 0 0.98828125
vt 0.09375 0.984375
vt 0.09375 0.9765625
vt 0.0703125 0.9765625
vt 0.0703125 0.984375
vt 0.125 0.859375
vt 0.203125 0.859375
vt 0.203125 0.796875
vt 0.125 0.796875
vt 0.09375 0.9765625
vt 0.09375 0.96875
vt 0.0625 0.96875
vt 0.0625 0.9765625
vt 0.0625 0.984375
vt 0.0703125 0.984375
vt 0.0703125 0.9765625
vt 0.0625 0.9765625
vn -1.4997597826618576e-32 -1.2246467991473532e-16 1
vn -1 1.2246467991473532e-16 0
vn 1.4997597826618576e-32 1.2246467991473532e-16 -1
vn 1 -1.2246467991473532e-16 0
vn 1.2246467991473532e-16 1 1.2246467991473532e-16
vn -1.2246467991473532e-16 -1 -1.2246467991473532e-16
usemtl m_386ca4f1-58b6-72ad-bfad-1068213d77f8
f 44/108/27 47/107/27 45/106/27 42/105/27
usemtl none
f 43/112/28 44/111/28 42/110/28 41/109/28
usemtl m_386ca4f1-58b6-72ad-bfad-1068213d77f8
f 48/116/29 43/115/29 41/114/29 46/113/29
f 47/120/30 48/119/30 46/118/30 45/117/30
f 46/124/31 41/123/31 42/122/31 45/121/31
f 47/128/32 44/127/32 43/126/32 48/125/32
o belt_housing1
v 0.046875 0.43125 0.2734375
v 0.046875 0.43125 0.175
v 0.046875 0.34375 0.2734375
v 0.046875 0.34375 0.175
v -0.046875 0.43125 0.175
v -0.046875 0.43125 0.2734375
v -0.046875 0.34375 0.175
v -0.046875 0.34375 0.2734375
vt 0.8828125 0.0859375
vt 0.8828125 0.0390625
vt 0.5546875 0.0390625
vt 0.5546875 0.0859375
vt 0.8828125 0.0859375
vt 0.8828125 0.0390625
vt 0.5546875 0.0390625
vt 0.5546875 0.0859375
vt 0.8828125 0.0859375
vt 0.8828125 0.0390625
vt 0.5546875 0.0390625
vt 0.5546875 0.0859375
vt 0.8828125 0.0859375
vt 0.8828125 0.0390625
vt 0.5546875 0.0390625
vt 0.5546875 0.0859375
vt 0.0546875 0.234375
vt 0.109375 0.234375
vt 0.109375 0.1796875
vt 0.0546875 0.1796875
vn 0 0 -1
vn 1 0 0
vn 0 0 1
vn -1 0 0
vn 0 1 0
usemtl m_386ca4f1-58b6-72ad-bfad-1068213d77f8
f 52/132/33 55/131/33 53/130/33 50/129/33
f 51/136/34 52/135/34 50/134/34 49/133/34
f 56/140/35 51/139/35 49/138/35 54/137/35
f 55/144/36 56/143/36 54/142/36 53/141/36
f 54/148/37 49/147/37 50/146/37 53/145/37
o shroud_slant_1
v 0.07673996804523955 0.1446671053603722 0.18437499999999998
v 0.07673996804523955 0.1446671053603722 -0.46875
v 0.09184038267364834 0.11228416168718577 0.18437499999999998
v 0.09184038267364834 0.11228416168718577 -0.46875
v 0.07812435318993806 0.14531265475518113 -0.46875
v 0.07812435318993806 0.14531265475518113 0.18437499999999998
v 0.09322476781834685 0.1129297110819947 -0.46875
v 0.09322476781834685 0.1129297110819947 0.18437499999999998
vt 0.9140625 0.078125
vt 0.9140625 0.03125
vt 0.5859375 0.03125
vt 0.5859375 0.078125
vt 0.9140625 0.078125
vt 0.9140625 0.03125
vt 0.5859375 0.03125
vt 0.5859375 0.078125
vt 0.625 0.0859375
vt 0.875 0.0859375
vt 0.875 0.015625
vt 0.625 0.015625
vt 0 1
vt 0.000191015625 1
vt 0.000191015625 0.918359375
vt 0 0.918359375
vn 0 0 -1
vn 0 0 1
vn -0.9063077870366499 -0.42261826174069944 0
vn 0.42261826174069944 -0.9063077870366499 0
usemtl m_386ca4f1-58b6-72ad-bfad-1068213d77f8
f 60/152/38 63/151/38 61/150/38 58/149/38
f 64/156/39 59/155/39 57/154/39 62/153/39
f 63/160/40 64/159/40 62/158/40 61/157/40
usemtl none
f 63/164/41 60/163/41 59/162/41 64/161/41
o shroud_side_1
v 0.093225625 0.112929375 0.18437499999999996
v 0.093225625 0.112929375 -0.46875
v 0.093225625 0.006249999999999999 0.18437499999999996
v 0.093225625 0.006249999999999999 -0.46875
v 0.09184062499999998 0.112929375 -0.46875
v 0.09184062499999998 0.112929375 0.18437499999999996
v 0.09184062499999998 0.006249999999999999 -0.46875
v 0.09184062499999998 0.006249999999999999 0.18437499999999996
vt 0.5234375 0.078125
vt 0.9921875 0.078125
vt 0.9921875 0.03125
vt 0.5234375 0.03125
vn 1 0 0
usemtl m_386ca4f1-58b6-72ad-bfad-1068213d77f8
f 67/168/42 68/167/42 66/166/42 65/165/42
o shroud_cover_bottom_1_1
v 0.093225625 0.112929375 -0.46875
v 0.093225625 0.112929375 -0.4703125
v 0.093225625 0 -0.46875
v 0.093225625 0 -0.4703125
v 0.078125 0.112929375 -0.4703125
v 0.078125 0.112929375 -0.46875
v 0.078125 0 -0.4703125
v 0.078125 0 -0.46875
vt 1 0.0625
vt 1 0.03125
vt 0.78125 0.03125
vt 0.78125 0.0625
vt 0.6484375 0
vt 0.6484375 0.0546875
vt 0.7734375 0.0546875
vt 0.7734375 0
vt 0 1
vt 0.001887578125 1
vt 0.001887578125 0.985883828125
vt 0 0.985883828125
vt 0 1
vt 0.0001953125 1
vt 0.0001953125 0.985883828125
vt 0 0.985883828125
vt 0.5625 0.08613281250000004
vt 0.8515625 0.08613281250000004
vt 0.8515625 0.023632812500000044
vt 0.5625 0.023632812500000044
vt 0 1
vt 0.001887578125 1
vt 0.001887578125 0.9998046875
vt 0 0.9998046875
vn 0 0 -1
vn 1 0 0
vn 0 0 1
vn -1 0 0
vn 0 1 0
vn 0 -1 0
usemtl m_386ca4f1-58b6-72ad-bfad-1068213d77f8
f 76/172/43 79/171/43 77/170/43 74/169/43
f 75/176/44 76/175/44 74/174/44 73/173/44
usemtl none
f 80/180/45 75/179/45 73/178/45 78/177/45
f 79/184/46 80/183/46 78/182/46 77/181/46
usemtl m_386ca4f1-58b6-72ad-bfad-1068213d77f8
f 78/188/47 73/187/47 74/186/47 77/185/47
usemtl none
f 79/192/48 76/191/48 75/190/48 80/189/48
o shroud_cover_top_1_1
v 0.07812507206138182 0.1453122100319801 -0.46875
v 0.07812507206138182 0.1453122100319801 -0.47
v 0.09322548668979061 0.11292926635879369 -0.46875
v 0.09322548668979061 0.11292926635879369 -0.47
v 0.06538011880617894 0.13936914072625153 -0.47
v 0.06538011880617894 0.13936914072625153 -0.46875
v 0.08048053343458773 0.10698619705306511 -0.47
v 0.08048053343458773 0.10698619705306511 -0.46875
vt 0.5234375 0.0859375
vt 0.5703125 0.0859375
vt 0.5703125 0.0234375
vt 0.5234375 0.0234375
vt 0.90625 0.0703125
vt 0.90625 0.0234375
vt 0.5859375 0.0234375
vt 0.5859375 0.0703125
vt 0 1
vt 0.0017578125 1
vt 0.0017578125 0.995533671875
vt 0 0.995533671875
vt 0 1
vt 0.00015625 1
vt 0.00015625 0.995533671875
vt 0 0.995533671875
vt 0.6015625 0.078125
vt 0.96875 0.078125
vt 0.96875 0.03125
vt 0.6015625 0.03125
vt 0 1
vt 0.0017578125 1
vt 0.0017578125 0.99984375
vt 0 0.99984375
vn 0 0 -1
vn 0.9063077870366499 0.42261826174069944 0
vn 0 0 1
vn -0.9063077870366499 -0.42261826174069944 0
vn -0.42261826174069944 0.9063077870366499 0
vn 0.42261826174069944 -0.9063077870366499 0
usemtl m_386ca4f1-58b6-72ad-bfad-1068213d77f8
f 84/196/49 87/195/49 85/194/49 82/193/49
f 83/200/50 84/199/50 82/198/50 81/197/50
usemtl none
f 88/204/51 83/203/51 81/202/51 86/201/51
f 87/208/52 88/207/52 86/206/52 85/205/52
usemtl m_386ca4f1-58b6-72ad-bfad-1068213d77f8
f 86/212/53 81/211/53 82/210/53 85/209/53
usemtl none
f 87/216/54 84/215/54 83/214/54 88/213/54
o shroud_cover_bottom_2_1
v 0.078124375 0.112929375 0.18437499999999998
v 0.078124375 0.112929375 0.1859375
v 0.078124375 0 0.18437499999999998
v 0.078124375 0 0.1859375
v 0.093225 0.112929375 0.1859375
v 0.093225 0.112929375 0.18437499999999998
v 0.093225 0 0.1859375
v 0.093225 0 0.18437499999999998
vt 1 0.0625
vt 1 0.03125
vt 0.78125 0.03125
vt 0.78125 0.0625
vt 0 1
vt 0.0001953125 1
vt 0.0001953125 0.985883828125
vt 0 0.985883828125
vt 0 1
vt 0.001887578125 1
vt 0.001887578125 0.985883828125
vt 0 0.985883828125
vt 0.6484375 0
vt 0.6484375 0.0546875
vt 0.7734375 0.0546875
vt 0.7734375 0
vt 0.5625 0.08613281250000004
vt 0.8515625 0.08613281250000004
vt 0.8515625 0.023632812500000044
vt 0.5625 0.023632812500000044
vt 0 1
vt 0.001887578125 1
vt 0.001887578125 0.9998046875
vt 0 0.9998046875
vn -1.4997597826618576e-32 -1.2246467991473532e-16 1
vn -1 1.2246467991473532e-16 0
vn 1.4997597826618576e-32 1.2246467991473532e-16 -1
vn 1 -1.2246467991473532e-16 0
vn 1.2246467991473532e-16 1 1.2246467991473532e-16
vn -1.2246467991473532e-16 -1 -1.2246467991473532e-16
usemtl m_386ca4f1-58b6-72ad-bfad-1068213d77f8
f 92/220/55 95/219/55 93/218/55 90/217/55
usemtl none
f 91/224/56 92/223/56 90/222/56 89/221/56
f 96/228/57 91/227/57 89/226/57 94/225/57
usemtl m_386ca4f1-58b6-72ad-bfad-1068213d77f8
f 95/232/58 96/231/58 94/230/58 93/229/58
f 94/236/59 89/235/59 90/234/59 93/233/59
usemtl none
f 95/240/60 92/239/60 91/238/60 96/237/60
o shroud_cover_top_2_1
v 0.07812507206138182 0.1453122100319801 0.18562499999999998
v 0.07812507206138182 0.1453122100319801 0.184375
v 0.09322548668979061 0.11292926635879369 0.18562499999999998
v 0.09322548668979061 0.11292926635879369 0.184375
v 0.06538011880617894 0.13936914072625153 0.184375
v 0.06538011880617894 0.13936914072625153 0.18562499999999998
v 0.08048053343458773 0.10698619705306511 0.184375
v 0.08048053343458773 0.10698619705306511 0.18562499999999998
vt 0 1
vt 0.0017578125 1
vt 0.0017578125 0.995533671875
vt 0 0.995533671875
vt 0.90625 0.0703125
vt 0.90625 0.0234375
vt 0.5859375 0.0234375
vt 0.5859375 0.0703125
vt 0.5234375 0.0859375
vt 0.5703125 0.0859375
vt 0.5703125 0.0234375
vt 0.5234375 0.0234375
vt 0 1
vt 0.00015625 1
vt 0.00015625 0.995533671875
vt 0 0.995533671875
vt 0.6015625 0.078125
vt 0.96875 0.078125
vt 0.96875 0.03125
vt 0.6015625 0.03125
vt 0 1
vt 0.0017578125 1
vt 0.0017578125 0.99984375
vt 0 0.99984375
vn 0 0 -1
vn 0.9063077870366499 0.42261826174069944 0
vn 0 0 1
vn -0.9063077870366499 -0.42261826174069944 0
vn -0.42261826174069944 0.9063077870366499 0
vn 0.42261826174069944 -0.9063077870366499 0
usemtl none
f 100/244/61 103/243/61 101/242/61 98/241/61
usemtl m_386ca4f1-58b6-72ad-bfad-1068213d77f8
f 99/248/62 100/247/62 98/246/62 97/245/62
f 104/252/63 99/251/63 97/250/63 102/249/63
usemtl none
f 103/256/64 104/255/64 102/254/64 101/253/64
usemtl m_386ca4f1-58b6-72ad-bfad-1068213d77f8
f 102/260/65 97/259/65 98/258/65 101/257/65
usemtl none
f 103/264/66 100/263/66 99/262/66 104/261/66
o stator_ring2
v 0.06035562500000002 0.08878875000000003 0.2613381249999999
v 0.06035562500000004 0.08878874999999999 0.3394631249999999
v 0.04160562499999997 0.08878875000000003 0.2613381249999999
v 0.04160562499999999 0.08878874999999999 0.3394631249999999
v 0.06035562500000004 0.03878874999999998 0.33946312499999987
v 0.06035562500000002 0.03878875000000002 0.2613381249999999
v 0.04160562499999999 0.03878874999999998 0.3394631249999999
v 0.04160562499999997 0.03878875000000002 0.2613381249999999
vt 0.3515625 0.9140625
vt 0.3515625 0.6953125
vt 0.25 0.6953125
vt 0.25 0.9140625
vt 0.3515625 0.9140625
vt 0.3515625 0.6953125
vt 0.25 0.6953125
vt 0.25 0.9140625
vt 0 0.578125
vt 0.25 0.578125
vt 0.25 0.328125
vt 0 0.328125
vn 2.220446049250313e-16 -4.440892098500626e-16 1
vn -2.220446049250313e-16 4.440892098500626e-16 -1
vn 1 9.860761315262648e-32 -2.220446049250313e-16
usemtl m_386ca4f1-58b6-72ad-bfad-1068213d77f8
f 108/268/67 111/267/67 109/266/67 106/265/67
f 112/272/68 107/271/68 105/270/68 110/269/68
f 110/276/69 105/275/69 106/274/69 109/273/69
o stator_ring1
v 0.06035554124991606 0.038788547809411336 0.26157249999999993
v 0.060355541249916066 0.0387885478094113 0.3384474999999999
v 0.04709728910266826 0.05204679995665913 0.26157249999999993
v 0.04709728910266827 0.052046799956659104 0.33844749999999996
v 0.025000202190588686 0.0034332087500839256 0.3384474999999999
v 0.025000202190588676 0.0034332087500839603 0.2615724999999999
v 0.011741950043340886 0.01669146089733172 0.3384474999999999
v 0.011741950043340877 0.016691460897331756 0.26157249999999993
vt 0.3515625 0.9140625
vt 0.3515625 0.6953125
vt 0.25 0.6953125
vt 0.25 0.9140625
vt 0.3515625 0.9140625
vt 0.3515625 0.6953125
vt 0.25 0.6953125
vt 0.25 0.9140625
vt 0 0.578125
vt 0.25 0.578125
vt 0.25 0.328125
vt 0 0.328125
vn 2.3551386880256634e-16 -4.575584737275977e-16 1
vn -2.3551386880256634e-16 4.575584737275977e-16 -1
vn 0.7071067811865475 -0.7071067811865476 -3.925231146709438e-16
usemtl m_386ca4f1-58b6-72ad-bfad-1068213d77f8
f 116/280/70 119/279/70 117/278/70 114/277/70
f 120/284/71 115/283/71 113/282/71 118/281/71
f 118/288/72 113/287/72 114/286/72 117/285/72
o stator_ring0
v 0.025 0.003433124999999995 0.26133812499999987
v 0.025 0.0034331249999999605 0.33946312499999987
v 0.025 0.02218312500000004 0.2613381249999999
v 0.025 0.022183125000000005 0.3394631249999999
v -0.025 0.0034331249999999605 0.33946312499999987
v -0.025 0.003433124999999995 0.26133812499999987
v -0.025 0.022183125000000005 0.3394631249999999
v -0.025 0.02218312500000004 0.2613381249999999
vt 0.3515625 0.9140625
vt 0.3515625 0.6953125
vt 0.25 0.6953125
vt 0.25 0.9140625
vt 0.3515625 0.9140625
vt 0.3515625 0.6953125
vt 0.25 0.6953125
vt 0.25 0.9140625
vt 0 0.578125
vt 0.25 0.578125
vt 0.25 0.328125
vt 0 0.328125
vn 0 -4.440892098500626e-16 1
vn 0 4.440892098500626e-16 -1
vn 0 -1 -4.440892098500626e-16
usemtl m_386ca4f1-58b6-72ad-bfad-1068213d77f8
f 124/292/73 127/291/73 125/290/73 122/289/73
f 128/296/74 123/295/74 121/294/74 126/293/74
f 126/300/75 121/299/75 122/298/75 125/297/75
o stator_ring7
v -0.025000202190588676 0.0034332087500839603 0.2615724999999999
v -0.025000202190588686 0.0034332087500839256 0.3384474999999999
v -0.011741950043340877 0.016691460897331756 0.26157249999999993
v -0.011741950043340886 0.01669146089733172 0.3384474999999999
v -0.060355541249916066 0.0387885478094113 0.3384474999999999
v -0.06035554124991606 0.038788547809411336 0.26157249999999993
v -0.04709728910266827 0.052046799956659104 0.33844749999999996
v -0.04709728910266826 0.05204679995665913 0.26157249999999993
vt 0.3515625 0.9140625
vt 0.3515625 0.6953125
vt 0.25 0.6953125
vt 0.25 0.9140625
vt 0.3515625 0.9140625
vt 0.3515625 0.6953125
vt 0.25 0.6953125
vt 0.25 0.9140625
vt 0 0.578125
vt 0.25 0.578125
vt 0.25 0.328125
vt 0 0.328125
vn -2.3551386880256634e-16 -4.575584737275977e-16 1
vn 2.3551386880256634e-16 4.575584737275977e-16 -1
vn -0.7071067811865475 -0.7071067811865476 -3.925231146709438e-16
usemtl m_386ca4f1-58b6-72ad-bfad-1068213d77f8
f 132/304/76 135/303/76 133/302/76 130/301/76
f 136/308/77 131/307/77 129/306/77 134/305/77
f 134/312/78 129/311/78 130/310/78 133/309/78
o stator_ring6
v -0.06035562500000002 0.03878875000000002 0.2613381249999999
v -0.06035562500000004 0.03878874999999998 0.33946312499999987
v -0.04160562499999997 0.03878875000000002 0.2613381249999999
v -0.04160562499999999 0.03878874999999998 0.3394631249999999
v -0.06035562500000004 0.08878874999999999 0.3394631249999999
v -0.06035562500000002 0.08878875000000003 0.2613381249999999
v -0.04160562499999999 0.08878874999999999 0.3394631249999999
v -0.04160562499999997 0.08878875000000003 0.2613381249999999
vt 0.3515625 0.9140625
vt 0.3515625 0.6953125
vt 0.25 0.6953125
vt 0.25 0.9140625
vt 0.3515625 0.9140625
vt 0.3515625 0.6953125
vt 0.25 0.6953125
vt 0.25 0.9140625
vt 0 0.578125
vt 0.25 0.578125
vt 0.25 0.328125
vt 0 0.328125
vn -2.220446049250313e-16 -4.440892098500626e-16 1
vn 2.220446049250313e-16 4.440892098500626e-16 -1
vn -1 9.860761315262648e-32 -2.220446049250313e-16
usemtl m_386ca4f1-58b6-72ad-bfad-1068213d77f8
f 140/316/79 143/315/79 141/314/79 138/313/79
f 144/320/80 139/319/80 137/318/80 142/317/80
f 142/324/81 137/323/81 138/322/81 141/321/81
o stator_ring4
v -0.025000000000000005 0.12414437500000004 0.261338125
v -0.024999999999999994 0.124144375 0.339463125
v -0.025000000000000005 0.105394375 0.2613381249999999
v -0.024999999999999994 0.10539437499999996 0.3394631249999999
v 0.02500000000000001 0.124144375 0.3394631249999999
v 0.024999999999999998 0.12414437500000004 0.2613381249999999
v 0.02500000000000001 0.10539437499999996 0.3394631249999999
v 0.024999999999999998 0.105394375 0.2613381249999999
vt 0.3515625 0.9140625
vt 0.3515625 0.6953125
vt 0.25 0.6953125
vt 0.25 0.9140625
vt 0.3515625 0.9140625
vt 0.3515625 0.6953125
vt 0.25 0.6953125
vt 0.25 0.9140625
vt 0 0.578125
vt 0.25 0.578125
vt 0.25 0.328125
vt 0 0.328125
vn 1.2246467991473532e-16 -4.440892098500626e-16 1
vn -1.2246467991473532e-16 4.440892098500626e-16 -1
vn 2.719262146893782e-32 1 4.440892098500626e-16
usemtl m_386ca4f1-58b6-72ad-bfad-1068213d77f8
f 148/328/82 151/327/82 149/326/82 146/325/82
f 152/332/83 147/331/83 145/330/83 150/329/83
f 150/336/84 145/335/84 146/334/84 149/333/84
o stator_ring3
v 0.02500020219058869 0.12414429124991608 0.26157249999999993
v 0.02500020219058867 0.12414429124991605 0.33844749999999996
v 0.011741950043340893 0.11088603910266828 0.26157249999999993
v 0.01174195004334087 0.11088603910266825 0.33844749999999996
v 0.060355541249916045 0.08878895219058866 0.33844749999999996
v 0.060355541249916066 0.0887889521905887 0.26157249999999993
v 0.04709728910266825 0.07553070004334086 0.33844749999999996
v 0.04709728910266827 0.0755307000433409 0.26157249999999993
vt 0.3515625 0.9140625
vt 0.3515625 0.6953125
vt 0.25 0.6953125
vt 0.25 0.9140625
vt 0.3515625 0.9140625
vt 0.3515625 0.6953125
vt 0.25 0.6953125
vt 0.25 0.9140625
vt 0 0.578125
vt 0.25 0.578125
vt 0.25 0.328125
vt 0 0.328125
vn -2.355138688025663e-16 -3.005492278592201e-16 1
vn 2.355138688025663e-16 3.005492278592201e-16 -1
vn 0.7071067811865476 0.7071067811865476 5.10280049072227e-16
usemtl m_386ca4f1-58b6-72ad-bfad-1068213d77f8
f 156/340/85 159/339/85 157/338/85 154/337/85
f 160/344/86 155/343/86 153/342/86 158/341/86
f 158/348/87 153/347/87 154/346/87 157/345/87
o stator_ring5
v -0.060355541249916066 0.0887889521905887 0.26157249999999993
v -0.060355541249916045 0.08878895219058866 0.33844749999999996
v -0.04709728910266827 0.0755307000433409 0.26157249999999993
v -0.04709728910266825 0.07553070004334086 0.33844749999999996
v -0.02500020219058867 0.12414429124991605 0.33844749999999996
v -0.02500020219058869 0.12414429124991608 0.26157249999999993
v -0.01174195004334087 0.11088603910266825 0.33844749999999996
v -0.011741950043340893 0.11088603910266828 0.26157249999999993
vt 0.3515625 0.9140625
vt 0.3515625 0.6953125
vt 0.25 0.6953125
vt 0.25 0.9140625
vt 0.3515625 0.9140625
vt 0.3515625 0.6953125
vt 0.25 0.6953125
vt 0.25 0.9140625
vt 0 0.578125
vt 0.25 0.578125
vt 0.25 0.328125
vt 0 0.328125
vn 2.355138688025663e-16 -3.005492278592201e-16 1
vn -2.355138688025663e-16 3.005492278592201e-16 -1
vn -0.7071067811865476 0.7071067811865476 5.10280049072227e-16
usemtl m_386ca4f1-58b6-72ad-bfad-1068213d77f8
f 164/352/88 167/351/88 165/350/88 162/349/88
f 168/356/89 163/355/89 161/354/89 166/353/89
f 166/360/90 161/359/90 162/358/90 165/357/90
o stator_cover_front
v 0.0421875 0.10597625000000001 0.26160124999999995
v 0.0421875 0.02160125000000003 0.26160124999999995
v 0.0421875 0.10597625000000001 0.26316375
v 0.0421875 0.02160125000000003 0.26316375
v -0.0421875 0.02160125000000003 0.26160124999999995
v -0.0421875 0.10597625000000001 0.26160124999999995
v -0.0421875 0.02160125000000003 0.26316375
v -0.0421875 0.10597625000000001 0.26316375
vt 0.0625 0.25
vt 0.1953125 0.25
vt 0.1953125 0.109375
vt 0.0625 0.109375
vn 0 2.220446049250313e-16 -1
usemtl m_386ca4f1-58b6-72ad-bfad-1068213d77f8
f 174/364/91 169/363/91 170/362/91 173/361/91
o coil1
v 0.018396875 0.118979375 0.26290062499999994
v 0.018396875 0.008598125000000019 0.26290062499999994
v 0.018396875 0.11897937499999998 0.33477562499999997
v 0.018396875 0.008598124999999998 0.33477562499999997
v -0.018396875 0.008598125000000019 0.26290062499999994
v -0.018396875 0.118979375 0.26290062499999994
v -0.018396875 0.008598124999999998 0.33477562499999997
v -0.018396875 0.11897937499999998 0.33477562499999997
vt 0.3046875 0.6953125
vt 0.3515625 0.6953125
vt 0.3515625 0.5
vt 0.3046875 0.5
vt 0.25 0.6953125
vt 0.3515625 0.6953125
vt 0.3515625 0.5
vt 0.25 0.5
vt 0.3046875 0.6953125
vt 0.3515625 0.6953125
vt 0.3515625 0.5
vt 0.3046875 0.5
vt 0.25 0.6953125
vt 0.3515625 0.6953125
vt 0.3515625 0.5
vt 0.25 0.5
vt 0 1
vt 0.0390625 1
vt 0.0390625 0.9375
vt 0 0.9375
vt 0 1
vt 0.0390625 1
vt 0.0390625 0.9375
vt 0 0.9375
vn 0 -1 -2.220446049250313e-16
vn 1 0 0
vn 0 1 2.220446049250313e-16
vn -1 0 0
vn 0 2.220446049250313e-16 -1
vn 0 -2.220446049250313e-16 1
usemtl m_386ca4f1-58b6-72ad-bfad-1068213d77f8
f 180/368/92 183/367/92 181/366/92 178/365/92
f 179/372/93 180/371/93 178/370/93 177/369/93
f 184/376/94 179/375/94 177/374/94 182/373/94
f 183/380/95 184/379/95 182/378/95 181/377/95
f 182/384/96 177/383/96 178/382/96 181/381/96
f 183/388/97 180/387/97 179/386/97 184/385/97
o coil2
v 0.055190625 0.045391875000000026 0.26446312499999997
v -0.055190624999999986 0.045391875 0.26446312499999997
v 0.055190625 0.04539187500000001 0.33321312499999994
v -0.055190624999999986 0.045391874999999984 0.33321312499999994
v -0.055190625 0.082185625 0.26446312499999997
v 0.055190624999999986 0.08218562500000003 0.26446312499999997
v -0.055190625 0.08218562499999998 0.33321312499999994
v 0.055190624999999986 0.08218562500000001 0.33321312499999994
vt 0.3046875 0.6953125
vt 0.3515625 0.6953125
vt 0.3515625 0.5
vt 0.3046875 0.5
vt 0.25 0.6953125
vt 0.3515625 0.6953125
vt 0.3515625 0.5
vt 0.25 0.5
vt 0.3046875 0.6953125
vt 0.3515625 0.6953125
vt 0.3515625 0.5
vt 0.3046875 0.5
vt 0.25 0.6953125
vt 0.3515625 0.6953125
vt 0.3515625 0.5
vt 0.25 0.5
vt 0 1
vt 0.0390625 1
vt 0.0390625 0.9375
vt 0 0.9375
vt 0 1
vt 0.0390625 1
vt 0.0390625 0.9375
vt 0 0.9375
vn -1 -2.220446049250313e-16 -4.930380657631324e-32
vn 2.220446049250313e-16 -1 -2.220446049250313e-16
vn 1 2.220446049250313e-16 4.930380657631324e-32
vn -2.220446049250313e-16 1 2.220446049250313e-16
vn 0 2.220446049250313e-16 -1
vn 0 -2.220446049250313e-16 1
usemtl m_386ca4f1-58b6-72ad-bfad-1068213d77f8
f 188/392/98 191/391/98 189/390/98 186/389/98
f 187/396/99 188/395/99 186/394/99 185/393/99
f 192/400/100 187/399/100 185/398/100 190/397/100
f 191/404/101 192/403/101 190/402/101 189/401/101
f 190/408/102 185/407/102 186/406/102 189/405/102
f 191/412/103 188/411/103 187/410/103 192/409/103
o coil4
v 0.026017110130282538 0.01175452973943495 0.266025625
v -0.05203422026056507 0.08980586013028252 0.266025625
v 0.026017110130282538 0.011754529739434937 0.3316506249999999
v -0.05203422026056507 0.08980586013028252 0.3316506249999999
v -0.026017110130282538 0.11582297026056507 0.266025625
v 0.05203422026056507 0.03777163986971749 0.266025625
v -0.026017110130282538 0.11582297026056505 0.3316506249999999
v 0.05203422026056507 0.037771639869717474 0.3316506249999999
vt 0.3046875 0.6953125
vt 0.3515625 0.6953125
vt 0.3515625 0.5
vt 0.3046875 0.5
vt 0.25 0.6953125
vt 0.3515625 0.6953125
vt 0.3515625 0.5
vt 0.25 0.5
vt 0.3046875 0.6953125
vt 0.3515625 0.6953125
vt 0.3515625 0.5
vt 0.3046875 0.5
vt 0.25 0.6953125
vt 0.3515625 0.6953125
vt 0.3515625 0.5
vt 0.25 0.5
vt 0 1
vt 0.0390625 1
vt 0.0390625 0.9375
vt 0 0.9375
vt 0 1
vt 0.0390625 1
vt 0.0390625 0.9375
vt 0 0.9375
vn -0.7071067811865477 0.7071067811865475 1.570092458683775e-16
vn -0.7071067811865475 -0.7071067811865477 -1.5700924586837754e-16
vn 0.7071067811865477 -0.7071067811865475 -1.570092458683775e-16
vn 0.7071067811865475 0.7071067811865477 1.5700924586837754e-16
vn 0 2.220446049250313e-16 -1
vn 0 -2.220446049250313e-16 1
usemtl m_386ca4f1-58b6-72ad-bfad-1068213d77f8
f 196/416/104 199/415/104 197/414/104 194/413/104
f 195/420/105 196/419/105 194/418/105 193/417/105
f 200/424/106 195/423/106 193/422/106 198/421/106
f 199/428/107 200/427/107 198/426/107 197/425/107
f 198/432/108 193/431/108 194/430/108 197/429/108
f 199/436/109 196/435/109 195/434/109 200/433/109
o coil3
v 0.05203422026056506 0.08980586013028252 0.266025625
v -0.02601711013028253 0.01175452973943495 0.266025625
v 0.05203422026056506 0.08980586013028252 0.3316506249999999
v -0.02601711013028253 0.011754529739434937 0.3316506249999999
v -0.05203422026056506 0.03777163986971749 0.266025625
v 0.02601711013028253 0.11582297026056507 0.266025625
v -0.05203422026056506 0.037771639869717474 0.3316506249999999
v 0.02601711013028253 0.11582297026056505 0.3316506249999999
vt 0.3046875 0.6953125
vt 0.3515625 0.6953125
vt 0.3515625 0.5
vt 0.3046875 0.5
vt 0.25 0.6953125
vt 0.3515625 0.6953125
vt 0.3515625 0.5
vt 0.25 0.5
vt 0.3046875 0.6953125
vt 0.3515625 0.6953125
vt 0.3515625 0.5
vt 0.3046875 0.5
vt 0.25 0.6953125
vt 0.3515625 0.6953125
vt 0.3515625 0.5
vt 0.25 0.5
vt 0 1
vt 0.0390625 1
vt 0.0390625 0.9375
vt 0 0.9375
vt 0 1
vt 0.0390625 1
vt 0.0390625 0.9375
vt 0 0.9375
vn -0.7071067811865476 -0.7071067811865475 -1.570092458683775e-16
vn 0.7071067811865475 -0.7071067811865476 -1.5700924586837752e-16
vn 0.7071067811865476 0.7071067811865475 1.570092458683775e-16
vn -0.7071067811865475 0.7071067811865476 1.5700924586837752e-16
vn 0 2.220446049250313e-16 -1
vn 0 -2.220446049250313e-16 1
usemtl m_386ca4f1-58b6-72ad-bfad-1068213d77f8
f 204/440/110 207/439/110 205/438/110 202/437/110
f 203/444/111 204/443/111 202/442/111 201/441/111
f 208/448/112 203/447/112 201/446/112 206/445/112
f 207/452/113 208/451/113 206/450/113 205/449/113
f 206/456/114 201/455/114 202/454/114 205/453/114
f 207/460/115 204/459/115 203/458/115 208/457/115
o generator_power_coupling0
v 0.01234375 0.02581999999999994 0.33766624999999995
v 0.01234375 0.021132499999999985 0.33766624999999995
v 0.01234375 0.02581999999999994 0.3501662499999999
v 0.01234375 0.021132499999999985 0.3501662499999999
v 0.00765625 0.021132499999999985 0.33766624999999995
v 0.00765625 0.02581999999999994 0.33766624999999995
v 0.00765625 0.021132499999999985 0.3501662499999999
v 0.00765625 0.02581999999999994 0.3501662499999999
vt 0.0625 1
vt 0.09375 1
vt 0.09375 0.984375
vt 0.0625 0.984375
vt 0.0625 1
vt 0.09375 1
vt 0.09375 0.984375
vt 0.0625 0.984375
vt 0.0625 1
vt 0.09375 1
vt 0.09375 0.984375
vt 0.0625 0.984375
vt 0.0625 1
vt 0.09375 1
vt 0.09375 0.984375
vt 0.0625 0.984375
vn 0 -1 -2.220446049250313e-16
vn 1 0 0
vn 0 1 2.220446049250313e-16
vn -1 0 0
usemtl m_386ca4f1-58b6-72ad-bfad-1068213d77f8
f 212/464/116 215/463/116 213/462/116 210/461/116
f 211/468/117 212/467/117 210/466/117 209/465/117
f 216/472/118 211/471/118 209/470/118 214/469/118
f 215/476/119 216/475/119 214/474/119 213/473/119
o generator_power_coupling1
v -0.00640625000000008 0.02582000000000002 0.3501662499999999
v -0.011093750000000036 0.025820000000000017 0.3501662499999999
v -0.0064062500000000785 0.025820000000000023 0.33766624999999995
v -0.011093750000000034 0.02582000000000002 0.33766624999999995
v -0.011093750000000034 0.02113250000000002 0.35016624999999985
v -0.0064062500000000785 0.02113250000000002 0.35016624999999985
v -0.011093750000000032 0.02113250000000002 0.3376662499999999
v -0.006406250000000077 0.02113250000000002 0.3376662499999999
vt 0.0625 1
vt 0.09375 1
vt 0.09375 0.984375
vt 0.0625 0.984375
vt 0.0625 1
vt 0.09375 1
vt 0.09375 0.984375
vt 0.0625 0.984375
vt 0.0625 1
vt 0.09375 1
vt 0.09375 0.984375
vt 0.0625 0.984375
vt 0.0625 1
vt 0.09375 1
vt 0.09375 0.984375
vt 0.0625 0.984375
vn -1 -2.2204460492503128e-16 -1.2246467991473537e-16
vn -2.220446049250313e-16 1 2.2204460492503128e-16
vn 1 2.2204460492503128e-16 1.2246467991473537e-16
vn 2.220446049250313e-16 -1 -2.2204460492503128e-16
usemtl m_386ca4f1-58b6-72ad-bfad-1068213d77f8
f 220/480/120 223/479/120 221/478/120 218/477/120
f 219/484/121 220/483/121 218/482/121 217/481/121
f 224/488/122 219/487/122 217/486/122 222/485/122
f 223/492/123 224/491/123 222/490/123 221/489/123
o power_supply_cable_red_1
v 0.05296875000000001 0.025819999999999975 0.18660124999999994
v 0.05296875000000001 0.02113250000000002 0.18660124999999994
v 0.05296875000000001 0.025819999999999933 0.36410124999999993
v 0.05296875000000001 0.021132499999999978 0.36410124999999993
v 0.04828125 0.02113250000000002 0.18660124999999994
v 0.04828125 0.025819999999999975 0.18660124999999994
v 0.04828125 0.021132499999999978 0.36410124999999993
v 0.04828125 0.025819999999999933 0.36410124999999993
vt 0.0625 0.96875
vt 0.0703125 0.96875
vt 0.0703125 0.9609375
vt 0.0625 0.9609375
vt 0.0625 0.96875
vt 0.0703125 0.96875
vt 0.0703125 0.9609375
vt 0.0625 0.9609375
vt 0.0625 0.96875
vt 0.0703125 0.96875
vt 0.0703125 0.9609375
vt 0.0625 0.9609375
vt 0.0625 0.96875
vt 0.0703125 0.96875
vt 0.0703125 0.9609375
vt 0.0625 0.9609375
vn 0 -1 -2.220446049250313e-16
vn 1 0 0
vn 0 1 2.220446049250313e-16
vn -1 0 0
usemtl m_386ca4f1-58b6-72ad-bfad-1068213d77f8
f 228/496/124 231/495/124 229/494/124 226/493/124
f 227/500/125 228/499/125 226/498/125 225/497/125
f 232/504/126 227/503/126 225/502/126 230/501/126
f 231/508/127 232/507/127 230/506/127 229/505/127
o power_supply_cable_red_0
v 0.05296874999999999 0.025788750000000013 0.36422874999999993
v 0.05296874999999999 0.021101250000000057 0.36422874999999993
v 0.029531249999999988 0.025788750000000013 0.36422874999999993
v 0.029531249999999988 0.021101250000000057 0.36422874999999993
v 0.05296874999999999 0.021101250000000057 0.35954125
v 0.05296874999999999 0.025788750000000013 0.35954125
v 0.029531249999999988 0.021101250000000057 0.35954125
v 0.029531249999999988 0.025788750000000013 0.35954125
vt 0.0625 0.96875
vt 0.0703125 0.96875
vt 0.0703125 0.9609375
vt 0.0625 0.9609375
vt 0.0625 0.96875
vt 0.0703125 0.96875
vt 0.0703125 0.9609375
vt 0.0625 0.9609375
vt 0.0625 0.96875
vt 0.0703125 0.96875
vt 0.0703125 0.9609375
vt 0.0625 0.9609375
vt 0.0625 0.96875
vt 0.0703125 0.96875
vt 0.0703125 0.9609375
vt 0.0625 0.9609375
vn 0 -1 -2.220446049250313e-16
vn 2.220446049250313e-16 -2.220446049250313e-16 1
vn 0 1 2.220446049250313e-16
vn -2.220446049250313e-16 2.220446049250313e-16 -1
usemtl m_386ca4f1-58b6-72ad-bfad-1068213d77f8
f 236/512/128 239/511/128 237/510/128 234/509/128
f 235/516/129 236/515/129 234/514/129 233/513/129
f 240/520/130 235/519/130 233/518/130 238/517/130
f 239/524/131 240/523/131 238/522/131 237/521/131
o power_supply_cable_black_1
v 0.05765625 0.025819999999999975 0.18660124999999989
v 0.05765625 0.02113250000000002 0.18660124999999989
v 0.05765625 0.025819999999999933 0.3703512499999999
v 0.05765625 0.021132499999999978 0.3703512499999999
v 0.05296875 0.02113250000000002 0.18660124999999989
v 0.05296875 0.025819999999999975 0.18660124999999989
v 0.05296875 0.021132499999999978 0.3703512499999999
v 0.05296875 0.025819999999999933 0.3703512499999999
vt 0.0703125 0.96875
vt 0.078125 0.96875
vt 0.078125 0.9609375
vt 0.0703125 0.9609375
vt 0.0703125 0.96875
vt 0.078125 0.96875
vt 0.078125 0.9609375
vt 0.0703125 0.9609375
vt 0.0703125 0.96875
vt 0.078125 0.96875
vt 0.078125 0.9609375
vt 0.0703125 0.9609375
vt 0.0703125 0.96875
vt 0.078125 0.96875
vt 0.078125 0.9609375
vt 0.0703125 0.9609375
vn 0 -1 -2.220446049250313e-16
vn 1 0 0
vn 0 1 2.220446049250313e-16
vn -1 0 0
usemtl m_386ca4f1-58b6-72ad-bfad-1068213d77f8
f 244/528/132 247/527/132 245/526/132 242/525/132
f 243/532/133 244/531/133 242/530/133 241/529/133
f 248/536/134 243/535/134 241/534/134 246/533/134
f 247/540/135 248/539/135 246/538/135 245/537/135
o power_supply_cable_black_0
v 0.057656250000000006 0.025788750000000013 0.3704787499999999
v 0.057656250000000006 0.021101250000000057 0.3704787499999999
v 0.029531249999999995 0.025788750000000013 0.3704787499999999
v 0.029531249999999995 0.021101250000000057 0.3704787499999999
v 0.057656250000000006 0.021101250000000057 0.36579124999999996
v 0.057656250000000006 0.025788750000000013 0.36579124999999996
v 0.029531249999999995 0.021101250000000057 0.36579124999999996
v 0.029531249999999995 0.025788750000000013 0.36579124999999996
vt 0.0703125 0.96875
vt 0.078125 0.96875
vt 0.078125 0.9609375
vt 0.0703125 0.9609375
vt 0.0703125 0.96875
vt 0.078125 0.96875
vt 0.078125 0.9609375
vt 0.0703125 0.9609375
vt 0.0703125 0.96875
vt 0.078125 0.96875
vt 0.078125 0.9609375
vt 0.0703125 0.9609375
vt 0.0703125 0.96875
vt 0.078125 0.96875
vt 0.078125 0.9609375
vt 0.0703125 0.9609375
vn 0 -1 -2.220446049250313e-16
vn 2.220446049250313e-16 -2.220446049250313e-16 1
vn 0 1 2.220446049250313e-16
vn -2.220446049250313e-16 2.220446049250313e-16 -1
usemtl m_386ca4f1-58b6-72ad-bfad-1068213d77f8
f 252/544/136 255/543/136 253/542/136 250/541/136
f 251/548/137 252/547/137 250/546/137 249/545/137
f 256/552/138 251/551/138 249/550/138 254/549/138
f 255/556/139 256/555/139 254/554/139 253/553/139
o stator_cover_back
v -0.0421875 0.10597624999999998 0.33816374999999993
v -0.0421875 0.021601250000000002 0.3381637499999999
v -0.0421875 0.10597624999999998 0.3366012499999999
v -0.0421875 0.021601250000000002 0.33660124999999985
v 0.0421875 0.021601250000000002 0.3381637499999999
v 0.0421875 0.10597624999999998 0.33816374999999993
v 0.0421875 0.021601250000000002 0.33660124999999985
v 0.0421875 0.10597624999999998 0.3366012499999999
vt 0.0625 0.25
vt 0.1953125 0.25
vt 0.1953125 0.109375
vt 0.0625 0.109375
vn 1.2246467991473532e-16 -2.220446049250313e-16 1
usemtl m_386ca4f1-58b6-72ad-bfad-1068213d77f8
f 262/560/140 257/559/140 258/558/140 261/557/140
o generator_bottom_plate
v 0.059375 0.02160125000000003 0.18749999999999992
v 0.059375 0.00597625000000003 0.1874999999999999
v 0.059375 0.02160124999999998 0.4062499999999999
v 0.059375 0.0059762499999999885 0.4062499999999999
v -0.059375 0.00597625000000003 0.1874999999999999
v -0.059375 0.02160125000000003 0.18749999999999992
v -0.059375 0.0059762499999999885 0.4062499999999999
v -0.059375 0.02160124999999998 0.4062499999999999
vt 0.0546875 0.25
vt 0.125 0.25
vt 0.125 0.109375
vt 0.0546875 0.109375
vt 0.21875 0.109375
vt 0.03125 0.109375
vt 0.03125 0.328125
vt 0.21875 0.328125
vt 0.0546875 0.25
vt 0.125 0.25
vt 0.125 0.109375
vt 0.0546875 0.109375
vt 0.0546875 0.25
vt 0.125 0.25
vt 0.125 0.109375
vt 0.0546875 0.109375
vt 0.0546875 0.25
vt 0.125 0.25
vt 0.125 0.109375
vt 0.0546875 0.109375
vn 1 0 0
vn 0 1 2.220446049250313e-16
vn -1 0 0
vn 0 2.220446049250313e-16 -1
vn 0 -2.220446049250313e-16 1
usemtl m_386ca4f1-58b6-72ad-bfad-1068213d77f8
f 267/564/141 268/563/141 266/562/141 265/561/141
f 272/568/142 267/567/142 265/566/142 270/565/142
f 271/572/143 272/571/143 270/570/143 269/569/143
f 270/576/144 265/575/144 266/574/144 269/573/144
f 271/580/145 268/579/145 267/578/145 272/577/145
o generator_bracket1
v -0.05937499999999999 0.08722625000000006 0.30006249999999995
v -0.05937499999999999 0.08722625000000006 0.28587499999999993
v -0.05937499999999999 0.005976250000000044 0.30006249999999995
v -0.05937499999999999 0.005976250000000044 0.28587499999999993
v -0.06875 0.08722625000000006 0.28587499999999993
v -0.06875 0.08722625000000006 0.30006249999999995
v -0.06875 0.005976250000000044 0.28587499999999993
v -0.06875 0.005976250000000044 0.30006249999999995
vt 0.328125 0.5
vt 0.375 0.5
vt 0.375 0.25
vt 0.328125 0.25
vt 0.328125 0.5
vt 0.375 0.5
vt 0.375 0.25
vt 0.328125 0.25
vt 0.328125 0.5
vt 0.375 0.5
vt 0.375 0.25
vt 0.328125 0.25
vt 0.328125 0.5
vt 0.375 0.5
vt 0.375 0.25
vt 0.328125 0.25
vt 0.328125 0.4921875
vt 0.375 0.4921875
vt 0.375 0.4375
vt 0.328125 0.4375
vn 0 0 -1
vn 1 0 0
vn 0 0 1
vn -1 0 0
vn 0 1 0
usemtl m_386ca4f1-58b6-72ad-bfad-1068213d77f8
f 276/584/146 279/583/146 277/582/146 274/581/146
f 275/588/147 276/587/147 274/586/147 273/585/147
f 280/592/148 275/591/148 273/590/148 278/589/148
f 279/596/149 280/595/149 278/594/149 277/593/149
f 278/600/150 273/599/150 274/598/150 277/597/150
o generator_bracket2
v -0.018371271745443955 0.12434710218093217 0.29999999999999993
v -0.018371271745443955 0.12434710218093217 0.28593749999999996
v -0.06212129412267038 0.08059707980370574 0.29999999999999993
v -0.06212129412267038 0.08059707980370574 0.28593749999999996
v -0.025000397819067835 0.13097622825455604 0.28593749999999996
v -0.025000397819067835 0.13097622825455604 0.29999999999999993
v -0.06875042019629427 0.08722620587732963 0.28593749999999996
v -0.06875042019629427 0.08722620587732963 0.29999999999999993
vt 0.328125 0.5
vt 0.375 0.5
vt 0.375 0.25
vt 0.328125 0.25
vt 0.328125 0.5
vt 0.375 0.5
vt 0.375 0.25
vt 0.328125 0.25
vt 0.328125 0.5
vt 0.375 0.5
vt 0.375 0.25
vt 0.328125 0.25
vt 0.328125 0.5
vt 0.375 0.5
vt 0.375 0.25
vt 0.328125 0.25
vt 0.328125 0.4921875
vt 0.375 0.4921875
vt 0.375 0.4375
vt 0.328125 0.4375
vn -2.355138688025663e-16 -1.3469263877535007e-17 -1
vn 0.7071067811865476 -0.7071067811865476 -7.850462293418876e-17
vn 2.355138688025663e-16 1.3469263877535007e-17 1
vn -0.7071067811865476 0.7071067811865476 7.850462293418876e-17
vn 0.7071067811865475 0.7071067811865476 -7.850462293418875e-17
usemtl m_386ca4f1-58b6-72ad-bfad-1068213d77f8
f 284/604/151 287/603/151 285/602/151 282/601/151
f 283/608/152 284/607/152 282/606/152 281/605/152
f 288/612/153 283/611/153 281/610/153 286/609/153
f 287/616/154 288/615/154 286/614/154 285/613/154
f 286/620/155 281/619/155 282/618/155 285/617/155
o generator_bracket3
v 0.025000000000000005 0.12160125000000001 0.30006249999999995
v 0.025 0.12160125000000001 0.28587499999999993
v -0.025000000000000043 0.12160125000000001 0.30006249999999995
v -0.025000000000000043 0.12160125000000001 0.28587499999999993
v 0.025 0.13097625000000002 0.28587499999999993
v 0.025000000000000005 0.13097625000000002 0.30006249999999995
v -0.025000000000000043 0.13097625000000002 0.28587499999999993
v -0.025000000000000043 0.13097625000000002 0.30006249999999995
vt 0.328125 0.5
vt 0.375 0.5
vt 0.375 0.25
vt 0.328125 0.25
vt 0.328125 0.5
vt 0.375 0.5
vt 0.375 0.25
vt 0.328125 0.25
vt 0.328125 0.5
vt 0.375 0.5
vt 0.375 0.25
vt 0.328125 0.25
vt 0.328125 0.5
vt 0.375 0.5
vt 0.375 0.25
vt 0.328125 0.25
vt 0.328125 0.4921875
vt 0.375 0.4921875
vt 0.375 0.4375
vt 0.328125 0.4375
vn -2.220446049250313e-16 0 -1
vn 4.930380657631324e-32 -1 -1.0947644252537633e-47
vn 2.220446049250313e-16 0 1
vn -4.930380657631324e-32 1 1.0947644252537633e-47
vn 1 0 -2.220446049250313e-16
usemtl m_386ca4f1-58b6-72ad-bfad-1068213d77f8
f 292/624/156 295/623/156 293/622/156 290/621/156
f 291/628/157 292/627/157 290/626/157 289/625/157
f 296/632/158 291/631/158 289/630/158 294/629/158
f 295/636/159 296/635/159 294/634/159 293/633/159
f 294/640/160 289/639/160 290/638/160 293/637/160
o generator_bracket5
v 0.05937499999999998 0.08722625000000006 0.28587499999999993
v 0.05937499999999998 0.08722625000000006 0.30006249999999995
v 0.05937499999999998 0.005976250000000044 0.28587499999999993
v 0.05937499999999998 0.005976250000000044 0.30006249999999995
v 0.06875 0.08722625000000006 0.30006249999999995
v 0.06874999999999999 0.08722625000000006 0.28587499999999993
v 0.06875 0.005976250000000044 0.30006249999999995
v 0.06874999999999999 0.005976250000000044 0.28587499999999993
vt 0.328125 0.5
vt 0.375 0.5
vt 0.375 0.25
vt 0.328125 0.25
vt 0.328125 0.5
vt 0.375 0.5
vt 0.375 0.25
vt 0.328125 0.25
vt 0.328125 0.5
vt 0.375 0.5
vt 0.375 0.25
vt 0.328125 0.25
vt 0.328125 0.5
vt 0.375 0.5
vt 0.375 0.25
vt 0.328125 0.25
vt 0.328125 0.4921875
vt 0.375 0.4921875
vt 0.375 0.4375
vt 0.328125 0.4375
vn 1.2246467991473532e-16 -4.440892098500626e-16 1
vn -1 -2.9733339649719023e-32 1.2246467991473532e-16
vn -1.2246467991473532e-16 4.440892098500626e-16 -1
vn 1 2.9733339649719023e-32 -1.2246467991473532e-16
vn 2.719262146893782e-32 1 4.440892098500626e-16
usemtl m_386ca4f1-58b6-72ad-bfad-1068213d77f8
f 300/644/161 303/643/161 301/642/161 298/641/161
f 299/648/162 300/647/162 298/646/162 297/645/162
f 304/652/163 299/651/163 297/650/163 302/649/163
f 303/656/164 304/655/164 302/654/164 301/653/164
f 302/660/165 297/659/165 298/658/165 301/657/165
o generator_bracket4
v 0.018405408492335587 0.12437947116087086 0.28593874999999996
v 0.018405408492335594 0.12437947116087086 0.30000125000000005
v 0.06215543086956202 0.08062944878364443 0.28593874999999996
v 0.06215543086956203 0.08062944878364443 0.30000125000000005
v 0.02503453456595947 0.13100859723449473 0.30000125000000005
v 0.025034534565959464 0.13100859723449476 0.28593874999999996
v 0.0687845569431859 0.0872585748572683 0.30000125000000005
v 0.0687845569431859 0.08725857485726832 0.28593874999999996
vt 0.328125 0.5
vt 0.375 0.5
vt 0.375 0.25
vt 0.328125 0.25
vt 0.328125 0.5
vt 0.375 0.5
vt 0.375 0.25
vt 0.328125 0.25
vt 0.328125 0.5
vt 0.375 0.5
vt 0.375 0.25
vt 0.328125 0.25
vt 0.328125 0.5
vt 0.375 0.5
vt 0.375 0.25
vt 0.328125 0.25
vt 0.328125 0.4921875
vt 0.375 0.4921875
vt 0.375 0.4375
vt 0.328125 0.4375
vn 2.355138688025663e-16 -3.005492278592201e-16 1
vn -0.7071067811865476 -0.7071067811865476 -1.1775693440128314e-16
vn -2.355138688025663e-16 3.005492278592201e-16 -1
vn 0.7071067811865476 0.7071067811865476 1.1775693440128314e-16
vn -0.7071067811865476 0.7071067811865476 5.10280049072227e-16
usemtl m_386ca4f1-58b6-72ad-bfad-1068213d77f8
f 308/664/166 311/663/166 309/662/166 306/661/166
f 307/668/167 308/667/167 306/666/167 305/665/167
f 312/672/168 307/671/168 305/670/168 310/669/168
f 311/676/169 312/675/169 310/674/169 309/673/169
f 310/680/170 305/679/170 306/678/170 309/677/170
o pcb
v 0.028125 0.023163750000000025 0.3515725
v 0.028125 0.021601250000000002 0.3515725
v 0.028125 0.02316375000000001 0.40157250000000005
v 0.028125 0.02160124999999999 0.40157250000000005
v -0.028125 0.021601250000000002 0.3515725
v -0.028125 0.023163750000000025 0.3515725
v -0.028125 0.02160124999999999 0.40157250000000005
v -0.028125 0.02316375000000001 0.40157250000000005
vt 0.25 1
vt 0.28125 1
vt 0.28125 0.9140625
vt 0.25 0.9140625
vt 0.25 1
vt 0.3515625 1
vt 0.3515625 0.9140625
vt 0.25 0.9140625
vt 0.25 1
vt 0.28125 1
vt 0.28125 0.9140625
vt 0.25 0.9140625
vt 0.25 1
vt 0.3515625 1
vt 0.3515625 0.9765625
vt 0.25 0.9765625
vt 0.25 1
vt 0.3515625 1
vt 0.3515625 0.9765625
vt 0.25 0.9765625
vn 1 0 0
vn 0 1 2.220446049250313e-16
vn -1 0 0
vn 0 2.220446049250313e-16 -1
vn 0 -2.220446049250313e-16 1
usemtl m_386ca4f1-58b6-72ad-bfad-1068213d77f8
f 315/684/171 316/683/171 314/682/171 313/681/171
f 320/688/172 315/687/172 313/686/172 318/685/172
f 319/692/173 320/691/173 318/690/173 317/689/173
f 318/696/174 313/695/174 314/694/174 317/693/174
f 319/700/175 316/699/175 315/698/175 320/697/175
o capacitor0
v 0.015625 0.03722625 0.35782250000000004
v 0.015625 0.023163750000000025 0.35782250000000004
v 0.015625 0.03722625 0.3640725
v 0.015625 0.023163750000000025 0.3640725
v 0.009375000000000001 0.023163750000000025 0.35782250000000004
v 0.009375000000000001 0.03722625 0.35782250000000004
v 0.009375000000000001 0.023163750000000025 0.3640725
v 0.009375000000000001 0.03722625 0.3640725
vt 0.0078125 0.4453125
vt 0.0078125 0.4375
vt 0 0.4375
vt 0 0.4453125
vt 0 0.6484375
vt 0.0703125 0.6484375
vt 0.0703125 0.578125
vt 0 0.578125
vt 0.0078125 0.4453125
vt 0.0078125 0.4375
vt 0 0.4375
vt 0 0.4453125
vt 0.0078125 0.4453125
vt 0.0078125 0.4375
vt 0 0.4375
vt 0 0.4453125
vt 0.0078125 0.4453125
vt 0.0078125 0.4375
vt 0 0.4375
vt 0 0.4453125
vn 1 0 0
vn 0 1 2.220446049250313e-16
vn -1 0 0
vn 0 2.220446049250313e-16 -1
vn 0 -2.220446049250313e-16 1
usemtl m_386ca4f1-58b6-72ad-bfad-1068213d77f8
f 323/704/176 324/703/176 322/702/176 321/701/176
f 328/708/177 323/707/177 321/706/177 326/705/177
f 327/712/178 328/711/178 326/710/178 325/709/178
f 326/716/179 321/715/179 322/714/179 325/713/179
f 327/720/180 324/719/180 323/718/180 328/717/180
o capacitor1
v -0.009375000000000001 0.03722625 0.35782250000000004
v -0.009375000000000001 0.023163750000000025 0.35782250000000004
v -0.009375000000000001 0.03722625 0.3640725
v -0.009375000000000001 0.023163750000000025 0.3640725
v -0.015625 0.023163750000000025 0.35782250000000004
v -0.015625 0.03722625 0.35782250000000004
v -0.015625 0.023163750000000025 0.3640725
v -0.015625 0.03722625 0.3640725
vt 0.0078125 0.4453125
vt 0.0078125 0.4375
vt 0 0.4375
vt 0 0.4453125
vt 0 0.6484375
vt 0.0703125 0.6484375
vt 0.0703125 0.578125
vt 0 0.578125
vt 0.0078125 0.4453125
vt 0.0078125 0.4375
vt 0 0.4375
vt 0 0.4453125
vt 0.0078125 0.4453125
vt 0.0078125 0.4375
vt 0 0.4375
vt 0 0.4453125
vt 0.0078125 0.4453125
vt 0.0078125 0.4375
vt 0 0.4375
vt 0 0.4453125
vn 1 0 0
vn 0 1 2.220446049250313e-16
vn -1 0 0
vn 0 2.220446049250313e-16 -1
vn 0 -2.220446049250313e-16 1
usemtl m_386ca4f1-58b6-72ad-bfad-1068213d77f8
f 331/724/181 332/723/181 330/722/181 329/721/181
f 336/728/182 331/727/182 329/726/182 334/725/182
f 335/732/183 336/731/183 334/730/183 333/729/183
f 334/736/184 329/735/184 330/734/184 333/733/184
f 335/740/185 332/739/185 331/738/185 336/737/185
o capacitor2
v -0.0125 0.037226249999999995 0.38751
v -0.0125 0.023163750000000018 0.38751
v -0.0125 0.037226249999999995 0.39376
v -0.0125 0.023163750000000018 0.39376
v -0.01875 0.023163750000000018 0.38751
v -0.01875 0.037226249999999995 0.38751
v -0.01875 0.023163750000000018 0.39376
v -0.01875 0.037226249999999995 0.39376
vt 0.0078125 0.4453125
vt 0.0078125 0.4375
vt 0 0.4375
vt 0 0.4453125
vt 0 0.6484375
vt 0.0703125 0.6484375
vt 0.0703125 0.578125
vt 0 0.578125
vt 0.0078125 0.4453125
vt 0.0078125 0.4375
vt 0 0.4375
vt 0 0.4453125
vt 0.0078125 0.4453125
vt 0.0078125 0.4375
vt 0 0.4375
vt 0 0.4453125
vt 0.0078125 0.4453125
vt 0.0078125 0.4375
vt 0 0.4375
vt 0 0.4453125
vn 1 0 0
vn 0 1 2.220446049250313e-16
vn -1 0 0
vn 0 2.220446049250313e-16 -1
vn 0 -2.220446049250313e-16 1
usemtl m_386ca4f1-58b6-72ad-bfad-1068213d77f8
f 339/744/186 340/743/186 338/742/186 337/741/186
f 344/748/187 339/747/187 337/746/187 342/745/187
f 343/752/188 344/751/188 342/750/188 341/749/188
f 342/756/189 337/755/189 338/754/189 341/753/189
f 343/760/190 340/759/190 339/758/190 344/757/190
o capacitor4
v 0.01875 0.037226249999999995 0.38751
v 0.01875 0.023163750000000018 0.38751
v 0.01875 0.037226249999999995 0.39376
v 0.01875 0.023163750000000018 0.39376
v 0.0125 0.023163750000000018 0.38751
v 0.0125 0.037226249999999995 0.38751
v 0.0125 0.023163750000000018 0.39376
v 0.0125 0.037226249999999995 0.39376
vt 0.0078125 0.4453125
vt 0.0078125 0.4375
vt 0 0.4375
vt 0 0.4453125
vt 0 0.6484375
vt 0.0703125 0.6484375
vt 0.0703125 0.578125
vt 0 0.578125
vt 0.0078125 0.4453125
vt 0.0078125 0.4375
vt 0 0.4375
vt 0 0.4453125
vt 0.0078125 0.4453125
vt 0.0078125 0.4375
vt 0 0.4375
vt 0 0.4453125
vt 0.0078125 0.4453125
vt 0.0078125 0.4375
vt 0 0.4375
vt 0 0.4453125
vn 1 0 0
vn 0 1 2.220446049250313e-16
vn -1 0 0
vn 0 2.220446049250313e-16 -1
vn 0 -2.220446049250313e-16 1
usemtl m_386ca4f1-58b6-72ad-bfad-1068213d77f8
f 347/764/191 348/763/191 346/762/191 345/761/191
f 352/768/192 347/767/192 345/766/192 350/765/192
f 351/772/193 352/771/193 350/770/193 349/769/193
f 350/776/194 345/775/194 346/774/194 349/773/194
f 351/780/195 348/779/195 347/778/195 352/777/195
o capacitor3
v 0.003125 0.037226249999999995 0.38751
v 0.003125 0.023163750000000018 0.38751
v 0.003125 0.037226249999999995 0.39376
v 0.003125 0.023163750000000018 0.39376
v -0.003125 0.023163750000000018 0.38751
v -0.003125 0.037226249999999995 0.38751
v -0.003125 0.023163750000000018 0.39376
v -0.003125 0.037226249999999995 0.39376
vt 0.0078125 0.4453125
vt 0.0078125 0.4375
vt 0 0.4375
vt 0 0.4453125
vt 0 0.6484375
vt 0.0703125 0.6484375
vt 0.0703125 0.578125
vt 0 0.578125
vt 0.0078125 0.4453125
vt 0.0078125 0.4375
vt 0 0.4375
vt 0 0.4453125
vt 0.0078125 0.4453125
vt 0.0078125 0.4375
vt 0 0.4375
vt 0 0.4453125
vt 0.0078125 0.4453125
vt 0.0078125 0.4375
vt 0 0.4375
vt 0 0.4453125
vn 1 0 0
vn 0 1 2.220446049250313e-16
vn -1 0 0
vn 0 2.220446049250313e-16 -1
vn 0 -2.220446049250313e-16 1
usemtl m_386ca4f1-58b6-72ad-bfad-1068213d77f8
f 355/784/196 356/783/196 354/782/196 353/781/196
f 360/788/197 355/787/197 353/786/197 358/785/197
f 359/792/198 360/791/198 358/790/198 357/789/198
f 358/796/199 353/795/199 354/794/199 357/793/199
f 359/800/200 356/799/200 355/798/200 360/797/200
o inductor_base
v 0.009375 0.02472624999999993 0.365635
v 0.009375 0.023163750000000018 0.365635
v 0.009375 0.02472624999999993 0.384385
v 0.009375 0.023163750000000018 0.384385
v -0.009375 0.023163750000000018 0.365635
v -0.009375 0.02472624999999993 0.365635
v -0.009375 0.023163750000000018 0.384385
v -0.009375 0.02472624999999993 0.384385
vt 0 0.4453125
vt 0.0078125 0.4453125
vt 0.0078125 0.4375
vt 0 0.4375
vt 0 0.4453125
vt 0.0078125 0.4453125
vt 0.0078125 0.4375
vt 0 0.4375
vt 0 0.4453125
vt 0.0078125 0.4453125
vt 0.0078125 0.4375
vt 0 0.4375
vt 0 0.4453125
vt 0.0078125 0.4453125
vt 0.0078125 0.4375
vt 0 0.4375
vt 0 0.4453125
vt 0.0078125 0.4453125
vt 0.0078125 0.4375
vt 0 0.4375
vn 1 0 0
vn 0 1 2.220446049250313e-16
vn -1 0 0
vn 0 2.220446049250313e-16 -1
vn 0 -2.220446049250313e-16 1
usemtl m_386ca4f1-58b6-72ad-bfad-1068213d77f8
f 363/804/201 364/803/201 362/802/201 361/801/201
f 368/808/202 363/807/202 361/806/202 366/805/202
f 367/812/203 368/811/203 366/810/203 365/809/203
f 366/816/204 361/815/204 362/814/204 365/813/204
f 367/820/205 364/819/205 363/818/205 368/817/205
o inductor_coil_core
v 0.00625 0.045038749999999995 0.36876
v 0.00625 0.02472625000000004 0.36876
v 0.00625 0.045038749999999995 0.38126
v 0.00625 0.02472625000000004 0.38126
v -0.00625 0.02472625000000004 0.36876
v -0.00625 0.045038749999999995 0.36876
v -0.00625 0.02472625000000004 0.38126
v -0.00625 0.045038749999999995 0.38126
vt 0 0.6484375
vt 0 0.9375
vt 0.0703125 0.9375
vt 0.0703125 0.6484375
vt 0.0703125 0.6484375
vt 0.140625 0.6484375
vt 0.140625 0.578125
vt 0.0703125 0.578125
vt 0.0703125 0.9375
vt 0.0703125 0.6484375
vt 0 0.6484375
vt 0 0.9375
vt 0 0.9375
vt 0.0703125 0.9375
vt 0.0703125 0.6484375
vt 0 0.6484375
vt 0.0703125 0.6484375
vt 0 0.6484375
vt 0 0.9375
vt 0.0703125 0.9375
vn 1 0 0
vn 0 1 2.220446049250313e-16
vn -1 0 0
vn 0 2.220446049250313e-16 -1
vn 0 -2.220446049250313e-16 1
usemtl m_386ca4f1-58b6-72ad-bfad-1068213d77f8
f 371/824/206 372/823/206 370/822/206 369/821/206
f 376/828/207 371/827/207 369/826/207 374/825/207
f 375/832/208 376/831/208 374/830/208 373/829/208
f 374/836/209 369/835/209 370/834/209 373/833/209
f 375/840/210 372/839/210 371/838/210 376/837/210
o inductor_top
v 0.0078125 0.04347624999999997 0.36719749999999995
v 0.0078125 0.04191375000000006 0.36719749999999995
v 0.0078125 0.04347624999999997 0.38282249999999995
v 0.0078125 0.04191375000000006 0.38282249999999995
v -0.0078125 0.04191375000000006 0.36719749999999995
v -0.0078125 0.04347624999999997 0.36719749999999995
v -0.0078125 0.04191375000000006 0.38282249999999995
v -0.0078125 0.04347624999999997 0.38282249999999995
vt 0 0.4453125
vt 0.0078125 0.4453125
vt 0.0078125 0.4375
vt 0 0.4375
vt 0 0.4453125
vt 0.0078125 0.4453125
vt 0.0078125 0.4375
vt 0 0.4375
vt 0 0.4453125
vt 0.0078125 0.4453125
vt 0.0078125 0.4375
vt 0 0.4375
vt 0 0.4453125
vt 0.0078125 0.4453125
vt 0.0078125 0.4375
vt 0 0.4375
vt 0 0.4453125
vt 0.0078125 0.4453125
vt 0.0078125 0.4375
vt 0 0.4375
vn 1 0 0
vn 0 1 2.220446049250313e-16
vn -1 0 0
vn 0 2.220446049250313e-16 -1
vn 0 -2.220446049250313e-16 1
usemtl m_386ca4f1-58b6-72ad-bfad-1068213d77f8
f 379/844/211 380/843/211 378/842/211 377/841/211
f 384/848/212 379/847/212 377/846/212 382/845/212
f 383/852/213 384/851/213 382/850/213 381/849/213
f 382/856/214 377/855/214 378/854/214 381/853/214
f 383/860/215 380/859/215 379/858/215 384/857/215
o heatsink0
v -0.021875 0.038788750000000025 0.3609475
v -0.021875 0.023163750000000025 0.3609475
v -0.021875 0.03878875000000001 0.3953225
v -0.021875 0.02316375000000001 0.3953225
v -0.028125000000000004 0.023163750000000025 0.3609475
v -0.028125000000000004 0.038788750000000025 0.3609475
v -0.028125000000000004 0.02316375000000001 0.3953225
v -0.028125000000000004 0.03878875000000001 0.3953225
vt 0.3828125 0.6640625
vt 0.5625 0.6640625
vt 0.5625 0.515625
vt 0.3828125 0.515625
vt 0.3984375 0.640625
vt 0.4609375 0.640625
vt 0.4609375 0.578125
vt 0.3984375 0.578125
vt 0.0703125 0.9375
vt 0.125 0.9375
vt 0.125 0.6484375
vt 0.0703125 0.6484375
vt 0.265625 0.828125
vt 0.328125 0.828125
vt 0.328125 0.765625
vt 0.265625 0.765625
vt 0.265625 0.828125
vt 0.328125 0.828125
vt 0.328125 0.765625
vt 0.265625 0.765625
vn 1 0 0
vn 0 1 2.220446049250313e-16
vn -1 0 0
vn 0 2.220446049250313e-16 -1
vn 0 -2.220446049250313e-16 1
usemtl m_386ca4f1-58b6-72ad-bfad-1068213d77f8
f 387/864/216 388/863/216 386/862/216 385/861/216
f 392/868/217 387/867/217 385/866/217 390/865/217
f 391/872/218 392/871/218 390/870/218 389/869/218
f 390/876/219 385/875/219 386/874/219 389/873/219
f 391/880/220 388/879/220 387/878/220 392/877/220
o silicon0
v -0.020312500000000004 0.030976250000000018 0.371885
v -0.020312500000000004 0.023163750000000018 0.371885
v -0.020312500000000004 0.030976250000000018 0.378135
v -0.020312500000000004 0.023163750000000018 0.378135
v -0.021875 0.023163750000000018 0.371885
v -0.021875 0.030976250000000018 0.371885
v -0.021875 0.023163750000000018 0.378135
v -0.021875 0.030976250000000018 0.378135
vt 0.0078125 0.4453125
vt 0.0078125 0.4375
vt 0 0.4375
vt 0 0.4453125
vt 0 0.6484375
vt 0.0703125 0.6484375
vt 0.0703125 0.578125
vt 0 0.578125
vt 0.0078125 0.4453125
vt 0.0078125 0.4375
vt 0 0.4375
vt 0 0.4453125
vt 0.0078125 0.4453125
vt 0.0078125 0.4375
vt 0 0.4375
vt 0 0.4453125
vt 0.0078125 0.4453125
vt 0.0078125 0.4375
vt 0 0.4375
vt 0 0.4453125
vn 1 0 0
vn 0 1 2.220446049250313e-16
vn -1 0 0
vn 0 2.220446049250313e-16 -1
vn 0 -2.220446049250313e-16 1
usemtl m_386ca4f1-58b6-72ad-bfad-1068213d77f8
f 395/884/221 396/883/221 394/882/221 393/881/221
f 400/888/222 395/887/222 393/886/222 398/885/222
f 399/892/223 400/891/223 398/890/223 397/889/223
f 398/896/224 393/895/224 394/894/224 397/893/224
f 399/900/225 396/899/225 395/898/225 400/897/225
o heatsink1
v 0.021093750000000022 0.03878875000000001 0.3953224999999999
v 0.021093750000000022 0.023163750000000014 0.3953224999999999
v 0.021093750000000026 0.038788750000000025 0.3609475
v 0.021093750000000026 0.02316375000000002 0.3609475
v 0.02734375000000002 0.023163750000000014 0.3953224999999999
v 0.02734375000000002 0.03878875000000001 0.3953224999999999
v 0.027343750000000024 0.02316375000000002 0.3609475
v 0.027343750000000024 0.038788750000000025 0.3609475
vt 0.3828125 0.6640625
vt 0.5625 0.6640625
vt 0.5625 0.515625
vt 0.3828125 0.515625
vt 0.3984375 0.640625
vt 0.4609375 0.640625
vt 0.4609375 0.578125
vt 0.3984375 0.578125
vt 0.0703125 0.9375
vt 0.125 0.9375
vt 0.125 0.6484375
vt 0.0703125 0.6484375
vt 0.265625 0.828125
vt 0.328125 0.828125
vt 0.328125 0.765625
vt 0.265625 0.765625
vt 0.265625 0.828125
vt 0.328125 0.828125
vt 0.328125 0.765625
vt 0.265625 0.765625
vn -1 2.719262146893782e-32 -1.2246467991473532e-16
vn 0 1 2.220446049250313e-16
vn 1 -2.719262146893782e-32 1.2246467991473532e-16
vn -1.2246467991473532e-16 -2.220446049250313e-16 1
vn 1.2246467991473532e-16 2.220446049250313e-16 -1
usemtl m_386ca4f1-58b6-72ad-bfad-1068213d77f8
f 403/904/226 404/903/226 402/902/226 401/901/226
f 408/908/227 403/907/227 401/906/227 406/905/227
f 407/912/228 408/911/228 406/910/228 405/909/228
f 406/916/229 401/915/229 402/914/229 405/913/229
f 407/920/230 404/919/230 403/918/230 408/917/230
o silicon1
v 0.01953125000000002 0.030976250000000014 0.3843849999999999
v 0.01953125000000002 0.023163750000000018 0.3843849999999999
v 0.01953125000000002 0.030976250000000018 0.37813499999999994
v 0.01953125000000002 0.023163750000000018 0.37813499999999994
v 0.021093750000000022 0.023163750000000018 0.3843849999999999
v 0.021093750000000022 0.030976250000000014 0.3843849999999999
v 0.021093750000000022 0.023163750000000018 0.37813499999999994
v 0.021093750000000022 0.030976250000000018 0.37813499999999994
vt 0.0078125 0.4453125
vt 0.0078125 0.4375
vt 0 0.4375
vt 0 0.4453125
vt 0 0.6484375
vt 0.0703125 0.6484375
vt 0.0703125 0.578125
vt 0 0.578125
vt 0.0078125 0.4453125
vt 0.0078125 0.4375
vt 0 0.4375
vt 0 0.4453125
vt 0.0078125 0.4453125
vt 0.0078125 0.4375
vt 0 0.4375
vt 0 0.4453125
vt 0.0078125 0.4453125
vt 0.0078125 0.4375
vt 0 0.4375
vt 0 0.4453125
vn -1 2.719262146893782e-32 -1.2246467991473532e-16
vn 0 1 2.220446049250313e-16
vn 1 -2.719262146893782e-32 1.2246467991473532e-16
vn -1.2246467991473532e-16 -2.220446049250313e-16 1
vn 1.2246467991473532e-16 2.220446049250313e-16 -1
usemtl m_386ca4f1-58b6-72ad-bfad-1068213d77f8
f 411/924/231 412/923/231 410/922/231 409/921/231
f 416/928/232 411/927/232 409/926/232 414/925/232
f 415/932/233 416/931/233 414/930/233 413/929/233
f 414/936/234 409/935/234 410/934/234 413/933/234
f 415/940/235 412/939/235 411/938/235 416/937/235
o casing
v 0.0296875 0.05128874999999998 0.35001000000000004
v 0.0296875 0.021601250000000002 0.35001000000000004
v 0.0296875 0.051288749999999966 0.403135
v 0.0296875 0.02160124999999999 0.403135
v -0.0296875 0.021601250000000002 0.35001000000000004
v -0.0296875 0.05128874999999998 0.35001000000000004
v -0.0296875 0.02160124999999999 0.403135
v -0.0296875 0.051288749999999966 0.403135
vt 0.125 0.796875
vt 0.25 0.796875
vt 0.25 0.6484375
vt 0.125 0.6484375
vt 0.140625 0.6484375
vt 0.25 0.6484375
vt 0.25 0.578125
vt 0.140625 0.578125
vt 0.25 0.6484375
vt 0.125 0.6484375
vt 0.125 0.796875
vt 0.25 0.796875
vt 0.1953125 0.796875
vt 0.25 0.796875
vt 0.25 0.6484375
vt 0.1953125 0.6484375
vt 0.125 0.796875
vt 0.25 0.796875
vt 0.25 0.6484375
vt 0.125 0.6484375
vn 1 0 0
vn 0 1 2.220446049250313e-16
vn -1 0 0
vn 0 2.220446049250313e-16 -1
vn 0 -2.220446049250313e-16 1
usemtl m_386ca4f1-58b6-72ad-bfad-1068213d77f8
f 419/944/236 420/943/236 418/942/236 417/941/236
f 424/948/237 419/947/237 417/946/237 422/945/237
f 423/952/238 424/951/238 422/950/238 421/949/238
f 422/956/239 417/955/239 418/954/239 421/953/239
f 423/960/240 420/959/240 419/958/240 424/957/240
o shroud_cover_top_2_2
v -0.06538011880617894 0.13936914072625153 0.18562499999999998
v -0.06538011880617894 0.13936914072625153 0.184375
v -0.08048053343458773 0.10698619705306511 0.18562499999999998
v -0.08048053343458773 0.10698619705306511 0.184375
v -0.07812507206138182 0.1453122100319801 0.184375
v -0.07812507206138182 0.1453122100319801 0.18562499999999998
v -0.09322548668979061 0.11292926635879369 0.184375
v -0.09322548668979061 0.11292926635879369 0.18562499999999998
vt 0.0017578125 1
vt 0 1
vt 0 0.995533671875
vt 0.0017578125 0.995533671875
vt 0.00015625 1
vt 0 1
vt 0 0.995533671875
vt 0.00015625 0.995533671875
vt 0.5703125 0.0859375
vt 0.5234375 0.0859375
vt 0.5234375 0.0234375
vt 0.5703125 0.0234375
vt 0.90625 0.0234375
vt 0.90625 0.0703125
vt 0.5859375 0.0703125
vt 0.5859375 0.0234375
vt 0.96875 0.078125
vt 0.6015625 0.078125
vt 0.6015625 0.03125
vt 0.96875 0.03125
vt 0.0017578125 1
vt 0 1
vt 0 0.99984375
vt 0.0017578125 0.99984375
vn 0 0 -1
vn 0.9063077870366499 -0.42261826174069944 0
vn 0 0 1
vn -0.9063077870366499 0.42261826174069944 0
vn 0.42261826174069944 0.9063077870366499 0
vn -0.42261826174069944 -0.9063077870366499 0
usemtl none
f 428/964/241 431/963/241 429/962/241 426/961/241
f 427/968/242 428/967/242 426/966/242 425/965/242
usemtl m_386ca4f1-58b6-72ad-bfad-1068213d77f8
f 432/972/243 427/971/243 425/970/243 430/969/243
f 431/976/244 432/975/244 430/974/244 429/973/244
f 430/980/245 425/979/245 426/978/245 429/977/245
usemtl none
f 431/984/246 428/983/246 427/982/246 432/981/246
o shroud_slant_2
v -0.07812435318993806 0.14531265475518113 0.18437499999999998
v -0.07812435318993806 0.14531265475518113 -0.46875
v -0.09322476781834685 0.1129297110819947 0.18437499999999998
v -0.09322476781834685 0.1129297110819947 -0.46875
v -0.07673996804523955 0.1446671053603722 -0.46875
v -0.07673996804523955 0.1446671053603722 0.18437499999999998
v -0.09184038267364834 0.11228416168718577 -0.46875
v -0.09184038267364834 0.11228416168718577 0.18437499999999998
vt 0.9140625 0.03125
vt 0.9140625 0.078125
vt 0.5859375 0.078125
vt 0.5859375 0.03125
vt 0.875 0.0859375
vt 0.625 0.0859375
vt 0.625 0.015625
vt 0.875 0.015625
vt 0.9140625 0.03125
vt 0.9140625 0.078125
vt 0.5859375 0.078125
vt 0.5859375 0.03125
vt 0.000191015625 1
vt 0 1
vt 0 0.918359375
vt 0.000191015625 0.918359375
vn 0 0 -1
vn 0.9063077870366499 -0.42261826174069944 0
vn 0 0 1
vn -0.42261826174069944 -0.9063077870366499 0
usemtl m_386ca4f1-58b6-72ad-bfad-1068213d77f8
f 436/988/247 439/987/247 437/986/247 434/985/247
f 435/992/248 436/991/248 434/990/248 433/989/248
f 440/996/249 435/995/249 433/994/249 438/993/249
usemtl none
f 439/1000/250 436/999/250 435/998/250 440/997/250
o shroud_side_2
v -0.09184062499999998 0.112929375 0.18437499999999996
v -0.09184062499999998 0.112929375 -0.46875
v -0.09184062499999998 0.006249999999999999 0.18437499999999996
v -0.09184062499999998 0.006249999999999999 -0.46875
v -0.093225625 0.112929375 -0.46875
v -0.093225625 0.112929375 0.18437499999999996
v -0.093225625 0.006249999999999999 -0.46875
v -0.093225625 0.006249999999999999 0.18437499999999996
vt 0.9921875 0.078125
vt 0.5234375 0.078125
vt 0.5234375 0.03125
vt 0.9921875 0.03125
vn -1 0 0
usemtl m_386ca4f1-58b6-72ad-bfad-1068213d77f8
f 447/1004/251 448/1003/251 446/1002/251 445/1001/251
o shroud_cover_bottom_1_2
v -0.078125 0.112929375 -0.46875
v -0.078125 0.112929375 -0.4703125
v -0.078125 0 -0.46875
v -0.078125 0 -0.4703125
v -0.093225625 0.112929375 -0.4703125
v -0.093225625 0.112929375 -0.46875
v -0.093225625 0 -0.4703125
v -0.093225625 0 -0.46875
vt 1 0.03125
vt 1 0.0625
vt 0.78125 0.0625
vt 0.78125 0.03125
vt 0.0001953125 1
vt 0 1
vt 0 0.985883828125
vt 0.0001953125 0.985883828125
vt 0.001887578125 1
vt 0 1
vt 0 0.985883828125
vt 0.001887578125 0.985883828125
vt 0.6484375 0.0546875
vt 0.6484375 0
vt 0.7734375 0
vt 0.7734375 0.0546875
vt 0.8515625 0.08613281250000004
vt 0.5625 0.08613281250000004
vt 0.5625 0.023632812500000044
vt 0.8515625 0.023632812500000044
vt 0.001887578125 1
vt 0 1
vt 0 0.9998046875
vt 0.001887578125 0.9998046875
vn 0 0 -1
vn 1 0 0
vn 0 0 1
vn -1 0 0
vn 0 1 0
vn 0 -1 0
usemtl m_386ca4f1-58b6-72ad-bfad-1068213d77f8
f 452/1008/252 455/1007/252 453/1006/252 450/1005/252
usemtl none
f 451/1012/253 452/1011/253 450/1010/253 449/1009/253
f 456/1016/254 451/1015/254 449/1014/254 454/1013/254
usemtl m_386ca4f1-58b6-72ad-bfad-1068213d77f8
f 455/1020/255 456/1019/255 454/1018/255 453/1017/255
f 454/1024/256 449/1023/256 450/1022/256 453/1021/256
usemtl none
f 455/1028/257 452/1027/257 451/1026/257 456/1025/257
o shroud_cover_bottom_2_2
v -0.093225 0.112929375 0.18437499999999998
v -0.093225 0.112929375 0.1859375
v -0.093225 0 0.18437499999999998
v -0.093225 0 0.1859375
v -0.078124375 0.112929375 0.1859375
v -0.078124375 0.112929375 0.18437499999999998
v -0.078124375 0 0.1859375
v -0.078124375 0 0.18437499999999998
vt 1 0.03125
vt 1 0.0625
vt 0.78125 0.0625
vt 0.78125 0.03125
vt 0.6484375 0.0546875
vt 0.6484375 0
vt 0.7734375 0
vt 0.7734375 0.0546875
vt 0.001887578125 1
vt 0 1
vt 0 0.985883828125
vt 0.001887578125 0.985883828125
vt 0.0001953125 1
vt 0 1
vt 0 0.985883828125
vt 0.0001953125 0.985883828125
vt 0.8515625 0.08613281250000004
vt 0.5625 0.08613281250000004
vt 0.5625 0.023632812500000044
vt 0.8515625 0.023632812500000044
vt 0.001887578125 1
vt 0 1
vt 0 0.9998046875
vt 0.001887578125 0.9998046875
vn 1.4997597826618576e-32 -1.2246467991473532e-16 1
vn -1 -1.2246467991473532e-16 0
vn -1.4997597826618576e-32 1.2246467991473532e-16 -1
vn 1 1.2246467991473532e-16 0
vn -1.2246467991473532e-16 1 1.2246467991473532e-16
vn 1.2246467991473532e-16 -1 -1.2246467991473532e-16
usemtl m_386ca4f1-58b6-72ad-bfad-1068213d77f8
f 460/1032/258 463/1031/258 461/1030/258 458/1029/258
f 459/1036/259 460/1035/259 458/1034/259 457/1033/259
usemtl none
f 464/1040/260 459/1039/260 457/1038/260 462/1037/260
f 463/1044/261 464/1043/261 462/1042/261 461/1041/261
usemtl m_386ca4f1-58b6-72ad-bfad-1068213d77f8
f 462/1048/262 457/1047/262 458/1046/262 461/1045/262
usemtl none
f 463/1052/263 460/1051/263 459/1050/263 464/1049/263
o shroud_cover_top_1_2
v -0.06538011880617894 0.13936914072625153 -0.46875
v -0.06538011880617894 0.13936914072625153 -0.47
v -0.08048053343458773 0.10698619705306511 -0.46875
v -0.08048053343458773 0.10698619705306511 -0.47
v -0.07812507206138182 0.1453122100319801 -0.47
v -0.07812507206138182 0.1453122100319801 -0.46875
v -0.09322548668979061 0.11292926635879369 -0.47
v -0.09322548668979061 0.11292926635879369 -0.46875
vt 0.5703125 0.0859375
vt 0.5234375 0.0859375
vt 0.5234375 0.0234375
vt 0.5703125 0.0234375
vt 0.00015625 1
vt 0 1
vt 0 0.995533671875
vt 0.00015625 0.995533671875
vt 0.0017578125 1
vt 0 1
vt 0 0.995533671875
vt 0.0017578125 0.995533671875
vt 0.90625 0.0234375
vt 0.90625 0.0703125
vt 0.5859375 0.0703125
vt 0.5859375 0.0234375
vt 0.96875 0.078125
vt 0.6015625 0.078125
vt 0.6015625 0.03125
vt 0.96875 0.03125
vt 0.0017578125 1
vt 0 1
vt 0 0.99984375
vt 0.0017578125 0.99984375
vn 0 0 -1
vn 0.9063077870366499 -0.42261826174069944 0
vn 0 0 1
vn -0.9063077870366499 0.42261826174069944 0
vn 0.42261826174069944 0.9063077870366499 0
vn -0.42261826174069944 -0.9063077870366499 0
usemtl m_386ca4f1-58b6-72ad-bfad-1068213d77f8
f 468/1056/264 471/1055/264 469/1054/264 466/1053/264
usemtl none
f 467/1060/265 468/1059/265 466/1058/265 465/1057/265
f 472/1064/266 467/1063/266 465/1062/266 470/1061/266
usemtl m_386ca4f1-58b6-72ad-bfad-1068213d77f8
f 471/1068/267 472/1067/267 470/1066/267 469/1065/267
f 470/1072/268 465/1071/268 466/1070/268 469/1069/268
usemtl none
f 471/1076/269 468/1075/269 467/1074/269 472/1073/269