# Made in Blockbench 4.12.6
mtllib cold_side.mtl

o piston_ring2_2
v 0.06035562500000001 0.394638125 -0.09999999999999998
v 0.060355625000000065 0.144638125 -0.10000000000000003
v 0.041605624999999966 0.394638125 -0.09999999999999998
v 0.04160562500000002 0.144638125 -0.10000000000000003
v 0.060355625000000065 0.14463812500000003 -0.15000000000000005
v 0.06035562500000001 0.394638125 -0.15
v 0.04160562500000002 0.14463812500000003 -0.15000000000000005
v 0.041605624999999966 0.394638125 -0.15
vt 0.8515625 1
vt 0.8515625 0.5
vt 0.7265625 0.5
vt 0.7265625 1
vt 0.8515625 1
vt 1 1
vt 1 0.296875
vt 0.8515625 0.296875
vn -2.220446049250313e-16 1 2.220446049250313e-16
vn 1 2.220446049250313e-16 4.930380657631324e-32
usemtl m_386ca4f1-58b6-72ad-bfad-1068213d77f8
f 8/4/1 3/3/1 1/2/1 6/1/1
f 6/8/2 1/7/2 2/6/2 5/5/2
o piston_ring1_2
v 0.06035554124991605 0.39440375 -0.15000020219058868
v 0.06035554124991608 0.14565375 -0.15000020219058874
v 0.047097289102668256 0.39440375 -0.13674195004334086
v 0.047097289102668284 0.14565374999999997 -0.13674195004334092
v 0.0250002021905887 0.14565375 -0.1853555412499161
v 0.025000202190588672 0.39440375 -0.18535554124991604
v 0.011741950043340901 0.14565374999999997 -0.1720972891026683
v 0.011741950043340874 0.39440375 -0.17209728910266825
vt 0.8515625 1
vt 0.8515625 0.5
vt 0.7265625 0.5
vt 0.7265625 1
vt 0.8515625 1
vt 1 1
vt 1 0.296875
vt 0.8515625 0.296875
vn -2.355138688025663e-16 1 2.3551386880256634e-16
vn 0.7071067811865475 2.355138688025663e-16 -0.7071067811865476
usemtl m_386ca4f1-58b6-72ad-bfad-1068213d77f8
f 16/12/3 11/11/3 9/10/3 14/9/3
f 14/16/4 9/15/4 10/14/4 13/13/4
o piston_ring0_2
v 0.025 0.394638125 -0.18535562500000002
v 0.025 0.144638125 -0.18535562500000008
v 0.025 0.394638125 -0.16660562499999998
v 0.025 0.144638125 -0.16660562500000003
v -0.025 0.144638125 -0.18535562500000008
v -0.025 0.394638125 -0.18535562500000002
v -0.025 0.144638125 -0.16660562500000003
v -0.025 0.394638125 -0.16660562499999998
vt 0.8515625 1
vt 0.8515625 0.5
vt 0.7265625 0.5
vt 0.7265625 1
vt 0.8515625 1
vt 1 1
vt 1 0.296875
vt 0.8515625 0.296875
vn 0 1 2.220446049250313e-16
vn 0 2.220446049250313e-16 -1
usemtl m_386ca4f1-58b6-72ad-bfad-1068213d77f8
f 24/20/5 19/19/5 17/18/5 22/17/5
f 22/24/6 17/23/6 18/22/6 21/21/6
o piston_ring7_2
v -0.025000202190588672 0.39440375 -0.18535554124991604
v -0.0250002021905887 0.14565375 -0.1853555412499161
v -0.011741950043340874 0.39440375 -0.17209728910266825
v -0.011741950043340901 0.14565374999999997 -0.1720972891026683
v -0.06035554124991608 0.14565375 -0.15000020219058874
v -0.06035554124991605 0.39440375 -0.15000020219058868
v -0.047097289102668284 0.14565374999999997 -0.13674195004334092
v -0.047097289102668256 0.39440375 -0.13674195004334086
vt 0.8515625 1
vt 0.8515625 0.5
vt 0.7265625 0.5
vt 0.7265625 1
vt 0.8515625 1
vt 1 1
vt 1 0.296875
vt 0.8515625 0.296875
vn 2.355138688025663e-16 1 2.3551386880256634e-16
vn -0.7071067811865475 2.355138688025663e-16 -0.7071067811865476
usemtl m_386ca4f1-58b6-72ad-bfad-1068213d77f8
f 32/28/7 27/27/7 25/26/7 30/25/7
f 30/32/8 25/31/8 26/30/8 29/29/8
o piston_ring6_2
v -0.06035562500000001 0.394638125 -0.15
v -0.060355625000000065 0.14463812500000003 -0.15000000000000005
v -0.041605624999999966 0.394638125 -0.15
v -0.04160562500000002 0.14463812500000003 -0.15000000000000005
v -0.060355625000000065 0.144638125 -0.10000000000000003
v -0.06035562500000001 0.394638125 -0.09999999999999998
v -0.04160562500000002 0.144638125 -0.10000000000000003
v -0.041605624999999966 0.394638125 -0.09999999999999998
vt 0.8515625 1
vt 0.8515625 0.5
vt 0.7265625 0.5
vt 0.7265625 1
vt 0.8515625 1
vt 1 1
vt 1 0.296875
vt 0.8515625 0.296875
vn 2.220446049250313e-16 1 2.220446049250313e-16
vn -1 2.220446049250313e-16 4.930380657631324e-32
usemtl m_386ca4f1-58b6-72ad-bfad-1068213d77f8
f 40/36/9 35/35/9 33/34/9 38/33/9
f 38/40/10 33/39/10 34/38/10 37/37/10
o piston_ring4_2
v -0.02500000000000001 0.394638125 -0.06464437499999996
v -0.024999999999999977 0.14463812499999998 -0.06464437500000002
v -0.02500000000000001 0.394638125 -0.083394375
v -0.024999999999999977 0.144638125 -0.08339437500000006
v 0.025000000000000026 0.144638125 -0.06464437500000002
v 0.024999999999999994 0.394638125 -0.06464437499999996
v 0.025000000000000026 0.144638125 -0.08339437500000006
v 0.024999999999999994 0.394638125 -0.083394375
vt 0.8515625 1
vt 0.8515625 0.5
vt 0.7265625 0.5
vt 0.7265625 1
vt 0.8515625 1
vt 1 1
vt 1 0.296875
vt 0.8515625 0.296875
vn -1.2246467991473532e-16 1 2.220446049250313e-16
vn 2.719262146893782e-32 -2.220446049250313e-16 1
usemtl m_386ca4f1-58b6-72ad-bfad-1068213d77f8
f 48/44/11 43/43/11 41/42/11 46/41/11
f 46/48/12 41/47/12 42/46/12 45/45/12
o piston_ring3_2
v 0.0250002021905887 0.39440375 -0.06464445875008393
v 0.02500020219058863 0.14565374999999997 -0.06464445875008398
v 0.011741950043340901 0.39440375 -0.07790271089733172
v 0.011741950043340832 0.14565374999999997 -0.07790271089733178
v 0.06035554124991601 0.14565374999999994 -0.09999979780941136
v 0.06035554124991607 0.39440375 -0.0999997978094113
v 0.047097289102668215 0.14565374999999997 -0.11325804995665915
v 0.04709728910266828 0.39440375 -0.1132580499566591
vt 0.8515625 1
vt 0.8515625 0.5
vt 0.7265625 0.5
vt 0.7265625 1
vt 0.8515625 1
vt 1 1
vt 1 0.296875
vt 0.8515625 0.296875
vn 2.355138688025663e-16 1 7.850462293418876e-17
vn 0.7071067811865476 -3.532708032038495e-16 0.7071067811865476
usemtl m_386ca4f1-58b6-72ad-bfad-1068213d77f8
f 56/52/13 51/51/13 49/50/13 54/49/13
f 54/56/14 49/55/14 50/54/14 53/53/14
o piston_ring5_2
v -0.06035554124991607 0.39440375 -0.0999997978094113
v -0.06035554124991601 0.14565374999999994 -0.09999979780941136
v -0.04709728910266828 0.39440375 -0.1132580499566591
v -0.047097289102668215 0.14565374999999997 -0.11325804995665915
v -0.02500020219058863 0.14565374999999997 -0.06464445875008398
v -0.0250002021905887 0.39440375 -0.06464445875008393
v -0.011741950043340832 0.14565374999999997 -0.07790271089733178
v -0.011741950043340901 0.39440375 -0.07790271089733172
vt 0.8515625 1
vt 0.8515625 0.5
vt 0.7265625 0.5
vt 0.7265625 1
vt 0.8515625 1
vt 1 1
vt 1 0.296875
vt 0.8515625 0.296875
vn -2.355138688025663e-16 1 7.850462293418876e-17
vn -0.7071067811865476 -3.532708032038495e-16 0.7071067811865476
usemtl m_386ca4f1-58b6-72ad-bfad-1068213d77f8
f 64/60/15 59/59/15 57/58/15 62/57/15
f 62/64/16 57/63/16 58/62/16 61/61/16
o piston_cover_2
v 0.0421875 0.3940625 -0.08281250000000001
v 0.0421875 0.3940625 -0.1671875
v 0.0421875 0.39250000000000007 -0.08281250000000001
v 0.0421875 0.39250000000000007 -0.1671875
v -0.0421875 0.3940625 -0.1671875
v -0.0421875 0.3940625 -0.08281250000000001
v -0.0421875 0.39250000000000007 -0.1671875
v -0.0421875 0.39250000000000007 -0.08281250000000001
vt 0.6015625 0.5
vt 0.8515625 0.5
vt 0.8515625 0.25
vt 0.6015625 0.25
vn 0 1 0
usemtl m_386ca4f1-58b6-72ad-bfad-1068213d77f8
f 70/68/17 65/67/17 66/66/17 69/65/17
o fin0
v 0.125 0.168075625 0
v 0.125 0.168075625 -0.25
v 0.125 0.160263125 0
v 0.125 0.160263125 -0.25
v -0.125 0.168075625 -0.25
v -0.125 0.168075625 0
v -0.125 0.160263125 -0.25
v -0.125 0.160263125 0
vt 0.3515625 0.5
vt 0.3515625 0.25
vt 0.25 0.25
vt 0.25 0.5
vt 0.3515625 0.5
vt 0.3515625 0.25
vt 0.25 0.25
vt 0.25 0.5
vt 0.3515625 0.5
vt 0.3515625 0.25
vt 0.25 0.25
vt 0.25 0.5
vt 0.3515625 0.5
vt 0.3515625 0.25
vt 0.25 0.25
vt 0.25 0.5
vt 0.3515625 0.5
vt 0.6015625 0.5
vt 0.6015625 0.25
vt 0.3515625 0.25
vt 0.3515625 0.5
vt 0.6015625 0.5
vt 0.6015625 0.25
vt 0.3515625 0.25
vn 0 0 -1
vn 1 0 0
vn 0 0 1
vn -1 0 0
vn 0 1 0
vn 0 -1 0
usemtl m_386ca4f1-58b6-72ad-bfad-1068213d77f8
f 76/72/18 79/71/18 77/70/18 74/69/18
f 75/76/19 76/75/19 74/74/19 73/73/19
f 80/80/20 75/79/20 73/78/20 78/77/20
f 79/84/21 80/83/21 78/82/21 77/81/21
f 78/88/22 73/87/22 74/86/22 77/85/22
f 79/92/23 76/91/23 75/90/23 80/89/23
o fin1
v 0.125 0.183700625 0
v 0.125 0.183700625 -0.25
v 0.125 0.175888125 0
v 0.125 0.175888125 -0.25
v -0.125 0.183700625 -0.25
v -0.125 0.183700625 0
v -0.125 0.175888125 -0.25
v -0.125 0.175888125 0
vt 0.3515625 0.5
vt 0.3515625 0.25
vt 0.25 0.25
vt 0.25 0.5
vt 0.3515625 0.5
vt 0.3515625 0.25
vt 0.25 0.25
vt 0.25 0.5
vt 0.3515625 0.5
vt 0.3515625 0.25
vt 0.25 0.25
vt 0.25 0.5
vt 0.3515625 0.5
vt 0.3515625 0.25
vt 0.25 0.25
vt 0.25 0.5
vt 0.3515625 0.5
vt 0.6015625 0.5
vt 0.6015625 0.25
vt 0.3515625 0.25
vt 0.3515625 0.5
vt 0.6015625 0.5
vt 0.6015625 0.25
vt 0.3515625 0.25
vn 0 0 -1
vn 1 0 0
vn 0 0 1
vn -1 0 0
vn 0 1 0
vn 0 -1 0
usemtl m_386ca4f1-58b6-72ad-bfad-1068213d77f8
f 84/96/24 87/95/24 85/94/24 82/93/24
f 83/100/25 84/99/25 82/98/25 81/97/25
f 88/104/26 83/103/26 81/102/26 86/101/26
f 87/108/27 88/107/27 86/106/27 85/105/27
f 86/112/28 81/111/28 82/110/28 85/109/28
f 87/116/29 84/115/29 83/114/29 88/113/29
o fin2
v 0.125 0.199325625 0
v 0.125 0.199325625 -0.25
v 0.125 0.191513125 0
v 0.125 0.191513125 -0.25
v -0.125 0.199325625 -0.25
v -0.125 0.199325625 0
v -0.125 0.191513125 -0.25
v -0.125 0.191513125 0
vt 0.3515625 0.5
vt 0.3515625 0.25
vt 0.25 0.25
vt 0.25 0.5
vt 0.3515625 0.5
vt 0.3515625 0.25
vt 0.25 0.25
vt 0.25 0.5
vt 0.3515625 0.5
vt 0.3515625 0.25
vt 0.25 0.25
vt 0.25 0.5
vt 0.3515625 0.5
vt 0.3515625 0.25
vt 0.25 0.25
vt 0.25 0.5
vt 0.3515625 0.5
vt 0.6015625 0.5
vt 0.6015625 0.25
vt 0.3515625 0.25
vt 0.3515625 0.5
vt 0.6015625 0.5
vt 0.6015625 0.25
vt 0.3515625 0.25
vn 0 0 -1
vn 1 0 0
vn 0 0 1
vn -1 0 0
vn 0 1 0
vn 0 -1 0
usemtl m_386ca4f1-58b6-72ad-bfad-1068213d77f8
f 92/120/30 95/119/30 93/118/30 90/117/30
f 91/124/31 92/123/31 90/122/31 89/121/31
f 96/128/32 91/127/32 89/126/32 94/125/32
f 95/132/33 96/131/33 94/130/33 93/129/33
f 94/136/34 89/135/34 90/134/34 93/133/34
f 95/140/35 92/139/35 91/138/35 96/137/35
o fin3
v 0.125 0.214950625 0
v 0.125 0.214950625 -0.25
v 0.125 0.207138125 0
v 0.125 0.207138125 -0.25
v -0.125 0.214950625 -0.25
v -0.125 0.214950625 0
v -0.125 0.207138125 -0.25
v -0.125 0.207138125 0
vt 0.3515625 0.5
vt 0.3515625 0.25
vt 0.25 0.25
vt 0.25 0.5
vt 0.3515625 0.5
vt 0.3515625 0.25
vt 0.25 0.25
vt 0.25 0.5
vt 0.3515625 0.5
vt 0.3515625 0.25
vt 0.25 0.25
vt 0.25 0.5
vt 0.3515625 0.5
vt 0.3515625 0.25
vt 0.25 0.25
vt 0.25 0.5
vt 0.3515625 0.5
vt 0.6015625 0.5
vt 0.6015625 0.25
vt 0.3515625 0.25
vt 0.3515625 0.5
vt 0.6015625 0.5
vt 0.6015625 0.25
vt 0.3515625 0.25
vn 0 0 -1
vn 1 0 0
vn 0 0 1
vn -1 0 0
vn 0 1 0
vn 0 -1 0
usemtl m_386ca4f1-58b6-72ad-bfad-1068213d77f8
f 100/144/36 103/143/36 101/142/36 98/141/36
f 99/148/37 100/147/37 98/146/37 97/145/37
f 104/152/38 99/151/38 97/150/38 102/149/38
f 103/156/39 104/155/39 102/154/39 101/153/39
f 102/160/40 97/159/40 98/158/40 101/157/40
f 103/164/41 100/163/41 99/162/41 104/161/41
o fin4
v 0.125 0.230575625 0
v 0.125 0.230575625 -0.25
v 0.125 0.222763125 0
v 0.125 0.222763125 -0.25
v -0.125 0.230575625 -0.25
v -0.125 0.230575625 0
v -0.125 0.222763125 -0.25
v -0.125 0.222763125 0
vt 0.3515625 0.5
vt 0.3515625 0.25
vt 0.25 0.25
vt 0.25 0.5
vt 0.3515625 0.5
vt 0.3515625 0.25
vt 0.25 0.25
vt 0.25 0.5
vt 0.3515625 0.5
vt 0.3515625 0.25
vt 0.25 0.25
vt 0.25 0.5
vt 0.3515625 0.5
vt 0.3515625 0.25
vt 0.25 0.25
vt 0.25 0.5
vt 0.3515625 0.5
vt 0.6015625 0.5
vt 0.6015625 0.25
vt 0.3515625 0.25
vt 0.3515625 0.5
vt 0.6015625 0.5
vt 0.6015625 0.25
vt 0.3515625 0.25
vn 0 0 -1
vn 1 0 0
vn 0 0 1
vn -1 0 0
vn 0 1 0
vn 0 -1 0
usemtl m_386ca4f1-58b6-72ad-bfad-1068213d77f8
f 108/168/42 111/167/42 109/166/42 106/165/42
f 107/172/43 108/171/43 106/170/43 105/169/43
f 112/176/44 107/175/44 105/174/44 110/173/44
f 111/180/45 112/179/45 110/178/45 109/177/45
f 110/184/46 105/183/46 106/182/46 109/181/46
f 111/188/47 108/187/47 107/186/47 112/185/47
o fin5
v 0.125 0.246200625 0
v 0.125 0.246200625 -0.25
v 0.125 0.238388125 0
v 0.125 0.238388125 -0.25
v -0.125 0.246200625 -0.25
v -0.125 0.246200625 0
v -0.125 0.238388125 -0.25
v -0.125 0.238388125 0
vt 0.3515625 0.5
vt 0.3515625 0.25
vt 0.25 0.25
vt 0.25 0.5
vt 0.3515625 0.5
vt 0.3515625 0.25
vt 0.25 0.25
vt 0.25 0.5
vt 0.3515625 0.5
vt 0.3515625 0.25
vt 0.25 0.25
vt 0.25 0.5
vt 0.3515625 0.5
vt 0.3515625 0.25
vt 0.25 0.25
vt 0.25 0.5
vt 0.3515625 0.5
vt 0.6015625 0.5
vt 0.6015625 0.25
vt 0.3515625 0.25
vt 0.3515625 0.5
vt 0.6015625 0.5
vt 0.6015625 0.25
vt 0.3515625 0.25
vn 0 0 -1
vn 1 0 0
vn 0 0 1
vn -1 0 0
vn 0 1 0
vn 0 -1 0
usemtl m_386ca4f1-58b6-72ad-bfad-1068213d77f8
f 116/192/48 119/191/48 117/190/48 114/189/48
f 115/196/49 116/195/49 114/194/49 113/193/49
f 120/200/50 115/199/50 113/198/50 118/197/50
f 119/204/51 120/203/51 118/202/51 117/201/51
f 118/208/52 113/207/52 114/206/52 117/205/52
f 119/212/53 116/211/53 115/210/53 120/209/53
o fin6
v 0.125 0.261825625 0
v 0.125 0.261825625 -0.25
v 0.125 0.254013125 0
v 0.125 0.254013125 -0.25
v -0.125 0.261825625 -0.25
v -0.125 0.261825625 0
v -0.125 0.254013125 -0.25
v -0.125 0.254013125 0
vt 0.3515625 0.5
vt 0.3515625 0.25
vt 0.25 0.25
vt 0.25 0.5
vt 0.3515625 0.5
vt 0.3515625 0.25
vt 0.25 0.25
vt 0.25 0.5
vt 0.3515625 0.5
vt 0.3515625 0.25
vt 0.25 0.25
vt 0.25 0.5
vt 0.3515625 0.5
vt 0.3515625 0.25
vt 0.25 0.25
vt 0.25 0.5
vt 0.3515625 0.5
vt 0.6015625 0.5
vt 0.6015625 0.25
vt 0.3515625 0.25
vt 0.3515625 0.5
vt 0.6015625 0.5
vt 0.6015625 0.25
vt 0.3515625 0.25
vn 0 0 -1
vn 1 0 0
vn 0 0 1
vn -1 0 0
vn 0 1 0
vn 0 -1 0
usemtl m_386ca4f1-58b6-72ad-bfad-1068213d77f8
f 124/216/54 127/215/54 125/214/54 122/213/54
f 123/220/55 124/219/55 122/218/55 121/217/55
f 128/224/56 123/223/56 121/222/56 126/221/56
f 127/228/57 128/227/57 126/226/57 125/225/57
f 126/232/58 121/231/58 122/230/58 125/229/58
f 127/236/59 124/235/59 123/234/59 128/233/59
o fin7
v 0.125 0.277450625 0
v 0.125 0.277450625 -0.25
v 0.125 0.269638125 0
v 0.125 0.269638125 -0.25
v -0.125 0.277450625 -0.25
v -0.125 0.277450625 0
v -0.125 0.269638125 -0.25
v -0.125 0.269638125 0
vt 0.3515625 0.5
vt 0.3515625 0.25
vt 0.25 0.25
vt 0.25 0.5
vt 0.3515625 0.5
vt 0.3515625 0.25
vt 0.25 0.25
vt 0.25 0.5
vt 0.3515625 0.5
vt 0.3515625 0.25
vt 0.25 0.25
vt 0.25 0.5
vt 0.3515625 0.5
vt 0.3515625 0.25
vt 0.25 0.25
vt 0.25 0.5
vt 0.3515625 0.5
vt 0.6015625 0.5
vt 0.6015625 0.25
vt 0.3515625 0.25
vt 0.3515625 0.5
vt 0.6015625 0.5
vt 0.6015625 0.25
vt 0.3515625 0.25
vn 0 0 -1
vn 1 0 0
vn 0 0 1
vn -1 0 0
vn 0 1 0
vn 0 -1 0
usemtl m_386ca4f1-58b6-72ad-bfad-1068213d77f8
f 132/240/60 135/239/60 133/238/60 130/237/60
f 131/244/61 132/243/61 130/242/61 129/241/61
f 136/248/62 131/247/62 129/246/62 134/245/62
f 135/252/63 136/251/63 134/250/63 133/249/63
f 134/256/64 129/255/64 130/254/64 133/253/64
f 135/260/65 132/259/65 131/258/65 136/257/65
o fin8
v 0.125 0.293075625 0
v 0.125 0.293075625 -0.25
v 0.125 0.285263125 0
v 0.125 0.285263125 -0.25
v -0.125 0.293075625 -0.25
v -0.125 0.293075625 0
v -0.125 0.285263125 -0.25
v -0.125 0.285263125 0
vt 0.3515625 0.5
vt 0.3515625 0.25
vt 0.25 0.25
vt 0.25 0.5
vt 0.3515625 0.5
vt 0.3515625 0.25
vt 0.25 0.25
vt 0.25 0.5
vt 0.3515625 0.5
vt 0.3515625 0.25
vt 0.25 0.25
vt 0.25 0.5
vt 0.3515625 0.5
vt 0.3515625 0.25
vt 0.25 0.25
vt 0.25 0.5
vt 0.3515625 0.5
vt 0.6015625 0.5
vt 0.6015625 0.25
vt 0.3515625 0.25
vt 0.3515625 0.5
vt 0.6015625 0.5
vt 0.6015625 0.25
vt 0.3515625 0.25
vn 0 0 -1
vn 1 0 0
vn 0 0 1
vn -1 0 0
vn 0 1 0
vn 0 -1 0
usemtl m_386ca4f1-58b6-72ad-bfad-1068213d77f8
f 140/264/66 143/263/66 141/262/66 138/261/66
f 139/268/67 140/267/67 138/266/67 137/265/67
f 144/272/68 139/271/68 137/270/68 142/269/68
f 143/276/69 144/275/69 142/274/69 141/273/69
f 142/280/70 137/279/70 138/278/70 141/277/70
f 143/284/71 140/283/71 139/282/71 144/281/71
o fin9
v 0.125 0.308700625 0
v 0.125 0.308700625 -0.25
v 0.125 0.300888125 0
v 0.125 0.300888125 -0.25
v -0.125 0.308700625 -0.25
v -0.125 0.308700625 0
v -0.125 0.300888125 -0.25
v -0.125 0.300888125 0
vt 0.3515625 0.5
vt 0.3515625 0.25
vt 0.25 0.25
vt 0.25 0.5
vt 0.3515625 0.5
vt 0.3515625 0.25
vt 0.25 0.25
vt 0.25 0.5
vt 0.3515625 0.5
vt 0.3515625 0.25
vt 0.25 0.25
vt 0.25 0.5
vt 0.3515625 0.5
vt 0.3515625 0.25
vt 0.25 0.25
vt 0.25 0.5
vt 0.3515625 0.5
vt 0.6015625 0.5
vt 0.6015625 0.25
vt 0.3515625 0.25
vt 0.3515625 0.5
vt 0.6015625 0.5
vt 0.6015625 0.25
vt 0.3515625 0.25
vn 0 0 -1
vn 1 0 0
vn 0 0 1
vn -1 0 0
vn 0 1 0
vn 0 -1 0
usemtl m_386ca4f1-58b6-72ad-bfad-1068213d77f8
f 148/288/72 151/287/72 149/286/72 146/285/72
f 147/292/73 148/291/73 146/290/73 145/289/73
f 152/296/74 147/295/74 145/294/74 150/293/74
f 151/300/75 152/299/75 150/298/75 149/297/75
f 150/304/76 145/303/76 146/302/76 149/301/76
f 151/308/77 148/307/77 147/306/77 152/305/77
o fin10
v 0.125 0.324325625 0
v 0.125 0.324325625 -0.25
v 0.125 0.316513125 0
v 0.125 0.316513125 -0.25
v -0.125 0.324325625 -0.25
v -0.125 0.324325625 0
v -0.125 0.316513125 -0.25
v -0.125 0.316513125 0
vt 0.3515625 0.5
vt 0.3515625 0.25
vt 0.25 0.25
vt 0.25 0.5
vt 0.3515625 0.5
vt 0.3515625 0.25
vt 0.25 0.25
vt 0.25 0.5
vt 0.3515625 0.5
vt 0.3515625 0.25
vt 0.25 0.25
vt 0.25 0.5
vt 0.3515625 0.5
vt 0.3515625 0.25
vt 0.25 0.25
vt 0.25 0.5
vt 0.3515625 0.5
vt 0.6015625 0.5
vt 0.6015625 0.25
vt 0.3515625 0.25
vt 0.3515625 0.5
vt 0.6015625 0.5
vt 0.6015625 0.25
vt 0.3515625 0.25
vn 0 0 -1
vn 1 0 0
vn 0 0 1
vn -1 0 0
vn 0 1 0
vn 0 -1 0
usemtl m_386ca4f1-58b6-72ad-bfad-1068213d77f8
f 156/312/78 159/311/78 157/310/78 154/309/78
f 155/316/79 156/315/79 154/314/79 153/313/79
f 160/320/80 155/319/80 153/318/80 158/317/80
f 159/324/81 160/323/81 158/322/81 157/321/81
f 158/328/82 153/327/82 154/326/82 157/325/82
f 159/332/83 156/331/83 155/330/83 160/329/83
o fin11
v 0.125 0.339950625 0
v 0.125 0.339950625 -0.25
v 0.125 0.332138125 0
v 0.125 0.332138125 -0.25
v -0.125 0.339950625 -0.25
v -0.125 0.339950625 0
v -0.125 0.332138125 -0.25
v -0.125 0.332138125 0
vt 0.3515625 0.5
vt 0.3515625 0.25
vt 0.25 0.25
vt 0.25 0.5
vt 0.3515625 0.5
vt 0.3515625 0.25
vt 0.25 0.25
vt 0.25 0.5
vt 0.3515625 0.5
vt 0.3515625 0.25
vt 0.25 0.25
vt 0.25 0.5
vt 0.3515625 0.5
vt 0.3515625 0.25
vt 0.25 0.25
vt 0.25 0.5
vt 0.3515625 0.5
vt 0.6015625 0.5
vt 0.6015625 0.25
vt 0.3515625 0.25
vt 0.3515625 0.5
vt 0.6015625 0.5
vt 0.6015625 0.25
vt 0.3515625 0.25
vn 0 0 -1
vn 1 0 0
vn 0 0 1
vn -1 0 0
vn 0 1 0
vn 0 -1 0
usemtl m_386ca4f1-58b6-72ad-bfad-1068213d77f8
f 164/336/84 167/335/84 165/334/84 162/333/84
f 163/340/85 164/339/85 162/338/85 161/337/85
f 168/344/86 163/343/86 161/342/86 166/341/86
f 167/348/87 168/347/87 166/346/87 165/345/87
f 166/352/88 161/351/88 162/350/88 165/349/88
f 167/356/89 164/355/89 163/354/89 168/353/89
o heat_pipe0
v 0.1234375 0.341513125 -0.2359375
v 0.1234375 0.341513125 -0.2484375
v 0.1234375 0.15870062500000004 -0.2359375
v 0.1234375 0.15870062500000004 -0.2484375
v 0.1109375 0.341513125 -0.2484375
v 0.1109375 0.341513125 -0.2359375
v 0.1109375 0.15870062500000004 -0.2484375
v 0.1109375 0.15870062500000004 -0.2359375
vt 0.8515625 1
vt 1 1
vt 1 0.296875
vt 0.8515625 0.296875
vt 0.8515625 1
vt 1 1
vt 1 0.296875
vt 0.8515625 0.296875
vt 0.8515625 1
vt 1 1
vt 1 0.296875
vt 0.8515625 0.296875
vt 0.8515625 1
vt 1 1
vt 1 0.296875
vt 0.8515625 0.296875
vt 0 1
vt 0.0625 1
vt 0.0625 0.9375
vt 0 0.9375
vt 0 1
vt 0.0625 1
vt 0.0625 0.9375
vt 0 0.9375
vn 0 0 -1
vn 1 0 0
vn 0 0 1
vn -1 0 0
vn 0 1 0
vn 0 -1 0
usemtl m_386ca4f1-58b6-72ad-bfad-1068213d77f8
f 172/360/90 175/359/90 173/358/90 170/357/90
f 171/364/91 172/363/91 170/362/91 169/361/91
f 176/368/92 171/367/92 169/366/92 174/365/92
f 175/372/93 176/371/93 174/370/93 173/369/93
f 174/376/94 169/375/94 170/374/94 173/373/94
f 175/380/95 172/379/95 171/378/95 176/377/95
o heat_pipe1
v 0.1109375 0.341513125 -0.0015624999999999927
v 0.1234375 0.341513125 -0.0015624999999999962
v 0.1109375 0.15870062500000004 -0.0015624999999999927
v 0.1234375 0.15870062500000004 -0.0015624999999999962
v 0.1234375 0.341513125 -0.014062500000000007
v 0.1109375 0.341513125 -0.014062500000000004
v 0.1234375 0.15870062500000004 -0.014062500000000007
v 0.1109375 0.15870062500000004 -0.014062500000000004
vt 0.8515625 1
vt 1 1
vt 1 0.296875
vt 0.8515625 0.296875
vt 0.8515625 1
vt 1 1
vt 1 0.296875
vt 0.8515625 0.296875
vt 0.8515625 1
vt 1 1
vt 1 0.296875
vt 0.8515625 0.296875
vt 0.8515625 1
vt 1 1
vt 1 0.296875
vt 0.8515625 0.296875
vt 0 1
vt 0.0625 1
vt 0.0625 0.9375
vt 0 0.9375
vt 0 1
vt 0.0625 1
vt 0.0625 0.9375
vt 0 0.9375
vn 1 0 -2.220446049250313e-16
vn 2.220446049250313e-16 0 1
vn -1 0 2.220446049250313e-16
vn -2.220446049250313e-16 0 -1
vn 0 1 0
vn 0 -1 0
usemtl m_386ca4f1-58b6-72ad-bfad-1068213d77f8
f 180/384/96 183/383/96 181/382/96 178/381/96
f 179/388/97 180/387/97 178/386/97 177/385/97
f 184/392/98 179/391/98 177/390/98 182/389/98
f 183/396/99 184/395/99 182/394/99 181/393/99
f 182/400/100 177/399/100 178/398/100 181/397/100
f 183/404/101 180/403/101 179/402/101 184/401/101
o heat_pipe2
v 0.1109375 0.341513125 -0.11875
v 0.1234375 0.341513125 -0.11875
v 0.1109375 0.15870062500000004 -0.11875
v 0.1234375 0.15870062500000004 -0.11875
v 0.1234375 0.341513125 -0.13125
v 0.1109375 0.341513125 -0.13125
v 0.1234375 0.15870062500000004 -0.13125
v 0.1109375 0.15870062500000004 -0.13125
vt 0.8515625 1
vt 1 1
vt 1 0.296875
vt 0.8515625 0.296875
vt 0.8515625 1
vt 1 1
vt 1 0.296875
vt 0.8515625 0.296875
vt 0.8515625 1
vt 1 1
vt 1 0.296875
vt 0.8515625 0.296875
vt 0.8515625 1
vt 1 1
vt 1 0.296875
vt 0.8515625 0.296875
vt 0 1
vt 0.0625 1
vt 0.0625 0.9375
vt 0 0.9375
vt 0 1
vt 0.0625 1
vt 0.0625 0.9375
vt 0 0.9375
vn 1 0 -2.220446049250313e-16
vn 2.220446049250313e-16 0 1
vn -1 0 2.220446049250313e-16
vn -2.220446049250313e-16 0 -1
vn 0 1 0
vn 0 -1 0
usemtl m_386ca4f1-58b6-72ad-bfad-1068213d77f8
f 188/408/102 191/407/102 189/406/102 186/405/102
f 187/412/103 188/411/103 186/410/103 185/409/103
f 192/416/104 187/415/104 185/414/104 190/413/104
f 191/420/105 192/419/105 190/418/105 189/417/105
f 190/424/106 185/423/106 186/422/106 189/421/106
f 191/428/107 188/427/107 187/426/107 192/425/107
o heat_pipe3
v -0.1109375 0.341513125 -0.13125
v -0.1234375 0.341513125 -0.13125
v -0.1109375 0.15870062500000004 -0.13125
v -0.1234375 0.15870062500000004 -0.13125
v -0.1234375 0.341513125 -0.11875
v -0.1109375 0.341513125 -0.11875
v -0.1234375 0.15870062500000004 -0.11875
v -0.1109375 0.15870062500000004 -0.11875
vt 0.8515625 1
vt 1 1
vt 1 0.296875
vt 0.8515625 0.296875
vt 0.8515625 1
vt 1 1
vt 1 0.296875
vt 0.8515625 0.296875
vt 0.8515625 1
vt 1 1
vt 1 0.296875
vt 0.8515625 0.296875
vt 0.8515625 1
vt 1 1
vt 1 0.296875
vt 0.8515625 0.296875
vt 0 1
vt 0.0625 1
vt 0.0625 0.9375
vt 0 0.9375
vt 0 1
vt 0.0625 1
vt 0.0625 0.9375
vt 0 0.9375
vn -1 0 -2.220446049250313e-16
vn 2.220446049250313e-16 0 -1
vn 1 0 2.220446049250313e-16
vn -2.220446049250313e-16 0 1
vn 0 1 0
vn 0 -1 0
usemtl m_386ca4f1-58b6-72ad-bfad-1068213d77f8
f 196/432/108 199/431/108 197/430/108 194/429/108
f 195/436/109 196/435/109 194/434/109 193/433/109
f 200/440/110 195/439/110 193/438/110 198/437/110
f 199/444/111 200/443/111 198/442/111 197/441/111
f 198/448/112 193/447/112 194/446/112 197/445/112
f 199/452/113 196/451/113 195/450/113 200/449/113
o heat_pipe2
v -0.1234375 0.341513125 -0.014062499999999999
v -0.1234375 0.341513125 -0.0015624999999999988
v -0.1234375 0.15870062500000004 -0.014062499999999999
v -0.1234375 0.15870062500000004 -0.0015624999999999988
v -0.1109375 0.341513125 -0.0015625000000000005
v -0.1109375 0.341513125 -0.014062500000000002
v -0.1109375 0.15870062500000004 -0.0015625000000000005
v -0.1109375 0.15870062500000004 -0.014062500000000002
vt 0.8515625 1
vt 1 1
vt 1 0.296875
vt 0.8515625 0.296875
vt 0.8515625 1
vt 1 1
vt 1 0.296875
vt 0.8515625 0.296875
vt 0.8515625 1
vt 1 1
vt 1 0.296875
vt 0.8515625 0.296875
vt 0.8515625 1
vt 1 1
vt 1 0.296875
vt 0.8515625 0.296875
vt 0 1
vt 0.0625 1
vt 0.0625 0.9375
vt 0 0.9375
vt 0 1
vt 0.0625 1
vt 0.0625 0.9375
vt 0 0.9375
vn 1.2246467991473532e-16 0 1
vn -1 0 1.2246467991473532e-16
vn -1.2246467991473532e-16 0 -1
vn 1 0 -1.2246467991473532e-16
vn 0 1 0
vn 0 -1 0
usemtl m_386ca4f1-58b6-72ad-bfad-1068213d77f8
f 204/456/114 207/455/114 205/454/114 202/453/114
f 203/460/115 204/459/115 202/458/115 201/457/115
f 208/464/116 203/463/116 201/462/116 206/461/116
f 207/468/117 208/467/117 206/466/117 205/465/117
f 206/472/118 201/471/118 202/470/118 205/469/118
f 207/476/119 204/475/119 203/474/119 208/473/119
o heat_pipe3
v -0.1109375 0.341513125 -0.2484375
v -0.1234375 0.341513125 -0.2484375
v -0.1109375 0.15870062500000004 -0.2484375
v -0.1234375 0.15870062500000004 -0.2484375
v -0.1234375 0.341513125 -0.2359375
v -0.1109375 0.341513125 -0.2359375
v -0.1234375 0.15870062500000004 -0.2359375
v -0.1109375 0.15870062500000004 -0.2359375
vt 0.8515625 1
vt 1 1
vt 1 0.296875
vt 0.8515625 0.296875
vt 0.8515625 1
vt 1 1
vt 1 0.296875
vt 0.8515625 0.296875
vt 0.8515625 1
vt 1 1
vt 1 0.296875
vt 0.8515625 0.296875
vt 0.8515625 1
vt 1 1
vt 1 0.296875
vt 0.8515625 0.296875
vt 0 1
vt 0.0625 1
vt 0.0625 0.9375
vt 0 0.9375
vt 0 1
vt 0.0625 1
vt 0.0625 0.9375
vt 0 0.9375
vn -1 0 -2.220446049250313e-16
vn 2.220446049250313e-16 0 -1
vn 1 0 2.220446049250313e-16
vn -2.220446049250313e-16 0 1
vn 0 1 0
vn 0 -1 0
usemtl m_386ca4f1-58b6-72ad-bfad-1068213d77f8
f 212/480/120 215/479/120 213/478/120 210/477/120
f 211/484/121 212/483/121 210/482/121 209/481/121
f 216/488/122 211/487/122 209/486/122 214/485/122
f 215/492/123 216/491/123 214/490/123 213/489/123
f 214/496/124 209/495/124 210/494/124 213/493/124
f 215/500/125 212/499/125 211/498/125 216/497/125
o heat_pipe4
v -0.006250000000000001 0.341513125 -0.2484375
v -0.0062499999999999995 0.341513125 -0.2359375
v -0.006250000000000001 0.15870062500000004 -0.2484375
v -0.0062499999999999995 0.15870062500000004 -0.2359375
v 0.006250000000000001 0.341513125 -0.2359375
v 0.0062499999999999995 0.341513125 -0.2484375
v 0.006250000000000001 0.15870062500000004 -0.2359375
v 0.0062499999999999995 0.15870062500000004 -0.2484375
vt 0.8515625 1
vt 1 1
vt 1 0.296875
vt 0.8515625 0.296875
vt 0.8515625 1
vt 1 1
vt 1 0.296875
vt 0.8515625 0.296875
vt 0.8515625 1
vt 1 1
vt 1 0.296875
vt 0.8515625 0.296875
vt 0.8515625 1
vt 1 1
vt 1 0.296875
vt 0.8515625 0.296875
vt 0 1
vt 0.0625 1
vt 0.0625 0.9375
vt 0 0.9375
vt 0 1
vt 0.0625 1
vt 0.0625 0.9375
vt 0 0.9375
vn 1.2246467991473532e-16 0 1
vn -1 0 1.2246467991473532e-16
vn -1.2246467991473532e-16 0 -1
vn 1 0 -1.2246467991473532e-16
vn 0 1 0
vn 0 -1 0
usemtl m_386ca4f1-58b6-72ad-bfad-1068213d77f8
f 220/504/126 223/503/126 221/502/126 218/501/126
f 219/508/127 220/507/127 218/506/127 217/505/127
f 224/512/128 219/511/128 217/510/128 222/509/128
f 223/516/129 224/515/129 222/514/129 221/513/129
f 222/520/130 217/519/130 218/518/130 221/517/130
f 223/524/131 220/523/131 219/522/131 224/521/131
o heat_pipe5
v 0.006250000000000002 0.341513125 -0.014062499999999999
v -0.006249999999999999 0.341513125 -0.014062500000000002
v 0.006250000000000002 0.15870062500000004 -0.014062499999999999
v -0.006249999999999999 0.15870062500000004 -0.014062500000000002
v -0.006250000000000002 0.341513125 -0.0015625000000000014
v 0.006249999999999999 0.341513125 -0.001562499999999998
v -0.006250000000000002 0.15870062500000004 -0.0015625000000000014
v 0.006249999999999999 0.15870062500000004 -0.001562499999999998
vt 0.8515625 1
vt 1 1
vt 1 0.296875
vt 0.8515625 0.296875
vt 0.8515625 1
vt 1 1
vt 1 0.296875
vt 0.8515625 0.296875
vt 0.8515625 1
vt 1 1
vt 1 0.296875
vt 0.8515625 0.296875
vt 0.8515625 1
vt 1 1
vt 1 0.296875
vt 0.8515625 0.296875
vt 0 1
vt 0.0625 1
vt 0.0625 0.9375
vt 0 0.9375
vt 0 1
vt 0.0625 1
vt 0.0625 0.9375
vt 0 0.9375
vn -1 0 -2.220446049250313e-16
vn 2.220446049250313e-16 0 -1
vn 1 0 2.220446049250313e-16
vn -2.220446049250313e-16 0 1
vn 0 1 0
vn 0 -1 0
usemtl m_386ca4f1-58b6-72ad-bfad-1068213d77f8
f 228/528/132 231/527/132 229/526/132 226/525/132
f 227/532/133 228/531/133 226/530/133 225/529/133
f 232/536/134 227/535/134 225/534/134 230/533/134
f 231/540/135 232/539/135 230/538/135 229/537/135
f 230/544/136 225/543/136 226/542/136 229/541/136
f 231/548/137 228/547/137 227/546/137 232/545/137