# Made in Blockbench 4.12.6
mtllib hot_side.mtl

o thermal_input
v 0.0625 0.09375 -0.4684375
v 0.0625 0.09375 -0.4996875
v 0.0625 0 -0.4684375
v 0.0625 0 -0.4996875
v -0.0625 0.09375 -0.4996875
v -0.0625 0.09375 -0.4684375
v -0.0625 0 -0.4996875
v -0.0625 0 -0.4684375
vt 0 1
vt 0.0625 1
vt 0.0625 0.9375
vt 0 0.9375
vt 0.0859375 0.9921875
vt 0.0859375 0.984375
vt 0.0625 0.984375
vt 0.0625 0.9921875
vt 0.0859375 0.9921875
vt 0.0859375 0.984375
vt 0.0625 0.984375
vt 0.0625 0.9921875
vt 0.0625 1
vt 0.09375 1
vt 0.09375 0.9921875
vt 0.0625 0.9921875
vt 0.0859375 0.9921875
vt 0.09375 0.9921875
vt 0.09375 0.984375
vt 0.0859375 0.984375
vn 0 0 -1
vn 1 0 0
vn -1 0 0
vn 0 1 0
vn 0 -1 0
usemtl m_386ca4f1-58b6-72ad-bfad-1068213d77f8
f 4/4/1 7/3/1 5/2/1 2/1/1
f 3/8/2 4/7/2 2/6/2 1/5/2
f 7/12/3 8/11/3 6/10/3 5/9/3
f 6/16/4 1/15/4 2/14/4 5/13/4
f 7/20/5 4/19/5 3/18/5 8/17/5
o piston_ring2_1
v 0.06035562500000001 0.39463812500000006 -0.35
v 0.060355625000000065 0.14463812500000006 -0.35000000000000003
v 0.041605624999999966 0.39463812500000006 -0.35
v 0.04160562500000002 0.14463812500000006 -0.35000000000000003
v 0.060355625000000065 0.1446381250000001 -0.4
v 0.06035562500000001 0.39463812500000006 -0.39999999999999997
v 0.04160562500000002 0.1446381250000001 -0.4
v 0.041605624999999966 0.39463812500000006 -0.39999999999999997
vt 0.8515625 1
vt 0.8515625 0.5
vt 0.7265625 0.5
vt 0.7265625 1
vt 0.8515625 1
vt 1 1
vt 1 0.296875
vt 0.8515625 0.296875
vn -2.220446049250313e-16 1 2.220446049250313e-16
vn 1 2.220446049250313e-16 4.930380657631324e-32
usemtl m_386ca4f1-58b6-72ad-bfad-1068213d77f8
f 16/24/6 11/23/6 9/22/6 14/21/6
f 14/28/7 9/27/7 10/26/7 13/25/7
o piston_ring1_1
v 0.06035554124991605 0.39440375 -0.4000002021905887
v 0.06035554124991608 0.14565375 -0.40000020219058874
v 0.047097289102668256 0.39440375 -0.3867419500433409
v 0.047097289102668284 0.14565374999999997 -0.38674195004334094
v 0.0250002021905887 0.14565375 -0.4353555412499161
v 0.025000202190588672 0.39440375 -0.43535554124991604
v 0.011741950043340901 0.14565374999999997 -0.4220972891026683
v 0.011741950043340874 0.39440375 -0.42209728910266825
vt 0.8515625 1
vt 0.8515625 0.5
vt 0.7265625 0.5
vt 0.7265625 1
vt 0.8515625 1
vt 1 1
vt 1 0.296875
vt 0.8515625 0.296875
vn -2.355138688025663e-16 1 2.3551386880256634e-16
vn 0.7071067811865475 2.355138688025663e-16 -0.7071067811865476
usemtl m_386ca4f1-58b6-72ad-bfad-1068213d77f8
f 24/32/8 19/31/8 17/30/8 22/29/8
f 22/36/9 17/35/9 18/34/9 21/33/9
o piston_ring0_1
v 0.025 0.39463812500000006 -0.435355625
v 0.025 0.14463812500000006 -0.4353556250000001
v 0.025 0.39463812500000006 -0.416605625
v 0.025 0.14463812500000006 -0.41660562500000003
v -0.025 0.14463812500000006 -0.4353556250000001
v -0.025 0.39463812500000006 -0.435355625
v -0.025 0.14463812500000006 -0.41660562500000003
v -0.025 0.39463812500000006 -0.416605625
vt 0.8515625 1
vt 0.8515625 0.5
vt 0.7265625 0.5
vt 0.7265625 1
vt 0.8515625 1
vt 1 1
vt 1 0.296875
vt 0.8515625 0.296875
vn 0 1 2.220446049250313e-16
vn 0 2.220446049250313e-16 -1
usemtl m_386ca4f1-58b6-72ad-bfad-1068213d77f8
f 32/40/10 27/39/10 25/38/10 30/37/10
f 30/44/11 25/43/11 26/42/11 29/41/11
o piston_ring7_1
v -0.025000202190588672 0.39440375 -0.43535554124991604
v -0.0250002021905887 0.14565375 -0.4353555412499161
v -0.011741950043340874 0.39440375 -0.42209728910266825
v -0.011741950043340901 0.14565374999999997 -0.4220972891026683
v -0.06035554124991608 0.14565375 -0.40000020219058874
v -0.06035554124991605 0.39440375 -0.4000002021905887
v -0.047097289102668284 0.14565374999999997 -0.38674195004334094
v -0.047097289102668256 0.39440375 -0.3867419500433409
vt 0.8515625 1
vt 0.8515625 0.5
vt 0.7265625 0.5
vt 0.7265625 1
vt 0.8515625 1
vt 1 1
vt 1 0.296875
vt 0.8515625 0.296875
vn 2.355138688025663e-16 1 2.3551386880256634e-16
vn -0.7071067811865475 2.355138688025663e-16 -0.7071067811865476
usemtl m_386ca4f1-58b6-72ad-bfad-1068213d77f8
f 40/48/12 35/47/12 33/46/12 38/45/12
f 38/52/13 33/51/13 34/50/13 37/49/13
o piston_ring6_1
v -0.06035562500000001 0.39463812500000006 -0.39999999999999997
v -0.060355625000000065 0.1446381250000001 -0.4
v -0.041605624999999966 0.39463812500000006 -0.39999999999999997
v -0.04160562500000002 0.1446381250000001 -0.4
v -0.060355625000000065 0.14463812500000006 -0.35000000000000003
v -0.06035562500000001 0.39463812500000006 -0.35
v -0.04160562500000002 0.14463812500000006 -0.35000000000000003
v -0.041605624999999966 0.39463812500000006 -0.35
vt 0.8515625 1
vt 0.8515625 0.5
vt 0.7265625 0.5
vt 0.7265625 1
vt 0.8515625 1
vt 1 1
vt 1 0.296875
vt 0.8515625 0.296875
vn 2.220446049250313e-16 1 2.220446049250313e-16
vn -1 2.220446049250313e-16 4.930380657631324e-32
usemtl m_386ca4f1-58b6-72ad-bfad-1068213d77f8
f 48/56/14 43/55/14 41/54/14 46/53/14
f 46/60/15 41/59/15 42/58/15 45/57/15
o piston_ring4_1
v -0.02500000000000001 0.39463812500000006 -0.314644375
v -0.024999999999999977 0.14463812500000003 -0.31464437500000003
v -0.02500000000000001 0.39463812500000006 -0.333394375
v -0.024999999999999977 0.14463812500000006 -0.3333943750000001
v 0.025000000000000026 0.14463812500000006 -0.31464437500000003
v 0.024999999999999994 0.39463812500000006 -0.314644375
v 0.025000000000000026 0.14463812500000006 -0.3333943750000001
v 0.024999999999999994 0.39463812500000006 -0.333394375
vt 0.8515625 1
vt 0.8515625 0.5
vt 0.7265625 0.5
vt 0.7265625 1
vt 0.8515625 1
vt 1 1
vt 1 0.296875
vt 0.8515625 0.296875
vn -1.2246467991473532e-16 1 2.220446049250313e-16
vn 2.719262146893782e-32 -2.220446049250313e-16 1
usemtl m_386ca4f1-58b6-72ad-bfad-1068213d77f8
f 56/64/16 51/63/16 49/62/16 54/61/16
f 54/68/17 49/67/17 50/66/17 53/65/17
o piston_ring3_1
v 0.0250002021905887 0.39440375 -0.31464445875008396
v 0.02500020219058863 0.14565374999999997 -0.31464445875008396
v 0.011741950043340901 0.39440375 -0.3279027108973317
v 0.011741950043340832 0.14565374999999997 -0.3279027108973318
v 0.06035554124991601 0.14565374999999994 -0.3499997978094114
v 0.06035554124991607 0.39440375 -0.3499997978094113
v 0.047097289102668215 0.14565374999999997 -0.36325804995665917
v 0.04709728910266828 0.39440375 -0.3632580499566591
vt 0.8515625 1
vt 0.8515625 0.5
vt 0.7265625 0.5
vt 0.7265625 1
vt 0.8515625 1
vt 1 1
vt 1 0.296875
vt 0.8515625 0.296875
vn 2.355138688025663e-16 1 7.850462293418876e-17
vn 0.7071067811865476 -3.532708032038495e-16 0.7071067811865476
usemtl m_386ca4f1-58b6-72ad-bfad-1068213d77f8
f 64/72/18 59/71/18 57/70/18 62/69/18
f 62/76/19 57/75/19 58/74/19 61/73/19
o piston_ring5_1
v -0.06035554124991607 0.39440375 -0.3499997978094113
v -0.06035554124991601 0.14565374999999994 -0.3499997978094114
v -0.04709728910266828 0.39440375 -0.3632580499566591
v -0.047097289102668215 0.14565374999999997 -0.36325804995665917
v -0.02500020219058863 0.14565374999999997 -0.31464445875008396
v -0.0250002021905887 0.39440375 -0.31464445875008396
v -0.011741950043340832 0.14565374999999997 -0.3279027108973318
v -0.011741950043340901 0.39440375 -0.3279027108973317
vt 0.8515625 1
vt 0.8515625 0.5
vt 0.7265625 0.5
vt 0.7265625 1
vt 0.8515625 1
vt 1 1
vt 1 0.296875
vt 0.8515625 0.296875
vn -2.355138688025663e-16 1 7.850462293418876e-17
vn -0.7071067811865476 -3.532708032038495e-16 0.7071067811865476
usemtl m_386ca4f1-58b6-72ad-bfad-1068213d77f8
f 72/80/20 67/79/20 65/78/20 70/77/20
f 70/84/21 65/83/21 66/82/21 69/81/21
o piston_cover_1
v 0.0421875 0.3940625 -0.3328125
v 0.0421875 0.3940625 -0.4171875
v 0.0421875 0.39250000000000007 -0.3328125
v 0.0421875 0.39250000000000007 -0.4171875
v -0.0421875 0.3940625 -0.4171875
v -0.0421875 0.3940625 -0.3328125
v -0.0421875 0.39250000000000007 -0.4171875
v -0.0421875 0.39250000000000007 -0.3328125
vt 0.6015625 0.5
vt 0.8515625 0.5
vt 0.8515625 0.25
vt 0.6015625 0.25
vn 0 1 0
usemtl m_386ca4f1-58b6-72ad-bfad-1068213d77f8
f 78/88/22 73/87/22 74/86/22 77/85/22