# Blender 5.1.0
# www.blender.org
mtllib inventory.mtl
o base
v 0.582483 0.104564 0.559660
v 0.582483 0.104564 0.392357
v 0.582483 0.000000 0.559660
v 0.582483 -0.000000 0.392357
v 0.415180 0.104564 0.392357
v 0.415180 0.104564 0.559660
v 0.415180 -0.000000 0.392357
v 0.415180 0.000000 0.559660
vn -0.0000 -0.0000 -1.0000
vn 1.0000 -0.0000 -0.0000
vn -0.0000 -0.0000 1.0000
vn -1.0000 -0.0000 -0.0000
vn -0.0000 1.0000 -0.0000
vn -0.0000 -1.0000 -0.0000
vt 0.562500 0.718750
vt 1.000000 0.718750
vt 1.000000 1.000000
vt 0.562500 1.000000
vt 0.312500 0.250000
vt 0.562500 0.250000
vt 0.562500 0.500000
vt 0.312500 0.500000
vt 0.562500 0.484375
vt 0.796875 0.484375
vt 0.796875 0.718750
s 1
usemtl m_38ca7076-efe0-7f1e-9512-a34bf5488c27
f 4/1/1 7/2/1 5/3/1 2/4/1
f 3/1/2 4/2/2 2/3/2 1/4/2
f 8/1/3 3/2/3 1/3/3 6/4/3
f 7/1/4 8/2/4 6/3/4 5/4/4
f 6/5/5 1/6/5 2/7/5 5/8/5
f 7/9/6 4/10/6 3/11/6 8/1/6
o base_socket
v 0.540657 0.188216 0.517835
v 0.540657 0.188216 0.434183
v 0.540657 0.104564 0.517835
v 0.540657 0.104564 0.434183
v 0.457005 0.188216 0.434183
v 0.457005 0.188216 0.517835
v 0.457005 0.104564 0.434183
v 0.457005 0.104564 0.517835
vn -0.0000 -0.0000 -1.0000
vn 1.0000 -0.0000 -0.0000
vn -0.0000 -0.0000 1.0000
vn -1.0000 -0.0000 -0.0000
vn -0.0000 1.0000 -0.0000
vn -0.0000 -1.0000 -0.0000
vt 0.312500 0.750000
vt 0.562500 0.750000
vt 0.562500 1.000000
vt 0.312500 1.000000
vt 0.312500 0.000000
vt 0.562500 0.000000
vt 0.562500 0.250000
vt 0.312500 0.250000
vt 0.000000 0.875000
vt 0.125000 0.875000
vt 0.125000 1.000000
vt 0.000000 1.000000
s 1
usemtl m_38ca7076-efe0-7f1e-9512-a34bf5488c27
f 12/12/7 15/13/7 13/14/7 10/15/7
f 11/12/8 12/13/8 10/14/8 9/15/8
f 16/12/9 11/13/9 9/14/9 14/15/9
f 15/12/10 16/13/10 14/14/10 13/15/10
f 14/16/11 9/17/11 10/18/11 13/19/11
usemtl none
f 15/20/12 12/21/12 11/22/12 16/23/12
o rotor_axle
v 0.519744 0.930623 0.496922
v 0.519744 0.930623 0.455096
v 0.519744 0.135934 0.496922
v 0.519744 0.135934 0.455096
v 0.477918 0.930623 0.455096
v 0.477918 0.930623 0.496922
v 0.477918 0.135934 0.455096
v 0.477918 0.135934 0.496922
vn -0.0000 -0.0000 -1.0000
vn 1.0000 -0.0000 -0.0000
vn -0.0000 -0.0000 1.0000
vn -1.0000 -0.0000 -0.0000
vn -0.0000 1.0000 -0.0000
vn -0.0000 -1.0000 -0.0000
vt 0.140625 1.000000
vt 0.078125 1.000000
vt 0.078125 0.000000
vt 0.140625 0.000000
vt 0.312500 0.500000
vt 0.562500 0.500000
vt 0.562500 0.750000
vt 0.312500 0.750000
vt 0.000000 0.937500
vt 0.062500 0.937500
vt 0.062500 1.000000
vt 0.000000 1.000000
s 1
usemtl m_38ca7076-efe0-7f1e-9512-a34bf5488c27
f 20/24/13 23/25/13 21/26/13 18/27/13
f 19/24/14 20/25/14 18/26/14 17/27/14
f 24/24/15 19/25/15 17/26/15 22/27/15
f 23/24/16 24/25/16 22/26/16 21/27/16
f 22/28/17 17/29/17 18/30/17 21/31/17
usemtl none
f 23/32/18 20/33/18 19/34/18 24/35/18
o rotor_axle_top
v 0.530200 0.967221 0.507378
v 0.530200 0.967221 0.444639
v 0.530200 0.914939 0.507378
v 0.530200 0.914939 0.444639
v 0.467462 0.967221 0.444639
v 0.467462 0.967221 0.507378
v 0.467462 0.914939 0.444639
v 0.467462 0.914939 0.507378
vn -0.0000 -0.0000 -1.0000
vn 1.0000 -0.0000 -0.0000
vn -0.0000 -0.0000 1.0000
vn -1.0000 -0.0000 -0.0000
vn -0.0000 1.0000 -0.0000
vn -0.0000 -1.0000 -0.0000
vt 0.312500 0.750000
vt 0.562500 0.750000
vt 0.562500 1.000000
vt 0.312500 1.000000
vt 0.312500 0.500000
vt 0.562500 0.500000
s 1
usemtl m_38ca7076-efe0-7f1e-9512-a34bf5488c27
f 28/36/19 31/37/19 29/38/19 26/39/19
f 27/36/20 28/37/20 26/38/20 25/39/20
f 32/36/21 27/37/21 25/38/21 30/39/21
f 31/36/22 32/37/22 30/38/22 29/39/22
f 30/40/23 25/41/23 26/37/23 29/36/23
f 31/40/24 28/41/24 27/37/24 32/36/24
o rotor_blade_0
v 0.515466 0.925102 0.658372
v 0.517248 0.925474 0.648076
v 0.602928 0.272233 0.649881
v 0.604710 0.272606 0.639584
v 0.394734 0.909345 0.626287
v 0.392952 0.908972 0.636583
v 0.482196 0.256476 0.617795
v 0.480414 0.256104 0.628092
vn 0.1704 0.0356 -0.9847
vn 0.9764 0.1285 0.1736
vn -0.1704 -0.0356 0.9847
vn -0.9764 -0.1285 -0.1736
vn -0.1328 0.9911 0.0129
vn 0.1328 -0.9911 -0.0129
vt 0.000000 0.000000
vt 0.187500 0.000000
vt 0.187500 1.000000
vt 0.000000 1.000000
vt 0.015625 0.000000
vt 0.015625 1.000000
vt 0.000000 0.984375
vt 0.187500 0.984375
vt 0.187500 0.015625
vt 0.000000 0.015625
s 1
usemtl m_38ca7076-efe0-7f1e-9512-a34bf5488c27
f 36/42/25 39/43/25 37/44/25 34/45/25
f 35/42/26 36/46/26 34/47/26 33/45/26
f 40/42/27 35/43/27 33/44/27 38/45/27
f 39/42/28 40/46/28 38/47/28 37/45/28
f 38/48/29 33/49/29 34/44/29 37/45/29
f 39/42/30 36/43/30 35/50/30 40/51/30
o rotor_blade_0_strap_0
v 0.509288 0.899254 0.645926
v 0.509288 0.899254 0.478623
v 0.509288 0.878341 0.645926
v 0.509288 0.878341 0.478623
v 0.488375 0.899254 0.478623
v 0.488375 0.899254 0.645926
v 0.488375 0.878341 0.478623
v 0.488375 0.878341 0.645926
vn 1.0000 -0.0000 -0.0000
vn -1.0000 -0.0000 -0.0000
vn -0.0000 1.0000 -0.0000
vn -0.0000 -1.0000 -0.0000
vt 0.187500 1.000000
vt 0.187500 0.000000
vt 0.312500 0.000000
vt 0.312500 1.000000
s 1
usemtl m_38ca7076-efe0-7f1e-9512-a34bf5488c27
f 43/52/31 44/53/31 42/54/31 41/55/31
f 47/52/32 48/53/32 46/54/32 45/55/32
f 46/55/33 41/52/33 42/53/33 45/54/33
f 47/55/34 44/52/34 43/53/34 48/54/34
o rotor_blade_0_strap_1
v 0.509288 0.303237 0.632855
v 0.509288 0.303237 0.465552
v 0.509288 0.282324 0.632855
v 0.509288 0.282324 0.465552
v 0.488375 0.303237 0.465552
v 0.488375 0.303237 0.632855
v 0.488375 0.282324 0.465552
v 0.488375 0.282324 0.632855
vn 1.0000 -0.0000 -0.0000
vn -1.0000 -0.0000 -0.0000
vn -0.0000 1.0000 -0.0000
vn -0.0000 -1.0000 -0.0000
vt 0.187500 1.000000
vt 0.187500 0.000000
vt 0.312500 0.000000
vt 0.312500 1.000000
s 1
usemtl m_38ca7076-efe0-7f1e-9512-a34bf5488c27
f 51/56/35 52/57/35 50/58/35 49/59/35
f 55/56/36 56/57/36 54/58/36 53/59/36
f 54/59/37 49/56/37 50/57/37 53/58/37
f 55/59/38 52/56/38 51/57/38 56/58/38
o rotor_blade_1
v 0.681195 0.925102 0.459374
v 0.670898 0.925474 0.457592
v 0.672703 0.272233 0.371912
v 0.662406 0.272606 0.370130
v 0.649109 0.909345 0.580106
v 0.659406 0.908972 0.581888
v 0.640617 0.256476 0.492644
v 0.650914 0.256104 0.494426
vn -0.9847 0.0356 -0.1704
vn 0.1736 0.1285 -0.9764
vn 0.9847 -0.0356 0.1704
vn -0.1736 -0.1285 0.9764
vn 0.0129 0.9911 0.1328
vn -0.0129 -0.9911 -0.1328
vt 0.000000 0.000000
vt 0.187500 0.000000
vt 0.187500 1.000000
vt 0.000000 1.000000
vt 0.015625 0.000000
vt 0.015625 1.000000
vt 0.000000 0.984375
vt 0.187500 0.984375
vt 0.187500 0.015625
vt 0.000000 0.015625
s 1
usemtl m_38ca7076-efe0-7f1e-9512-a34bf5488c27
f 60/60/39 63/61/39 61/62/39 58/63/39
f 59/60/40 60/64/40 58/65/40 57/63/40
f 64/60/41 59/61/41 57/62/41 62/63/41
f 63/60/42 64/64/42 62/65/42 61/63/42
f 62/66/43 57/67/43 58/62/43 61/63/43
f 63/60/44 60/61/44 59/68/44 64/69/44
o rotor_blade_1_strap_0
v 0.668748 0.899254 0.465552
v 0.501445 0.899254 0.465552
v 0.668748 0.878341 0.465552
v 0.501445 0.878341 0.465552
v 0.501445 0.899254 0.486465
v 0.668748 0.899254 0.486465
v 0.501445 0.878341 0.486465
v 0.668748 0.878341 0.486465
vn -0.0000 -0.0000 -1.0000
vn -0.0000 -0.0000 1.0000
vn -0.0000 1.0000 -0.0000
vn -0.0000 -1.0000 -0.0000
vt 0.187500 1.000000
vt 0.187500 0.000000
vt 0.312500 0.000000
vt 0.312500 1.000000
s 1
usemtl m_38ca7076-efe0-7f1e-9512-a34bf5488c27
f 67/70/45 68/71/45 66/72/45 65/73/45
f 71/70/46 72/71/46 70/72/46 69/73/46
f 70/73/47 65/70/47 66/71/47 69/72/47
f 71/73/48 68/70/48 67/71/48 72/72/48
o rotor_blade_1_strap_1
v 0.655678 0.303237 0.465552
v 0.488375 0.303237 0.465552
v 0.655678 0.282324 0.465552
v 0.488375 0.282324 0.465552
v 0.488375 0.303237 0.486465
v 0.655678 0.303237 0.486465
v 0.488375 0.282324 0.486465
v 0.655678 0.282324 0.486465
vn -0.0000 -0.0000 -1.0000
vn -0.0000 -0.0000 1.0000
vn -0.0000 1.0000 -0.0000
vn -0.0000 -1.0000 -0.0000
vt 0.187500 1.000000
vt 0.187500 0.000000
vt 0.312500 0.000000
vt 0.312500 1.000000
s 1
usemtl m_38ca7076-efe0-7f1e-9512-a34bf5488c27
f 75/74/49 76/75/49 74/76/49 73/77/49
f 79/74/50 80/75/50 78/76/50 77/77/50
f 78/77/51 73/74/51 74/75/51 77/76/51
f 79/77/52 76/74/52 75/75/52 80/76/52
o rotor_blade_2
v 0.482196 0.925102 0.293645
v 0.480414 0.925474 0.303942
v 0.394734 0.272233 0.302137
v 0.392952 0.272606 0.312434
v 0.602928 0.909345 0.325731
v 0.604710 0.908972 0.315434
v 0.515466 0.256476 0.334223
v 0.517248 0.256104 0.323926
vn -0.1704 0.0356 0.9847
vn -0.9764 0.1285 -0.1736
vn 0.1704 -0.0356 -0.9847
vn 0.9764 -0.1285 0.1736
vn 0.1328 0.9911 -0.0129
vn -0.1328 -0.9911 0.0129
vt 0.000000 0.000000
vt 0.187500 0.000000
vt 0.187500 1.000000
vt 0.000000 1.000000
vt 0.015625 0.000000
vt 0.015625 1.000000
vt 0.000000 0.984375
vt 0.187500 0.984375
vt 0.187500 0.015625
vt 0.000000 0.015625
s 1
usemtl m_38ca7076-efe0-7f1e-9512-a34bf5488c27
f 84/78/53 87/79/53 85/80/53 82/81/53
f 83/78/54 84/82/54 82/83/54 81/81/54
f 88/78/55 83/79/55 81/80/55 86/81/55
f 87/78/56 88/82/56 86/83/56 85/81/56
f 86/84/57 81/85/57 82/80/57 85/81/57
f 87/78/58 84/79/58 83/86/58 88/87/58
o rotor_blade_2_strap_0
v 0.488375 0.899254 0.306092
v 0.488375 0.899254 0.473395
v 0.488375 0.878341 0.306092
v 0.488375 0.878341 0.473395
v 0.509288 0.899254 0.473395
v 0.509288 0.899254 0.306092
v 0.509288 0.878341 0.473395
v 0.509288 0.878341 0.306092
vn -1.0000 -0.0000 -0.0000
vn 1.0000 -0.0000 -0.0000
vn -0.0000 1.0000 -0.0000
vn -0.0000 -1.0000 -0.0000
vt 0.187500 1.000000
vt 0.187500 0.000000
vt 0.312500 0.000000
vt 0.312500 1.000000
s 1
usemtl m_38ca7076-efe0-7f1e-9512-a34bf5488c27
f 91/88/59 92/89/59 90/90/59 89/91/59
f 95/88/60 96/89/60 94/90/60 93/91/60
f 94/91/61 89/88/61 90/89/61 93/90/61
f 95/91/62 92/88/62 91/89/62 96/90/62
o rotor_blade_2_strap_1
v 0.488375 0.303237 0.319162
v 0.488375 0.303237 0.486465
v 0.488375 0.282324 0.319162
v 0.488375 0.282324 0.486465
v 0.509288 0.303237 0.486465
v 0.509288 0.303237 0.319162
v 0.509288 0.282324 0.486465
v 0.509288 0.282324 0.319162
vn -1.0000 -0.0000 -0.0000
vn 1.0000 -0.0000 -0.0000
vn -0.0000 1.0000 -0.0000
vn -0.0000 -1.0000 -0.0000
vt 0.187500 1.000000
vt 0.187500 0.000000
vt 0.312500 0.000000
vt 0.312500 1.000000
s 1
usemtl m_38ca7076-efe0-7f1e-9512-a34bf5488c27
f 99/92/63 100/93/63 98/94/63 97/95/63
f 103/92/64 104/93/64 102/94/64 101/95/64
f 102/95/65 97/92/65 98/93/65 101/94/65
f 103/95/66 100/92/66 99/93/66 104/94/66
o rotor_blade_3
v 0.316468 0.925102 0.492644
v 0.326764 0.925474 0.494426
v 0.324959 0.272233 0.580106
v 0.335256 0.272606 0.581888
v 0.348553 0.909345 0.371912
v 0.338256 0.908972 0.370130
v 0.357045 0.256476 0.459374
v 0.346748 0.256104 0.457592
vn 0.9847 0.0356 0.1704
vn -0.1736 0.1285 0.9764
vn -0.9847 -0.0356 -0.1704
vn 0.1736 -0.1285 -0.9764
vn -0.0129 0.9911 -0.1328
vn 0.0129 -0.9911 0.1328
vt 0.000000 0.000000
vt 0.187500 0.000000
vt 0.187500 1.000000
vt 0.000000 1.000000
vt 0.015625 0.000000
vt 0.015625 1.000000
vt 0.000000 0.984375
vt 0.187500 0.984375
vt 0.187500 0.015625
vt 0.000000 0.015625
s 1
usemtl m_38ca7076-efe0-7f1e-9512-a34bf5488c27
f 108/96/67 111/97/67 109/98/67 106/99/67
f 107/96/68 108/100/68 106/101/68 105/99/68
f 112/96/69 107/97/69 105/98/69 110/99/69
f 111/96/70 112/100/70 110/101/70 109/99/70
f 110/102/71 105/103/71 106/98/71 109/99/71
f 111/96/72 108/97/72 107/104/72 112/105/72
o rotor_blade_3_strap_0
v 0.328914 0.899254 0.486465
v 0.496217 0.899254 0.486465
v 0.328914 0.878341 0.486465
v 0.496217 0.878341 0.486465
v 0.496217 0.899254 0.465552
v 0.328914 0.899254 0.465552
v 0.496217 0.878341 0.465552
v 0.328914 0.878341 0.465552
vn -0.0000 -0.0000 1.0000
vn -0.0000 -0.0000 -1.0000
vn -0.0000 1.0000 -0.0000
vn -0.0000 -1.0000 -0.0000
vt 0.187500 1.000000
vt 0.187500 0.000000
vt 0.312500 0.000000
vt 0.312500 1.000000
s 1
usemtl m_38ca7076-efe0-7f1e-9512-a34bf5488c27
f 115/106/73 116/107/73 114/108/73 113/109/73
f 119/106/74 120/107/74 118/108/74 117/109/74
f 118/109/75 113/106/75 114/107/75 117/108/75
f 119/109/76 116/106/76 115/107/76 120/108/76
o rotor_blade_3_strap_1
v 0.341985 0.303237 0.486465
v 0.509288 0.303237 0.486465
v 0.341985 0.282324 0.486465
v 0.509288 0.282324 0.486465
v 0.509288 0.303237 0.465552
v 0.341985 0.303237 0.465552
v 0.509288 0.282324 0.465552
v 0.341985 0.282324 0.465552
vn -0.0000 -0.0000 1.0000
vn -0.0000 -0.0000 -1.0000
vn -0.0000 1.0000 -0.0000
vn -0.0000 -1.0000 -0.0000
vt 0.187500 1.000000
vt 0.187500 0.000000
vt 0.312500 0.000000
vt 0.312500 1.000000
s 1
usemtl m_38ca7076-efe0-7f1e-9512-a34bf5488c27
f 123/110/77 124/111/77 122/112/77 121/113/77
f 127/110/78 128/111/78 126/112/78 125/113/78
f 126/113/79 121/110/79 122/111/79 125/112/79
f 127/113/80 124/110/80 123/111/80 128/112/80
