# Blender 5.1.0
# www.blender.org
mtllib inventory.mtl
o glass0
v 0.593584 0.864692 0.612502
v 0.606689 0.872465 0.563066
v 0.585568 0.805963 0.601143
v 0.598673 0.813736 0.551707
v 0.605862 0.872616 0.562871
v 0.592758 0.864843 0.612307
v 0.597846 0.813886 0.551512
v 0.584742 0.806114 0.600948
vn 0.2533 0.1503 -0.9556
vn 0.9582 -0.1746 0.2266
vn -0.2533 -0.1503 0.9556
vn -0.9582 0.1746 -0.2266
vn 0.1328 0.9731 0.1882
vn -0.1328 -0.9731 -0.1882
vt 0.531250 0.656250
vt 0.531250 0.170312
vt 0.546875 0.170312
vt 0.546875 0.656250
vt 0.531250 0.156250
vt 1.000000 0.156250
vt 1.000000 0.656250
s 1
usemtl m_dc93cd3a-0b28-89b8-2b5e-d6a354e89186
f 4/1/1 7/2/1 5/3/1 2/4/1
f 3/5/2 4/6/2 2/7/2 1/1/2
f 8/1/3 3/2/3 1/3/3 6/4/3
f 7/7/4 8/1/4 6/5/4 5/6/4
f 6/4/5 1/1/5 2/2/5 5/3/5
f 7/2/6 4/3/6 3/4/6 8/1/6
o glass1
v 0.544841 0.873574 0.600977
v 0.557945 0.881347 0.551541
v 0.536825 0.814845 0.589619
v 0.549929 0.822618 0.540183
v 0.557119 0.881498 0.551346
v 0.544015 0.873725 0.600782
v 0.549103 0.822768 0.539987
v 0.535999 0.814996 0.589423
vn 0.2533 0.1503 -0.9556
vn 0.9582 -0.1746 0.2266
vn -0.2533 -0.1503 0.9556
vn -0.9582 0.1746 -0.2266
vn 0.1328 0.9731 0.1882
vn -0.1328 -0.9731 -0.1882
vt 0.531250 0.656250
vt 0.531250 0.170312
vt 0.546875 0.170312
vt 0.546875 0.656250
vt 1.000000 0.656250
vt 0.531250 0.156250
vt 1.000000 0.156250
s 1
usemtl m_dc93cd3a-0b28-89b8-2b5e-d6a354e89186
f 12/8/7 15/9/7 13/10/7 10/11/7
f 11/12/8 12/8/8 10/13/8 9/14/8
f 16/8/9 11/9/9 9/10/9 14/11/9
f 15/13/10 16/14/10 14/12/10 13/8/10
f 14/9/11 9/10/11 10/11/11 13/8/11
f 15/11/12 12/8/12 11/9/12 16/10/12
o glass2
v 0.593584 0.864692 0.612502
v 0.593802 0.864822 0.611678
v 0.585568 0.805963 0.601143
v 0.585786 0.806093 0.600319
v 0.544233 0.873855 0.599958
v 0.544015 0.873725 0.600782
v 0.536217 0.815125 0.588599
v 0.535999 0.814996 0.589423
vn 0.2533 0.1503 -0.9556
vn 0.9582 -0.1746 0.2266
vn -0.2533 -0.1503 0.9556
vn -0.9582 0.1746 -0.2266
vn 0.1328 0.9731 0.1882
vn -0.1328 -0.9731 -0.1882
vt 0.531250 0.156250
vt 1.000000 0.156250
vt 1.000000 0.656250
vt 0.531250 0.656250
vt 0.531250 0.170312
vt 0.546875 0.170312
vt 0.546875 0.656250
s 1
usemtl m_dc93cd3a-0b28-89b8-2b5e-d6a354e89186
f 20/15/13 23/16/13 21/17/13 18/18/13
f 19/18/14 20/19/14 18/20/14 17/21/14
f 24/17/15 19/18/15 17/15/15 22/16/15
f 23/18/16 24/19/16 22/20/16 21/21/16
f 22/20/17 17/21/17 18/18/17 21/19/17
f 23/20/18 20/21/18 19/18/18 24/19/18
o glass3
v 0.606470 0.872335 0.563890
v 0.606689 0.872465 0.563066
v 0.598454 0.813606 0.552531
v 0.598673 0.813736 0.551707
v 0.557119 0.881498 0.551346
v 0.556901 0.881368 0.552170
v 0.549103 0.822768 0.539987
v 0.548885 0.822639 0.540811
vn 0.2533 0.1503 -0.9556
vn 0.9582 -0.1746 0.2266
vn -0.2533 -0.1503 0.9556
vn -0.9582 0.1746 -0.2266
vn 0.1328 0.9731 0.1882
vn -0.1328 -0.9731 -0.1882
vt 1.000000 0.656250
vt 0.531250 0.656250
vt 0.531250 0.156250
vt 1.000000 0.156250
vt 0.531250 0.170312
vt 0.546875 0.170312
vt 0.546875 0.656250
s 1
usemtl m_dc93cd3a-0b28-89b8-2b5e-d6a354e89186
f 28/22/19 31/23/19 29/24/19 26/25/19
f 27/23/20 28/26/20 26/27/20 25/28/20
f 32/24/21 27/25/21 25/22/21 30/23/21
f 31/23/22 32/26/22 30/27/22 29/28/22
f 30/23/23 25/26/23 26/27/23 29/28/23
f 31/23/24 28/26/24 27/27/24 32/28/24
o lamp_base
v 0.585568 0.805963 0.601143
v 0.598673 0.813736 0.551707
v 0.584995 0.801768 0.600332
v 0.598100 0.809541 0.550896
v 0.549103 0.822768 0.539987
v 0.535999 0.814996 0.589423
v 0.548531 0.818573 0.539176
v 0.535426 0.810801 0.588612
vn 0.2533 0.1503 -0.9556
vn 0.9582 -0.1746 0.2266
vn -0.2533 -0.1503 0.9556
vn -0.9582 0.1746 -0.2266
vn 0.1328 0.9731 0.1882
vn -0.1328 -0.9731 -0.1882
vt 0.531250 0.664062
vt 1.000000 0.664062
vt 1.000000 0.734375
vt 0.531250 0.734375
vt 0.453125 0.890625
vt 0.546875 0.890625
vt 0.546875 0.984375
vt 0.453125 0.984375
vt 0.000000 0.750000
vt 0.250000 0.750000
vt 0.250000 1.000000
vt 0.000000 1.000000
s 1
usemtl m_dc93cd3a-0b28-89b8-2b5e-d6a354e89186
f 36/29/25 39/30/25 37/31/25 34/32/25
f 35/29/26 36/30/26 34/31/26 33/32/26
f 40/29/27 35/30/27 33/31/27 38/32/27
f 39/29/28 40/30/28 38/31/28 37/32/28
f 38/33/29 33/34/29 34/35/29 37/36/29
f 39/37/30 36/38/30 35/39/30 40/40/30
o pillar
v 0.578918 0.804569 0.590139
v 0.587654 0.809751 0.557182
v 0.526240 0.418633 0.515496
v 0.534977 0.423815 0.482539
v 0.554608 0.815772 0.549369
v 0.545872 0.810591 0.582326
v 0.501931 0.429837 0.474726
v 0.493194 0.424655 0.507683
vn 0.2533 0.1503 -0.9556
vn 0.9582 -0.1746 0.2266
vn -0.2533 -0.1503 0.9556
vn -0.9582 0.1746 -0.2266
vn 0.1328 0.9731 0.1882
vn -0.1328 -0.9731 -0.1882
vt 0.031250 0.125000
vt 0.031250 0.015625
vt 0.984375 0.015625
vt 0.984375 0.125000
vt 0.000000 0.937500
vt 0.062500 0.937500
vt 0.062500 1.000000
vt 0.000000 1.000000
s 1
usemtl m_dc93cd3a-0b28-89b8-2b5e-d6a354e89186
f 44/41/31 47/42/31 45/43/31 42/44/31
f 43/41/32 44/42/32 42/43/32 41/44/32
f 48/41/33 43/42/33 41/43/33 46/44/33
f 47/41/34 48/42/34 46/43/34 45/44/34
usemtl none
f 46/45/35 41/46/35 42/47/35 45/48/35
f 47/45/36 44/46/36 43/47/36 48/48/36
o power_box
v 0.557750 0.377359 0.569236
v 0.591604 0.397438 0.441526
v 0.525686 0.142441 0.523801
v 0.559539 0.162520 0.396092
v 0.463550 0.420772 0.411250
v 0.429696 0.400693 0.538960
v 0.431485 0.185855 0.365815
v 0.397632 0.165775 0.493525
vn 0.2533 0.1503 -0.9556
vn 0.9582 -0.1746 0.2266
vn -0.2533 -0.1503 0.9556
vn -0.9582 0.1746 -0.2266
vn 0.1328 0.9731 0.1882
vn -0.1328 -0.9731 -0.1882
vt 0.265625 0.156250
vt 0.515625 0.156250
vt 0.515625 0.609375
vt 0.265625 0.609375
vt 0.000000 0.171875
vt 0.250000 0.171875
vt 0.250000 0.625000
vt 0.000000 0.625000
vt 0.515625 0.859375
vt 0.265625 0.859375
vt 0.000000 0.750000
vt 0.250000 0.750000
vt 0.250000 1.000000
vt 0.000000 1.000000
s 1
usemtl m_dc93cd3a-0b28-89b8-2b5e-d6a354e89186
f 52/49/37 55/50/37 53/51/37 50/52/37
f 51/53/38 52/54/38 50/55/38 49/56/38
f 56/53/39 51/54/39 49/55/39 54/56/39
f 55/53/40 56/54/40 54/55/40 53/56/40
f 54/52/41 49/51/41 50/57/41 53/58/41
f 55/59/42 52/60/42 51/61/42 56/62/42
o rim0
v 0.494339 0.433045 0.509306
v 0.505260 0.439522 0.468109
v 0.493194 0.424655 0.507683
v 0.504115 0.431132 0.466487
v 0.496998 0.441027 0.466156
v 0.486078 0.434550 0.507352
v 0.495853 0.432638 0.464533
v 0.484933 0.426160 0.505730
vn 0.2533 0.1503 -0.9556
vn 0.9582 -0.1746 0.2266
vn -0.2533 -0.1503 0.9556
vn -0.9582 0.1746 -0.2266
vn 0.1328 0.9731 0.1882
vn -0.1328 -0.9731 -0.1882
vt 0.265625 0.890625
vt 0.281250 0.890625
vt 0.281250 0.906250
vt 0.265625 0.906250
vt 0.000000 0.984375
vt 0.062500 0.984375
vt 0.062500 1.000000
vt 0.000000 1.000000
vt 0.328125 0.890625
vt 0.328125 0.906250
vt 0.000000 0.937500
vt 0.015625 0.937500
vt 0.015625 1.000000
s 1
usemtl m_dc93cd3a-0b28-89b8-2b5e-d6a354e89186
f 60/63/43 63/64/43 61/65/43 58/66/43
f 64/63/45 59/64/45 57/65/45 62/66/45
f 63/63/46 64/71/46 62/72/46 61/66/46
f 62/73/47 57/74/47 58/75/47 61/70/47
usemtl none
f 59/67/44 60/68/44 58/69/44 57/70/44
f 63/73/48 60/74/48 59/75/48 64/70/48
o rim1
v 0.544384 0.430699 0.486115
v 0.546568 0.431995 0.477876
v 0.543238 0.422310 0.484492
v 0.545423 0.423605 0.476253
v 0.505260 0.439522 0.468109
v 0.503076 0.438227 0.476348
v 0.504115 0.431132 0.466487
v 0.501931 0.429837 0.474726
vn 0.2533 0.1503 -0.9556
vn 0.9582 -0.1746 0.2266
vn -0.2533 -0.1503 0.9556
vn -0.9582 0.1746 -0.2266
vn 0.1328 0.9731 0.1882
vn -0.1328 -0.9731 -0.1882
vt 0.265625 0.890625
vt 0.328125 0.890625
vt 0.328125 0.906250
vt 0.265625 0.906250
vt 0.281250 0.890625
vt 0.281250 0.906250
vt 0.000000 0.984375
vt 0.062500 0.984375
vt 0.062500 1.000000
vt 0.000000 1.000000
vt 0.015625 0.937500
vt 0.015625 1.000000
vt 0.000000 0.937500
s 1
usemtl m_dc93cd3a-0b28-89b8-2b5e-d6a354e89186
f 68/76/49 71/77/49 69/78/49 66/79/49
f 67/76/50 68/80/50 66/81/50 65/79/50
f 71/76/52 72/80/52 70/81/52 69/79/52
f 70/86/53 65/87/53 66/85/53 69/88/53
usemtl none
f 72/82/51 67/83/51 65/84/51 70/85/51
f 71/85/54 68/88/54 67/86/54 72/87/54
o rim2
v 0.525201 0.425728 0.525358
v 0.527386 0.427023 0.517119
v 0.524056 0.417338 0.523736
v 0.526240 0.418633 0.515496
v 0.486078 0.434550 0.507352
v 0.483894 0.433255 0.515592
v 0.484933 0.426160 0.505730
v 0.482749 0.424865 0.513969
vn 0.2533 0.1503 -0.9556
vn 0.9582 -0.1746 0.2266
vn -0.2533 -0.1503 0.9556
vn -0.9582 0.1746 -0.2266
vn 0.1328 0.9731 0.1882
vn -0.1328 -0.9731 -0.1882
vt 0.000000 0.984375
vt 0.062500 0.984375
vt 0.062500 1.000000
vt 0.000000 1.000000
vt 0.265625 0.890625
vt 0.281250 0.890625
vt 0.281250 0.906250
vt 0.265625 0.906250
vt 0.328125 0.890625
vt 0.328125 0.906250
vt 0.000000 0.937500
vt 0.015625 0.937500
vt 0.015625 1.000000
s 1
usemtl none
f 76/89/55 79/90/55 77/91/55 74/92/55
f 79/100/60 76/101/60 75/92/60 80/99/60
usemtl m_dc93cd3a-0b28-89b8-2b5e-d6a354e89186
f 75/93/56 76/94/56 74/95/56 73/96/56
f 80/93/57 75/97/57 73/98/57 78/96/57
f 79/93/58 80/94/58 78/95/58 77/96/58
f 78/92/59 73/99/59 74/100/59 77/101/59
o rim3
v 0.533463 0.424222 0.527312
v 0.544384 0.430699 0.486115
v 0.532318 0.415832 0.525689
v 0.543238 0.422310 0.484492
v 0.536122 0.432205 0.484162
v 0.525201 0.425728 0.525358
v 0.534977 0.423815 0.482539
v 0.524056 0.417338 0.523736
vn 0.2533 0.1503 -0.9556
vn 0.9582 -0.1746 0.2266
vn -0.2533 -0.1503 0.9556
vn -0.9582 0.1746 -0.2266
vn 0.1328 0.9731 0.1882
vn -0.1328 -0.9731 -0.1882
vt 0.265625 0.890625
vt 0.281250 0.890625
vt 0.281250 0.906250
vt 0.265625 0.906250
vt 0.328125 0.890625
vt 0.328125 0.906250
vt 0.000000 0.984375
vt 0.062500 0.984375
vt 0.062500 1.000000
vt 0.000000 1.000000
vt 0.015625 1.000000
vt 0.000000 0.937500
vt 0.015625 0.937500
s 1
usemtl m_dc93cd3a-0b28-89b8-2b5e-d6a354e89186
f 84/102/61 87/103/61 85/104/61 82/105/61
f 83/102/62 84/106/62 82/107/62 81/105/62
f 88/102/63 83/103/63 81/104/63 86/105/63
f 86/112/65 81/111/65 82/113/65 85/114/65
usemtl none
f 87/108/64 88/109/64 86/110/64 85/111/64
f 87/112/66 84/111/66 83/113/66 88/114/66
o stem_base
v 0.544473 0.410231 0.546074
v 0.566314 0.423185 0.463681
v 0.543328 0.401841 0.544452
v 0.565169 0.414795 0.462058
v 0.483698 0.438239 0.444148
v 0.461857 0.425285 0.526541
v 0.482553 0.429849 0.442525
v 0.460712 0.416895 0.524918
vn 0.2533 0.1503 -0.9556
vn 0.9582 -0.1746 0.2266
vn -0.2533 -0.1503 0.9556
vn -0.9582 0.1746 -0.2266
vn 0.1328 0.9731 0.1882
vn -0.1328 -0.9731 -0.1882
vt 0.000000 0.984375
vt 0.156250 0.984375
vt 0.156250 1.000000
vt 0.000000 1.000000
vt 0.546875 0.750000
vt 0.796875 0.750000
vt 0.796875 1.000000
vt 0.546875 1.000000
vt 0.000000 0.843750
vt 0.156250 0.843750
s 1
usemtl m_dc93cd3a-0b28-89b8-2b5e-d6a354e89186
f 92/115/67 95/116/67 93/117/67 90/118/67
f 91/115/68 92/116/68 90/117/68 89/118/68
f 96/115/69 91/116/69 89/117/69 94/118/69
f 95/115/70 96/116/70 94/117/70 93/118/70
f 94/119/71 89/120/71 90/121/71 93/122/71
usemtl none
f 95/123/72 92/124/72 91/117/72 96/118/72
o stem_ground_base
v 0.549405 0.399040 0.554644
v 0.575614 0.414585 0.455772
v 0.547115 0.382260 0.551399
v 0.573324 0.397805 0.452527
v 0.476476 0.432650 0.432333
v 0.450266 0.417105 0.531205
v 0.474185 0.415870 0.429087
v 0.447976 0.400325 0.527959
vn 0.2533 0.1503 -0.9556
vn 0.9582 -0.1746 0.2266
vn -0.2533 -0.1503 0.9556
vn -0.9582 0.1746 -0.2266
vn 0.1328 0.9731 0.1882
vn -0.1328 -0.9731 -0.1882
vt 0.000000 0.953125
vt 0.250000 0.953125
vt 0.250000 1.000000
vt 0.000000 1.000000
vt 0.046875 0.546875
vt 0.062500 0.546875
vt 0.062500 0.562500
vt 0.046875 0.562500
vt 0.265625 0.609375
vt 0.515625 0.609375
vt 0.515625 0.859375
vt 0.265625 0.859375
s 1
usemtl m_dc93cd3a-0b28-89b8-2b5e-d6a354e89186
f 100/125/73 103/126/73 101/127/73 98/128/73
f 99/125/74 100/126/74 98/127/74 97/128/74
f 104/125/75 99/126/75 97/127/75 102/128/75
f 103/125/76 104/126/76 102/127/76 101/128/76
f 102/129/77 97/130/77 98/131/77 101/132/77
f 103/133/78 100/134/78 99/135/78 104/136/78
o top0
v 0.600807 0.870281 0.624317
v 0.618279 0.880645 0.558403
v 0.599661 0.861892 0.622694
v 0.617134 0.872255 0.556780
v 0.552187 0.892688 0.542776
v 0.534714 0.882325 0.608691
v 0.551042 0.884298 0.541153
v 0.533569 0.873935 0.607068
vn 0.2533 0.1503 -0.9556
vn 0.9582 -0.1746 0.2266
vn -0.2533 -0.1503 0.9556
vn -0.9582 0.1746 -0.2266
vn 0.1328 0.9731 0.1882
vn -0.1328 -0.9731 -0.1882
vt 0.546875 0.734375
vt 0.984375 0.734375
vt 0.984375 0.656250
vt 0.546875 0.656250
vt 0.562500 0.765625
vt 0.781250 0.765625
vt 0.781250 0.984375
vt 0.562500 0.984375
vt 0.546875 0.750000
vt 0.796875 0.750000
vt 0.796875 1.000000
vt 0.546875 1.000000
s 1
usemtl m_dc93cd3a-0b28-89b8-2b5e-d6a354e89186
f 108/137/79 111/138/79 109/139/79 106/140/79
f 107/137/80 108/138/80 106/139/80 105/140/80
f 112/137/81 107/138/81 105/139/81 110/140/81
f 111/137/82 112/138/82 110/139/82 109/140/82
f 110/141/83 105/142/83 106/143/83 109/144/83
f 111/145/84 108/146/84 107/147/84 112/148/84
o top1
v 0.595874 0.881472 0.615747
v 0.608979 0.889245 0.566311
v 0.594729 0.873082 0.614125
v 0.607834 0.880855 0.564689
v 0.559410 0.898277 0.554591
v 0.546305 0.890505 0.604027
v 0.558264 0.889887 0.552969
v 0.545160 0.882115 0.602405
vn 0.2533 0.1503 -0.9556
vn 0.9582 -0.1746 0.2266
vn -0.2533 -0.1503 0.9556
vn -0.9582 0.1746 -0.2266
vn 0.1328 0.9731 0.1882
vn -0.1328 -0.9731 -0.1882
vt 0.546875 0.734375
vt 0.984375 0.734375
vt 0.984375 0.656250
vt 0.546875 0.656250
vt 0.562500 0.765625
vt 0.781250 0.765625
vt 0.781250 0.984375
vt 0.562500 0.984375
vt 0.546875 0.750000
vt 0.796875 0.750000
vt 0.796875 1.000000
vt 0.546875 1.000000
s 1
usemtl m_dc93cd3a-0b28-89b8-2b5e-d6a354e89186
f 116/149/85 119/150/85 117/151/85 114/152/85
f 115/149/86 116/150/86 114/151/86 113/152/86
f 120/149/87 115/150/87 113/151/87 118/152/87
f 119/149/88 120/150/88 118/151/88 117/152/88
f 118/153/89 113/154/89 114/155/89 117/156/89
f 119/157/90 116/158/90 115/159/90 120/160/90
o top2
v 0.590942 0.892663 0.607177
v 0.599678 0.897845 0.574220
v 0.589797 0.884273 0.605555
v 0.598533 0.889455 0.572597
v 0.566632 0.903866 0.566407
v 0.557896 0.898685 0.599364
v 0.565487 0.895477 0.564784
v 0.556751 0.890295 0.597741
vn 0.2533 0.1503 -0.9556
vn 0.9582 -0.1746 0.2266
vn -0.2533 -0.1503 0.9556
vn -0.9582 0.1746 -0.2266
vn 0.1328 0.9731 0.1882
vn -0.1328 -0.9731 -0.1882
vt 0.546875 0.734375
vt 0.984375 0.734375
vt 0.984375 0.656250
vt 0.546875 0.656250
vt 0.562500 0.765625
vt 0.781250 0.765625
vt 0.781250 0.984375
vt 0.562500 0.984375
vt 0.546875 0.750000
vt 0.796875 0.750000
vt 0.796875 1.000000
vt 0.546875 1.000000
s 1
usemtl m_dc93cd3a-0b28-89b8-2b5e-d6a354e89186
f 124/161/91 127/162/91 125/163/91 122/164/91
f 123/161/92 124/162/92 122/163/92 121/164/92
f 128/161/93 123/162/93 121/163/93 126/164/93
f 127/161/94 128/162/94 126/163/94 125/164/94
f 126/165/95 121/166/95 122/167/95 125/168/95
f 127/169/96 124/170/96 123/171/96 128/172/96
o wire0
v 0.500418 0.159126 0.386652
v 0.502602 0.160421 0.378413
v 0.498700 0.146541 0.384218
v 0.500884 0.147836 0.375979
v 0.486079 0.163432 0.374506
v 0.483895 0.162136 0.382746
v 0.484361 0.150847 0.372072
v 0.482177 0.149552 0.380312
vn 0.2533 0.1503 -0.9556
vn 0.9582 -0.1746 0.2266
vn -0.2533 -0.1503 0.9556
vn -0.9582 0.1746 -0.2266
vn 0.1328 0.9731 0.1882
vn -0.1328 -0.9731 -0.1882
vt 0.265625 0.937500
vt 0.312500 0.937500
vt 0.312500 1.000000
vt 0.265625 1.000000
vt 0.312500 0.921875
vt 0.265625 0.921875
vt 0.000000 0.976562
vt 0.031250 0.976562
vt 0.031250 1.000000
vt 0.000000 1.000000
vt 0.265625 0.890625
vt 0.328125 0.890625
vt 0.328125 0.906250
vt 0.265625 0.906250
vt 0.265625 0.875000
vt 0.328125 0.875000
s 1
usemtl m_dc93cd3a-0b28-89b8-2b5e-d6a354e89186
f 132/173/97 135/174/97 133/175/97 130/176/97
f 131/177/98 132/174/98 130/173/98 129/178/98
f 135/177/100 136/174/100 134/173/100 133/178/100
f 134/183/101 129/184/101 130/185/101 133/186/101
f 135/187/102 132/188/102 131/184/102 136/183/102
usemtl none
f 136/179/99 131/180/99 129/181/99 134/182/99
o wire1
v 0.453317 0.144000 0.498096
v 0.451133 0.142705 0.506336
v 0.451600 0.131416 0.495662
v 0.449416 0.130120 0.503902
v 0.467656 0.139694 0.510242
v 0.469841 0.140990 0.502003
v 0.465939 0.127109 0.507808
v 0.468123 0.128405 0.499569
vn -0.2533 -0.1503 0.9556
vn -0.9582 0.1746 -0.2266
vn 0.2533 0.1503 -0.9556
vn 0.9582 -0.1746 0.2266
vn 0.1328 0.9731 0.1882
vn -0.1328 -0.9731 -0.1882
vt 0.265625 0.937500
vt 0.312500 0.937500
vt 0.312500 1.000000
vt 0.265625 1.000000
vt 0.312500 0.921875
vt 0.265625 0.921875
vt 0.000000 0.976562
vt 0.031250 0.976562
vt 0.031250 1.000000
vt 0.000000 1.000000
vt 0.265625 0.890625
vt 0.328125 0.890625
vt 0.328125 0.906250
vt 0.265625 0.906250
vt 0.265625 0.875000
vt 0.328125 0.875000
s 1
usemtl m_dc93cd3a-0b28-89b8-2b5e-d6a354e89186
f 140/189/103 143/190/103 141/191/103 138/192/103
f 139/193/104 140/190/104 138/189/104 137/194/104
f 143/193/106 144/190/106 142/189/106 141/194/106
f 142/199/107 137/200/107 138/201/107 141/202/107
f 143/203/108 140/204/108 139/200/108 144/199/108
usemtl none
f 144/195/105 139/196/105 137/197/105 142/198/105
o wire_box
v 0.521128 0.144542 0.516157
v 0.551705 0.162678 0.400806
v 0.517692 0.119372 0.511289
v 0.548270 0.137508 0.395938
v 0.436043 0.183754 0.373460
v 0.405466 0.165618 0.488810
v 0.432608 0.158584 0.368592
v 0.402030 0.140448 0.483942
vn 0.2533 0.1503 -0.9556
vn 0.9582 -0.1746 0.2266
vn -0.2533 -0.1503 0.9556
vn -0.9582 0.1746 -0.2266
vn 0.1328 0.9731 0.1882
vn -0.1328 -0.9731 -0.1882
vt 0.000000 0.640625
vt 0.250000 0.640625
vt 0.250000 0.687500
vt 0.000000 0.687500
vt 0.250000 0.734375
vt 0.000000 0.734375
vt 0.000000 0.750000
vt 0.250000 0.750000
vt 0.250000 1.000000
vt 0.000000 1.000000
s 1
usemtl m_dc93cd3a-0b28-89b8-2b5e-d6a354e89186
f 148/205/109 151/206/109 149/207/109 146/208/109
f 147/208/110 148/207/110 146/209/110 145/210/110
f 152/205/111 147/206/111 145/207/111 150/208/111
f 151/208/112 152/207/112 150/209/112 149/210/112
f 151/211/114 148/212/114 147/213/114 152/214/114
usemtl none
f 150/211/113 145/212/113 146/213/113 149/214/113
