# Blender 5.1.0
# www.blender.org
mtllib inventory.mtl
o back_cutout_wall
v 0.826184 0.765876 0.484066
v 0.496298 0.821349 0.254316
v 0.837180 0.375424 0.374003
v 0.507294 0.430898 0.144253
vn 0.5818 0.2358 -0.7784
vt 0.000000 0.500000
vt 0.500000 0.500000
vt 0.500000 1.000000
vt 0.000000 1.000000
s 1
usemtl m_1eb71f20-f142-4fac-88ae-03e62d65592e
f 3/1/1 4/2/1 2/3/1 1/4/1
o baseplate
v 0.830322 0.375192 0.519740
v 0.375307 0.451707 0.202844
v 0.833482 0.262994 0.488113
v 0.378467 0.339509 0.171217
v 0.158207 0.363712 0.493320
v 0.613222 0.287197 0.810216
v 0.161367 0.251513 0.461693
v 0.616382 0.174998 0.778589
vn -0.8129 0.1367 -0.5661
vn 0.5818 0.2358 -0.7784
vn 0.8129 -0.1367 0.5661
vn -0.5818 -0.2358 0.7784
vn -0.0271 0.9621 0.2712
vn 0.0271 -0.9621 -0.2712
vt 0.250000 0.343750
vt 0.750000 0.343750
vt 0.750000 0.500000
vt 0.250000 0.500000
vt 0.781250 1.000000
vt 0.781250 0.625000
vt 0.859375 0.625000
vt 0.859375 1.000000
vt 0.500000 0.515625
vt 0.750000 0.515625
vt 0.750000 0.593750
vt 0.500000 0.593750
vt 0.000000 0.125000
vt 0.250000 0.125000
vt 0.000000 0.500000
s 1
usemtl m_1eb71f20-f142-4fac-88ae-03e62d65592e
f 8/5/2 11/6/2 9/7/2 6/8/2
f 7/9/3 8/10/3 6/11/3 5/12/3
f 12/13/4 7/14/4 5/15/4 10/16/4
f 11/9/5 12/10/5 10/11/5 9/12/5
f 10/17/6 5/18/6 6/8/6 9/19/6
f 11/17/7 8/18/7 7/8/7 12/19/7
o coupler0
v 0.780249 0.691532 0.338450
v 0.628577 0.717037 0.232818
v 0.790360 0.332497 0.237243
v 0.638688 0.358001 0.131611
v 0.587871 0.700538 0.287283
v 0.739543 0.675033 0.392915
v 0.597982 0.341502 0.186075
v 0.749654 0.315997 0.291707
vn -0.8129 0.1367 -0.5661
vn 0.5818 0.2358 -0.7784
vn 0.8129 -0.1367 0.5661
vn -0.5818 -0.2358 0.7784
vn -0.0271 0.9621 0.2712
vn 0.0271 -0.9621 -0.2712
vt 0.625000 0.593750
vt 0.656250 0.593750
vt 0.656250 0.843750
vt 0.625000 0.843750
vt 0.500000 0.593750
vt 0.500000 0.843750
vt 0.781250 0.593750
vt 0.781250 0.843750
vt 0.625000 0.718750
vt 0.656250 0.718750
s 1
usemtl m_1eb71f20-f142-4fac-88ae-03e62d65592e
f 16/20/8 19/21/8 17/22/8 14/23/8
f 15/24/9 16/20/9 14/23/9 13/25/9
f 20/20/10 15/21/10 13/22/10 18/23/10
f 19/21/11 20/26/11 18/27/11 17/22/11
f 18/28/12 13/29/12 14/22/12 17/23/12
f 19/20/13 16/21/13 15/29/13 20/28/13
o coupler1
v 0.194377 0.541046 0.813771
v 0.346049 0.515541 0.919403
v 0.204489 0.182010 0.712563
v 0.356160 0.156505 0.818195
v 0.386755 0.532040 0.864938
v 0.235084 0.557545 0.759306
v 0.396867 0.173004 0.763731
v 0.245195 0.198509 0.658099
vn 0.8129 -0.1367 0.5661
vn -0.5818 -0.2358 0.7784
vn -0.8129 0.1367 -0.5661
vn 0.5818 0.2358 -0.7784
vn -0.0271 0.9621 0.2712
vn 0.0271 -0.9621 -0.2712
vt 0.625000 0.593750
vt 0.656250 0.593750
vt 0.656250 0.843750
vt 0.625000 0.843750
vt 0.500000 0.593750
vt 0.500000 0.843750
vt 0.781250 0.593750
vt 0.781250 0.843750
vt 0.625000 0.718750
vt 0.656250 0.718750
s 1
usemtl m_1eb71f20-f142-4fac-88ae-03e62d65592e
f 24/30/14 27/31/14 25/32/14 22/33/14
f 23/34/15 24/30/15 22/33/15 21/35/15
f 28/30/16 23/31/16 21/32/16 26/33/16
f 27/31/17 28/36/17 26/37/17 25/32/17
f 26/38/18 21/39/18 22/32/18 25/33/18
f 27/30/19 24/31/19 23/39/19 28/38/19
o dial0
v 0.342412 0.393118 0.235415
v 0.343044 0.370679 0.229089
v 0.328843 0.387619 0.253570
v 0.329475 0.365179 0.247244
vn -0.8129 0.1367 -0.5661
vt 0.929688 0.929688
vt 1.000000 0.929688
vt 1.000000 1.000000
vt 0.929688 1.000000
s 1
usemtl m_1eb71f20-f142-4fac-88ae-03e62d65592e
f 30/40/20 32/41/20 31/42/20 29/43/20
o dial1
v 0.322059 0.384869 0.262647
v 0.322691 0.362429 0.256322
v 0.308490 0.379369 0.280802
v 0.309122 0.356929 0.274476
vn -0.8129 0.1367 -0.5661
vt 0.929688 0.859375
vt 1.000000 0.859375
vt 1.000000 0.929688
vt 0.929688 0.929688
s 1
usemtl m_1eb71f20-f142-4fac-88ae-03e62d65592e
f 34/44/21 36/45/21 35/46/21 33/47/21
o front_cutout_wall
v 0.185864 0.621840 0.742306
v 0.432520 0.580362 0.914091
v 0.194086 0.329899 0.660012
v 0.440742 0.288422 0.831796
vn -0.5818 -0.2358 0.7784
vt 0.000000 0.500000
vt 0.500000 0.500000
vt 0.500000 1.000000
vt 0.000000 1.000000
s 1
usemtl m_1eb71f20-f142-4fac-88ae-03e62d65592e
f 39/48/22 40/49/22 38/50/22 37/51/22
o main_body_ring_0
v 0.575109 0.829677 0.317242
v 0.744771 0.801146 0.435404
v 0.574402 0.854778 0.324317
v 0.744064 0.826248 0.442479
v 0.731317 0.795693 0.453406
v 0.561654 0.824223 0.335244
v 0.730610 0.820794 0.460482
v 0.560947 0.849324 0.342320
vn 0.8129 -0.1367 0.5661
vn 0.5818 0.2358 -0.7784
vn -0.8129 0.1367 -0.5661
vn -0.5818 -0.2358 0.7784
vn -0.0271 0.9621 0.2712
vt 0.500000 0.875000
vt 0.500000 0.843750
vt 0.531250 0.843750
vt 0.531250 0.875000
vt 0.750000 0.843750
vt 0.750000 0.875000
vt 0.718750 0.875000
vt 0.718750 0.843750
s 1
usemtl m_1eb71f20-f142-4fac-88ae-03e62d65592e
f 44/52/23 47/53/23 45/54/23 42/55/23
f 43/53/24 44/56/24 42/57/24 41/52/24
f 48/58/25 43/59/25 41/56/25 46/57/25
f 47/53/26 48/56/26 46/57/26 45/52/26
f 47/52/27 44/53/27 43/56/27 48/57/27
o main_body_ring_1
v 0.473927 0.712685 0.206178
v 0.589898 0.834507 0.329758
v 0.458431 0.732956 0.200738
v 0.574402 0.854778 0.324318
v 0.576443 0.829053 0.347760
v 0.460472 0.707232 0.224181
v 0.560947 0.849324 0.342320
v 0.444976 0.727503 0.218740
vn 0.5556 0.5837 0.5921
vn 0.5818 0.2358 -0.7784
vn -0.5556 -0.5837 -0.5921
vn -0.5818 -0.2358 0.7784
vn -0.5940 0.7770 -0.2085
vt 0.500000 0.875000
vt 0.500000 0.843750
vt 0.531250 0.843750
vt 0.531250 0.875000
vt 0.750000 0.843750
vt 0.750000 0.875000
vt 0.718750 0.875000
vt 0.718750 0.843750
s 1
usemtl m_1eb71f20-f142-4fac-88ae-03e62d65592e
f 52/60/28 55/61/28 53/62/28 50/63/28
f 51/61/29 52/64/29 50/65/29 49/60/29
f 56/66/30 51/67/30 49/64/30 54/65/30
f 55/61/31 56/64/31 54/65/31 53/60/31
f 55/60/32 52/61/32 51/64/32 56/65/32
o main_body_ring_2
v 0.485294 0.528578 0.158901
v 0.479639 0.729390 0.215508
v 0.464086 0.532145 0.144131
v 0.458431 0.732956 0.200738
v 0.466184 0.723937 0.233510
v 0.471839 0.523125 0.176904
v 0.444976 0.727503 0.218740
v 0.450631 0.526691 0.162133
vn -0.0271 0.9621 0.2712
vn 0.5818 0.2358 -0.7784
vn 0.0271 -0.9621 -0.2712
vn -0.5818 -0.2358 0.7784
vn -0.8129 0.1367 -0.5661
vt 0.500000 0.875000
vt 0.500000 0.843750
vt 0.531250 0.843750
vt 0.531250 0.875000
vt 0.750000 0.843750
vt 0.750000 0.875000
vt 0.718750 0.875000
vt 0.718750 0.843750
s 1
usemtl m_1eb71f20-f142-4fac-88ae-03e62d65592e
f 60/68/33 63/69/33 61/70/33 58/71/33
f 59/69/34 60/72/34 58/73/34 57/68/34
f 64/74/35 59/75/35 57/72/35 62/73/35
f 63/69/36 64/72/36 62/73/36 61/68/36
f 63/68/37 60/69/37 59/72/37 64/73/37
o main_body_ring_3
v 0.602551 0.385203 0.203105
v 0.478583 0.547372 0.159579
v 0.588055 0.369975 0.187658
v 0.464086 0.532145 0.144131
v 0.465128 0.541919 0.177581
v 0.589096 0.379749 0.221107
v 0.450631 0.526691 0.162133
v 0.574600 0.364522 0.205660
vn -0.5940 0.7770 -0.2085
vn 0.5818 0.2358 -0.7784
vn 0.5940 -0.7770 0.2085
vn -0.5818 -0.2358 0.7784
vn -0.5556 -0.5837 -0.5921
vt 0.500000 0.875000
vt 0.500000 0.843750
vt 0.531250 0.843750
vt 0.531250 0.875000
vt 0.750000 0.843750
vt 0.750000 0.875000
vt 0.718750 0.875000
vt 0.718750 0.843750
s 1
usemtl m_1eb71f20-f142-4fac-88ae-03e62d65592e
f 68/76/38 71/77/38 69/78/38 66/79/38
f 67/77/39 68/80/39 66/81/39 65/76/39
f 72/82/40 67/83/40 65/80/40 70/81/40
f 71/77/41 72/80/41 70/81/41 69/76/41
f 71/76/42 68/77/42 67/80/42 72/81/42
o main_body_ring_4
v 0.757011 0.366546 0.312895
v 0.587348 0.395077 0.194733
v 0.757718 0.341445 0.305819
v 0.588055 0.369975 0.187658
v 0.573893 0.389623 0.212735
v 0.743556 0.361093 0.330897
v 0.574600 0.364522 0.205660
v 0.744263 0.335991 0.323822
vn -0.8129 0.1367 -0.5661
vn 0.5818 0.2358 -0.7784
vn 0.8129 -0.1367 0.5661
vn -0.5818 -0.2358 0.7784
vn 0.0271 -0.9621 -0.2712
vt 0.500000 0.875000
vt 0.500000 0.843750
vt 0.531250 0.843750
vt 0.531250 0.875000
vt 0.750000 0.843750
vt 0.750000 0.875000
vt 0.718750 0.875000
vt 0.718750 0.843750
s 1
usemtl m_1eb71f20-f142-4fac-88ae-03e62d65592e
f 76/84/43 79/85/43 77/86/43 74/87/43
f 75/85/44 76/88/44 74/89/44 73/84/44
f 80/90/45 75/91/45 73/88/45 78/89/45
f 79/85/46 80/88/46 78/89/46 77/84/46
f 79/84/47 76/85/47 75/88/47 80/89/47
o main_body_ring_5
v 0.858192 0.483537 0.423959
v 0.742221 0.361716 0.300379
v 0.873688 0.463266 0.429399
v 0.757718 0.341445 0.305819
v 0.728767 0.356263 0.318381
v 0.844738 0.478084 0.441961
v 0.744263 0.335991 0.323822
v 0.860234 0.457813 0.447401
vn -0.5556 -0.5837 -0.5921
vn 0.5818 0.2358 -0.7784
vn 0.5556 0.5837 0.5921
vn -0.5818 -0.2358 0.7784
vn 0.5940 -0.7770 0.2085
vt 0.500000 0.875000
vt 0.500000 0.843750
vt 0.531250 0.843750
vt 0.531250 0.875000
vt 0.750000 0.843750
vt 0.750000 0.875000
vt 0.718750 0.875000
vt 0.718750 0.843750
s 1
usemtl m_1eb71f20-f142-4fac-88ae-03e62d65592e
f 84/92/48 87/93/48 85/94/48 82/95/48
f 83/93/49 84/96/49 82/97/49 81/92/49
f 88/98/50 83/99/50 81/96/50 86/97/50
f 87/93/51 88/96/51 86/97/51 85/92/51
f 87/92/52 84/93/52 83/96/52 88/97/52
o main_body_ring_6
v 0.846825 0.667644 0.471236
v 0.852481 0.466833 0.414629
v 0.868033 0.664078 0.486006
v 0.873688 0.463266 0.429399
v 0.839026 0.461379 0.432631
v 0.833371 0.662191 0.489238
v 0.860234 0.457813 0.447402
v 0.854578 0.658625 0.504008
vn 0.0271 -0.9621 -0.2712
vn 0.5818 0.2358 -0.7784
vn -0.0271 0.9621 0.2712
vn -0.5818 -0.2358 0.7784
vn 0.8129 -0.1367 0.5661
vt 0.500000 0.875000
vt 0.500000 0.843750
vt 0.531250 0.843750
vt 0.531250 0.875000
vt 0.750000 0.843750
vt 0.750000 0.875000
vt 0.718750 0.875000
vt 0.718750 0.843750
s 1
usemtl m_1eb71f20-f142-4fac-88ae-03e62d65592e
f 92/100/53 95/101/53 93/102/53 90/103/53
f 91/101/54 92/104/54 90/105/54 89/100/54
f 96/106/55 91/107/55 89/104/55 94/105/55
f 95/101/56 96/104/56 94/105/56 93/100/56
f 95/100/57 92/101/57 91/104/57 96/105/57
o main_body_ring_7
v 0.729568 0.811020 0.427032
v 0.853537 0.648850 0.470558
v 0.744064 0.826247 0.442479
v 0.868033 0.664078 0.486006
v 0.840082 0.643397 0.488560
v 0.716113 0.805566 0.445034
v 0.854578 0.658625 0.504008
v 0.730610 0.820794 0.460482
vn 0.5940 -0.7770 0.2085
vn 0.5818 0.2358 -0.7784
vn -0.5940 0.7770 -0.2085
vn -0.5818 -0.2358 0.7784
vn 0.5556 0.5837 0.5921
vt 0.500000 0.875000
vt 0.500000 0.843750
vt 0.531250 0.843750
vt 0.531250 0.875000
vt 0.750000 0.843750
vt 0.750000 0.875000
vt 0.718750 0.875000
vt 0.718750 0.843750
s 1
usemtl m_1eb71f20-f142-4fac-88ae-03e62d65592e
f 100/108/58 103/109/58 101/110/58 98/111/58
f 99/109/59 100/112/59 98/113/59 97/108/59
f 104/114/60 99/115/60 97/112/60 102/113/60
f 103/109/61 104/112/61 102/113/61 101/108/61
f 103/108/62 100/109/62 99/112/62 104/113/62
o mid_cutout_wall
v 0.258675 0.725035 0.572251
v 0.588562 0.669562 0.802001
v 0.269671 0.334584 0.462188
v 0.599558 0.279110 0.691938
vn -0.5818 -0.2358 0.7784
vt 0.000000 0.500000
vt 0.500000 0.500000
vt 0.500000 1.000000
vt 0.000000 1.000000
s 1
usemtl m_1eb71f20-f142-4fac-88ae-03e62d65592e
f 107/116/63 108/117/63 106/118/63 105/119/63
o pipe0_1
v 0.665899 0.518247 0.769770
v 0.646940 0.521435 0.756566
v 0.671587 0.316289 0.712841
v 0.652628 0.319478 0.699637
v 0.633371 0.515935 0.774721
v 0.652330 0.512747 0.787925
v 0.639059 0.313978 0.717791
v 0.658018 0.310790 0.730995
vn -0.8129 0.1367 -0.5661
vn 0.5818 0.2358 -0.7784
vn 0.8129 -0.1367 0.5661
vn -0.5818 -0.2358 0.7784
vn -0.0271 0.9621 0.2712
vn 0.0271 -0.9621 -0.2712
vt 0.859375 0.625000
vt 0.921875 0.625000
vt 0.921875 1.000000
vt 0.859375 1.000000
vt 0.859375 0.937500
vt 0.921875 0.937500
vt 0.921875 0.687500
vt 0.859375 0.687500
s 1
usemtl m_1eb71f20-f142-4fac-88ae-03e62d65592e
f 112/120/64 115/121/64 113/122/64 110/123/64
f 111/120/65 112/121/65 110/122/65 109/123/65
f 116/120/66 111/121/66 109/122/66 114/123/66
f 115/120/67 116/121/67 114/122/67 113/123/67
f 114/124/68 109/125/68 110/122/68 113/123/68
f 115/120/69 112/121/69 111/126/69 116/127/69
o pipe0_2
v 0.628066 0.560206 0.755329
v 0.616364 0.545066 0.741996
v 0.665390 0.518041 0.770451
v 0.653688 0.502900 0.757118
v 0.603813 0.539979 0.758789
v 0.615515 0.555119 0.772122
v 0.641137 0.497813 0.773911
v 0.652839 0.512954 0.787244
vn -0.5018 -0.6492 -0.5717
vn 0.5818 0.2358 -0.7784
vn 0.5018 0.6492 0.5717
vn -0.5818 -0.2358 0.7784
vn -0.6401 0.7232 -0.2594
vn 0.6401 -0.7232 0.2594
vt 0.859375 0.820312
vt 0.921875 0.820312
vt 0.921875 1.000000
vt 0.859375 1.000000
vt 0.859375 0.937500
vt 0.921875 0.937500
vt 0.859375 0.625000
vt 0.921875 0.625000
vt 0.921875 0.687500
vt 0.859375 0.687500
s 1
usemtl m_1eb71f20-f142-4fac-88ae-03e62d65592e
f 120/128/70 123/129/70 121/130/70 118/131/70
f 119/128/71 120/129/71 118/130/71 117/131/71
f 124/128/72 119/129/72 117/130/72 122/131/72
f 123/128/73 124/129/73 122/130/73 121/131/73
f 122/132/74 117/133/74 118/130/74 121/131/74
f 123/134/75 120/135/75 119/136/75 124/137/75
o pipe1_0
v 0.686252 0.526497 0.742538
v 0.667293 0.529685 0.729334
v 0.691940 0.324539 0.685609
v 0.672981 0.327727 0.672405
v 0.653724 0.524185 0.747489
v 0.672683 0.520997 0.760693
v 0.659412 0.322227 0.690559
v 0.678371 0.319039 0.703763
vn -0.8129 0.1367 -0.5661
vn 0.5818 0.2358 -0.7784
vn 0.8129 -0.1367 0.5661
vn -0.5818 -0.2358 0.7784
vn -0.0271 0.9621 0.2712
vn 0.0271 -0.9621 -0.2712
vt 0.859375 0.625000
vt 0.921875 0.625000
vt 0.921875 1.000000
vt 0.859375 1.000000
vt 0.859375 0.937500
vt 0.921875 0.937500
vt 0.921875 0.687500
vt 0.859375 0.687500
s 1
usemtl m_1eb71f20-f142-4fac-88ae-03e62d65592e
f 128/138/76 131/139/76 129/140/76 126/141/76
f 127/138/77 128/139/77 126/140/77 125/141/77
f 132/138/78 127/139/78 125/140/78 130/141/78
f 131/138/79 132/139/79 130/140/79 129/141/79
f 130/142/80 125/143/80 126/140/80 129/141/80
f 131/138/81 128/139/81 127/144/81 132/145/81
o pipe1_1
v 0.648419 0.568456 0.728096
v 0.636717 0.553315 0.714763
v 0.685743 0.526290 0.743219
v 0.674041 0.511150 0.729886
v 0.624166 0.548228 0.731557
v 0.635868 0.563369 0.744890
v 0.661490 0.506063 0.746679
v 0.673192 0.521203 0.760012
vn -0.5018 -0.6492 -0.5717
vn 0.5818 0.2358 -0.7784
vn 0.5018 0.6492 0.5717
vn -0.5818 -0.2358 0.7784
vn -0.6401 0.7232 -0.2594
vn 0.6401 -0.7232 0.2594
vt 0.859375 0.820312
vt 0.921875 0.820312
vt 0.921875 1.000000
vt 0.859375 1.000000
vt 0.859375 0.937500
vt 0.921875 0.937500
vt 0.859375 0.625000
vt 0.921875 0.625000
vt 0.921875 0.687500
vt 0.859375 0.687500
s 1
usemtl m_1eb71f20-f142-4fac-88ae-03e62d65592e
f 136/146/82 139/147/82 137/148/82 134/149/82
f 135/146/83 136/147/83 134/148/83 133/149/83
f 140/146/84 135/147/84 133/148/84 138/149/84
f 139/146/85 140/147/85 138/148/85 137/149/85
f 138/150/86 133/151/86 134/148/86 137/149/86
f 139/152/87 136/153/87 135/154/87 140/155/87
o pipe2_0
v 0.706605 0.534746 0.715306
v 0.687646 0.537934 0.702102
v 0.712293 0.332789 0.658376
v 0.693334 0.335977 0.645172
v 0.674078 0.532435 0.720257
v 0.693037 0.529247 0.733461
v 0.679765 0.330477 0.663327
v 0.698724 0.327289 0.676531
vn -0.8129 0.1367 -0.5661
vn 0.5818 0.2358 -0.7784
vn 0.8129 -0.1367 0.5661
vn -0.5818 -0.2358 0.7784
vn -0.0271 0.9621 0.2712
vn 0.0271 -0.9621 -0.2712
vt 0.859375 0.625000
vt 0.921875 0.625000
vt 0.921875 1.000000
vt 0.859375 1.000000
vt 0.859375 0.937500
vt 0.921875 0.937500
vt 0.921875 0.687500
vt 0.859375 0.687500
s 1
usemtl m_1eb71f20-f142-4fac-88ae-03e62d65592e
f 144/156/88 147/157/88 145/158/88 142/159/88
f 143/156/89 144/157/89 142/158/89 141/159/89
f 148/156/90 143/157/90 141/158/90 146/159/90
f 147/156/91 148/157/91 146/158/91 145/159/91
f 146/160/92 141/161/92 142/158/92 145/159/92
f 147/156/93 144/157/93 143/162/93 148/163/93
o pipe2_1
v 0.668772 0.576706 0.700864
v 0.657070 0.561565 0.687531
v 0.706096 0.534540 0.715987
v 0.694394 0.519399 0.702654
v 0.644519 0.556478 0.704324
v 0.656221 0.571618 0.717657
v 0.681843 0.514312 0.719447
v 0.693545 0.529453 0.732780
vn -0.5018 -0.6492 -0.5717
vn 0.5818 0.2358 -0.7784
vn 0.5018 0.6492 0.5717
vn -0.5818 -0.2358 0.7784
vn -0.6401 0.7232 -0.2594
vn 0.6401 -0.7232 0.2594
vt 0.859375 0.820312
vt 0.921875 0.820312
vt 0.921875 1.000000
vt 0.859375 1.000000
vt 0.859375 0.937500
vt 0.921875 0.937500
vt 0.859375 0.625000
vt 0.921875 0.625000
vt 0.921875 0.687500
vt 0.859375 0.687500
s 1
usemtl m_1eb71f20-f142-4fac-88ae-03e62d65592e
f 152/164/94 155/165/94 153/166/94 150/167/94
f 151/164/95 152/165/95 150/166/95 149/167/95
f 156/164/96 151/165/96 149/166/96 154/167/96
f 155/164/97 156/165/97 154/166/97 153/167/97
f 154/168/98 149/169/98 150/166/98 153/167/98
f 155/170/99 152/171/99 151/172/99 156/173/99
o pipe3_0
v 0.726958 0.542996 0.688074
v 0.707999 0.546184 0.674870
v 0.732646 0.341038 0.631144
v 0.713687 0.344226 0.617940
v 0.694431 0.540684 0.693024
v 0.713390 0.537496 0.706228
v 0.700118 0.338727 0.636095
v 0.719077 0.335538 0.649299
vn -0.8129 0.1367 -0.5661
vn 0.5818 0.2358 -0.7784
vn 0.8129 -0.1367 0.5661
vn -0.5818 -0.2358 0.7784
vn -0.0271 0.9621 0.2712
vn 0.0271 -0.9621 -0.2712
vt 0.859375 0.625000
vt 0.921875 0.625000
vt 0.921875 1.000000
vt 0.859375 1.000000
vt 0.859375 0.937500
vt 0.921875 0.937500
vt 0.921875 0.687500
vt 0.859375 0.687500
s 1
usemtl m_1eb71f20-f142-4fac-88ae-03e62d65592e
f 160/174/100 163/175/100 161/176/100 158/177/100
f 159/174/101 160/175/101 158/176/101 157/177/101
f 164/174/102 159/175/102 157/176/102 162/177/102
f 163/174/103 164/175/103 162/176/103 161/177/103
f 162/178/104 157/179/104 158/176/104 161/177/104
f 163/174/105 160/175/105 159/180/105 164/181/105
o pipe3_1
v 0.689125 0.584955 0.673632
v 0.677423 0.569815 0.660299
v 0.726450 0.542790 0.688754
v 0.714747 0.527649 0.675421
v 0.664872 0.564727 0.677092
v 0.676574 0.579868 0.690425
v 0.702196 0.522562 0.692215
v 0.713898 0.537702 0.705548
vn -0.5018 -0.6492 -0.5717
vn 0.5818 0.2358 -0.7784
vn 0.5018 0.6492 0.5717
vn -0.5818 -0.2358 0.7784
vn -0.6401 0.7232 -0.2594
vn 0.6401 -0.7232 0.2594
vt 0.859375 0.820312
vt 0.921875 0.820312
vt 0.921875 1.000000
vt 0.859375 1.000000
vt 0.859375 0.937500
vt 0.921875 0.937500
vt 0.859375 0.625000
vt 0.921875 0.625000
vt 0.921875 0.687500
vt 0.859375 0.687500
s 1
usemtl m_1eb71f20-f142-4fac-88ae-03e62d65592e
f 168/182/106 171/183/106 169/184/106 166/185/106
f 167/182/107 168/183/107 166/184/107 165/185/107
f 172/182/108 167/183/108 165/184/108 170/185/108
f 171/182/109 172/183/109 170/184/109 169/185/109
f 170/186/110 165/187/110 166/184/110 169/185/110
f 171/188/111 168/189/111 167/190/111 172/191/111
o pipe4_0
v 0.747312 0.551245 0.660842
v 0.728353 0.554434 0.647637
v 0.752999 0.349288 0.603912
v 0.734040 0.352476 0.590708
v 0.714784 0.548934 0.665792
v 0.733743 0.545746 0.678996
v 0.720471 0.346976 0.608863
v 0.739430 0.343788 0.622067
vn -0.8129 0.1367 -0.5661
vn 0.5818 0.2358 -0.7784
vn 0.8129 -0.1367 0.5661
vn -0.5818 -0.2358 0.7784
vn -0.0271 0.9621 0.2712
vn 0.0271 -0.9621 -0.2712
vt 0.859375 0.625000
vt 0.921875 0.625000
vt 0.921875 1.000000
vt 0.859375 1.000000
vt 0.859375 0.937500
vt 0.921875 0.937500
vt 0.921875 0.687500
vt 0.859375 0.687500
s 1
usemtl m_1eb71f20-f142-4fac-88ae-03e62d65592e
f 176/192/112 179/193/112 177/194/112 174/195/112
f 175/192/113 176/193/113 174/194/113 173/195/113
f 180/192/114 175/193/114 173/194/114 178/195/114
f 179/192/115 180/193/115 178/194/115 177/195/115
f 178/196/116 173/197/116 174/194/116 177/195/116
f 179/192/117 176/193/117 175/198/117 180/199/117
o pipe4_1
v 0.709479 0.593205 0.646400
v 0.697776 0.578064 0.633067
v 0.746803 0.551039 0.661522
v 0.735100 0.535899 0.648189
v 0.685225 0.572977 0.649860
v 0.696927 0.588117 0.663193
v 0.722549 0.530811 0.664982
v 0.734252 0.545952 0.678316
vn -0.5018 -0.6492 -0.5717
vn 0.5818 0.2358 -0.7784
vn 0.5018 0.6492 0.5717
vn -0.5818 -0.2358 0.7784
vn -0.6401 0.7232 -0.2594
vn 0.6401 -0.7232 0.2594
vt 0.859375 0.820312
vt 0.921875 0.820312
vt 0.921875 1.000000
vt 0.859375 1.000000
vt 0.859375 0.937500
vt 0.921875 0.937500
vt 0.859375 0.625000
vt 0.921875 0.625000
vt 0.921875 0.687500
vt 0.859375 0.687500
s 1
usemtl m_1eb71f20-f142-4fac-88ae-03e62d65592e
f 184/200/118 187/201/118 185/202/118 182/203/118
f 183/200/119 184/201/119 182/202/119 181/203/119
f 188/200/120 183/201/120 181/202/120 186/203/120
f 187/200/121 188/201/121 186/202/121 185/203/121
f 186/204/122 181/205/122 182/202/122 185/203/122
f 187/206/123 184/207/123 183/208/123 188/209/123
o pipe5_0
v 0.767665 0.559495 0.633609
v 0.748706 0.562683 0.620405
v 0.773352 0.357537 0.576680
v 0.754393 0.360725 0.563476
v 0.735137 0.557183 0.638560
v 0.754096 0.553995 0.651764
v 0.740825 0.355226 0.581631
v 0.759784 0.352038 0.594835
vn -0.8129 0.1367 -0.5661
vn 0.5818 0.2358 -0.7784
vn 0.8129 -0.1367 0.5661
vn -0.5818 -0.2358 0.7784
vn -0.0271 0.9621 0.2712
vn 0.0271 -0.9621 -0.2712
vt 0.859375 0.625000
vt 0.921875 0.625000
vt 0.921875 1.000000
vt 0.859375 1.000000
vt 0.859375 0.937500
vt 0.921875 0.937500
vt 0.921875 0.687500
vt 0.859375 0.687500
s 1
usemtl m_1eb71f20-f142-4fac-88ae-03e62d65592e
f 192/210/124 195/211/124 193/212/124 190/213/124
f 191/210/125 192/211/125 190/212/125 189/213/125
f 196/210/126 191/211/126 189/212/126 194/213/126
f 195/210/127 196/211/127 194/212/127 193/213/127
f 194/214/128 189/215/128 190/212/128 193/213/128
f 195/210/129 192/211/129 191/216/129 196/217/129
o pipe5_1
v 0.729832 0.601454 0.619168
v 0.718129 0.586314 0.605835
v 0.767156 0.559289 0.634290
v 0.755453 0.544148 0.620957
v 0.705578 0.581227 0.622628
v 0.717281 0.596367 0.635961
v 0.742902 0.539061 0.637750
v 0.754605 0.554202 0.651083
vn -0.5018 -0.6492 -0.5717
vn 0.5818 0.2358 -0.7784
vn 0.5018 0.6492 0.5717
vn -0.5818 -0.2358 0.7784
vn -0.6401 0.7232 -0.2594
vn 0.6401 -0.7232 0.2594
vt 0.859375 0.820312
vt 0.921875 0.820312
vt 0.921875 1.000000
vt 0.859375 1.000000
vt 0.859375 0.937500
vt 0.921875 0.937500
vt 0.859375 0.625000
vt 0.921875 0.625000
vt 0.921875 0.687500
vt 0.859375 0.687500
s 1
usemtl m_1eb71f20-f142-4fac-88ae-03e62d65592e
f 200/218/130 203/219/130 201/220/130 198/221/130
f 199/218/131 200/219/131 198/220/131 197/221/131
f 204/218/132 199/219/132 197/220/132 202/221/132
f 203/218/133 204/219/133 202/220/133 201/221/133
f 202/222/134 197/223/134 198/220/134 201/221/134
f 203/224/135 200/225/135 199/226/135 204/227/135
o pipe6_0
v 0.788018 0.567745 0.606377
v 0.769059 0.570933 0.593173
v 0.793705 0.365787 0.549448
v 0.774746 0.368975 0.536244
v 0.755490 0.565433 0.611328
v 0.774449 0.562245 0.624532
v 0.761178 0.363475 0.554399
v 0.780137 0.360287 0.567603
vn -0.8129 0.1367 -0.5661
vn 0.5818 0.2358 -0.7784
vn 0.8129 -0.1367 0.5661
vn -0.5818 -0.2358 0.7784
vn -0.0271 0.9621 0.2712
vn 0.0271 -0.9621 -0.2712
vt 0.859375 0.625000
vt 0.921875 0.625000
vt 0.921875 1.000000
vt 0.859375 1.000000
vt 0.859375 0.937500
vt 0.921875 0.937500
vt 0.921875 0.687500
vt 0.859375 0.687500
s 1
usemtl m_1eb71f20-f142-4fac-88ae-03e62d65592e
f 208/228/136 211/229/136 209/230/136 206/231/136
f 207/228/137 208/229/137 206/230/137 205/231/137
f 212/228/138 207/229/138 205/230/138 210/231/138
f 211/228/139 212/229/139 210/230/139 209/231/139
f 210/232/140 205/233/140 206/230/140 209/231/140
f 211/228/141 208/229/141 207/234/141 212/235/141
o pipe6_1
v 0.750185 0.609704 0.591936
v 0.738482 0.594563 0.578603
v 0.787509 0.567538 0.607058
v 0.775806 0.552398 0.593725
v 0.725931 0.589476 0.595396
v 0.737634 0.604617 0.608729
v 0.763255 0.547311 0.610518
v 0.774958 0.562451 0.623851
vn -0.5018 -0.6492 -0.5717
vn 0.5818 0.2358 -0.7784
vn 0.5018 0.6492 0.5717
vn -0.5818 -0.2358 0.7784
vn -0.6401 0.7232 -0.2594
vn 0.6401 -0.7232 0.2594
vt 0.859375 0.820312
vt 0.921875 0.820312
vt 0.921875 1.000000
vt 0.859375 1.000000
vt 0.859375 0.937500
vt 0.921875 0.937500
vt 0.859375 0.625000
vt 0.921875 0.625000
vt 0.921875 0.687500
vt 0.859375 0.687500
s 1
usemtl m_1eb71f20-f142-4fac-88ae-03e62d65592e
f 216/236/142 219/237/142 217/238/142 214/239/142
f 215/236/143 216/237/143 214/238/143 213/239/143
f 220/236/144 215/237/144 213/238/144 218/239/144
f 219/236/145 220/237/145 218/238/145 217/239/145
f 218/240/146 213/241/146 214/238/146 217/239/146
f 219/242/147 216/243/147 215/244/147 220/245/147
o pipe7_0
v 0.808371 0.575994 0.579145
v 0.789412 0.579182 0.565941
v 0.814058 0.374037 0.522216
v 0.795099 0.377225 0.509012
v 0.775843 0.573683 0.584096
v 0.794802 0.570495 0.597300
v 0.781531 0.371725 0.527166
v 0.800490 0.368537 0.540370
vn -0.8129 0.1367 -0.5661
vn 0.5818 0.2358 -0.7784
vn 0.8129 -0.1367 0.5661
vn -0.5818 -0.2358 0.7784
vn -0.0271 0.9621 0.2712
vn 0.0271 -0.9621 -0.2712
vt 0.859375 0.625000
vt 0.921875 0.625000
vt 0.921875 1.000000
vt 0.859375 1.000000
vt 0.859375 0.937500
vt 0.921875 0.937500
vt 0.921875 0.687500
vt 0.859375 0.687500
s 1
usemtl m_1eb71f20-f142-4fac-88ae-03e62d65592e
f 224/246/148 227/247/148 225/248/148 222/249/148
f 223/246/149 224/247/149 222/248/149 221/249/149
f 228/246/150 223/247/150 221/248/150 226/249/150
f 227/246/151 228/247/151 226/248/151 225/249/151
f 226/250/152 221/251/152 222/248/152 225/249/152
f 227/246/153 224/247/153 223/252/153 228/253/153
o pipe7_1
v 0.770538 0.617954 0.564704
v 0.758835 0.602813 0.551371
v 0.807862 0.575788 0.579826
v 0.796160 0.560647 0.566493
v 0.746284 0.597726 0.568164
v 0.757987 0.612866 0.581497
v 0.783608 0.555560 0.583286
v 0.795311 0.570701 0.596619
vn -0.5018 -0.6492 -0.5717
vn 0.5818 0.2358 -0.7784
vn 0.5018 0.6492 0.5717
vn -0.5818 -0.2358 0.7784
vn -0.6401 0.7232 -0.2594
vn 0.6401 -0.7232 0.2594
vt 0.859375 0.820312
vt 0.921875 0.820312
vt 0.921875 1.000000
vt 0.859375 1.000000
vt 0.859375 0.937500
vt 0.921875 0.937500
vt 0.859375 0.625000
vt 0.921875 0.625000
vt 0.921875 0.687500
vt 0.859375 0.687500
s 1
usemtl m_1eb71f20-f142-4fac-88ae-03e62d65592e
f 232/254/154 235/255/154 233/256/154 230/257/154
f 231/254/155 232/255/155 230/256/155 229/257/155
f 236/254/156 231/255/156 229/256/156 234/257/156
f 235/254/157 236/255/157 234/256/157 233/257/157
f 234/258/158 229/259/158 230/256/158 233/257/158
f 235/260/159 232/261/159 231/262/159 236/263/159
o step_section_ring_0_0
v 0.288351 0.625171 0.740224
v 0.402218 0.606023 0.819527
v 0.287876 0.642018 0.744973
v 0.401744 0.622870 0.824276
v 0.366051 0.591364 0.867918
v 0.252183 0.610512 0.788615
v 0.365576 0.608210 0.872667
v 0.251709 0.627358 0.793364
vn 0.8129 -0.1367 0.5661
vn 0.5818 0.2358 -0.7784
vn -0.8129 0.1367 -0.5661
vn -0.5818 -0.2358 0.7784
vn -0.0271 0.9621 0.2712
vt 0.500000 0.875000
vt 0.500000 0.843750
vt 0.531250 0.843750
vt 0.531250 0.875000
vt 0.750000 0.843750
vt 0.750000 0.875000
vt 0.718750 0.875000
vt 0.718750 0.843750
s 1
usemtl m_1eb71f20-f142-4fac-88ae-03e62d65592e
f 240/264/160 243/265/160 241/266/160 238/267/160
f 239/265/161 240/268/161 238/269/161 237/264/161
f 244/270/162 239/271/162 237/268/162 242/269/162
f 243/265/163 244/268/163 242/269/163 241/264/163
f 243/264/164 240/265/164 239/268/164 244/269/164
o step_section_ring_0_1
v 0.220444 0.546654 0.665685
v 0.298276 0.628413 0.748624
v 0.210043 0.560258 0.662033
v 0.287876 0.642018 0.744972
v 0.262109 0.613753 0.797016
v 0.184276 0.531994 0.714076
v 0.251709 0.627358 0.793364
v 0.173876 0.545599 0.710424
vn 0.5556 0.5837 0.5921
vn 0.5818 0.2358 -0.7784
vn -0.5556 -0.5837 -0.5921
vn -0.5818 -0.2358 0.7784
vn -0.5940 0.7770 -0.2085
vt 0.500000 0.875000
vt 0.500000 0.843750
vt 0.531250 0.843750
vt 0.531250 0.875000
vt 0.750000 0.843750
vt 0.750000 0.875000
vt 0.718750 0.875000
vt 0.718750 0.843750
s 1
usemtl m_1eb71f20-f142-4fac-88ae-03e62d65592e
f 248/272/165 251/273/165 249/274/165 246/275/165
f 247/273/166 248/276/166 246/277/166 245/272/166
f 252/278/167 247/279/167 245/276/167 250/277/167
f 251/273/168 252/276/168 250/277/168 249/272/168
f 251/272/169 248/273/169 247/276/169 252/277/169
o step_section_ring_0_2
v 0.228072 0.423092 0.633955
v 0.224277 0.557865 0.671946
v 0.213839 0.425485 0.624042
v 0.210043 0.560258 0.662033
v 0.188109 0.543205 0.720337
v 0.191905 0.408432 0.682346
v 0.173876 0.545599 0.710424
v 0.177671 0.410826 0.672434
vn -0.0271 0.9621 0.2712
vn 0.5818 0.2358 -0.7784
vn 0.0271 -0.9621 -0.2712
vn -0.5818 -0.2358 0.7784
vn -0.8129 0.1367 -0.5661
vt 0.500000 0.875000
vt 0.500000 0.843750
vt 0.531250 0.843750
vt 0.531250 0.875000
vt 0.750000 0.843750
vt 0.750000 0.875000
vt 0.718750 0.875000
vt 0.718750 0.843750
s 1
usemtl m_1eb71f20-f142-4fac-88ae-03e62d65592e
f 256/280/170 259/281/170 257/282/170 254/283/170
f 255/281/171 256/284/171 254/285/171 253/280/171
f 260/286/172 255/287/172 253/284/172 258/285/172
f 259/281/173 260/284/173 258/285/173 257/280/173
f 259/280/174 256/281/174 255/284/174 260/285/174
o step_section_ring_0_3
v 0.306769 0.326867 0.663622
v 0.223568 0.435705 0.634410
v 0.297039 0.316647 0.653254
v 0.213839 0.425485 0.624042
v 0.187401 0.421046 0.682801
v 0.270601 0.312207 0.712013
v 0.177672 0.410826 0.672434
v 0.260872 0.301987 0.701646
vn -0.5940 0.7770 -0.2085
vn 0.5818 0.2358 -0.7784
vn 0.5940 -0.7770 0.2085
vn -0.5818 -0.2358 0.7784
vn -0.5556 -0.5837 -0.5921
vt 0.500000 0.875000
vt 0.500000 0.843750
vt 0.531250 0.843750
vt 0.531250 0.875000
vt 0.750000 0.843750
vt 0.750000 0.875000
vt 0.718750 0.875000
vt 0.718750 0.843750
s 1
usemtl m_1eb71f20-f142-4fac-88ae-03e62d65592e
f 264/288/175 267/289/175 265/290/175 262/291/175
f 263/289/176 264/292/176 262/293/176 261/288/176
f 268/294/177 263/295/177 261/292/177 266/293/177
f 267/289/178 268/292/178 266/293/178 265/288/178
f 267/288/179 264/289/179 263/292/179 268/293/179
o step_section_ring_0_4
v 0.410433 0.314345 0.737307
v 0.296565 0.333493 0.658003
v 0.410907 0.297499 0.732558
v 0.297039 0.316647 0.653254
v 0.260397 0.318834 0.706395
v 0.374265 0.299686 0.785698
v 0.260872 0.301987 0.701646
v 0.374740 0.282839 0.780949
vn -0.8129 0.1367 -0.5661
vn 0.5818 0.2358 -0.7784
vn 0.8129 -0.1367 0.5661
vn -0.5818 -0.2358 0.7784
vn 0.0271 -0.9621 -0.2712
vt 0.500000 0.875000
vt 0.500000 0.843750
vt 0.531250 0.843750
vt 0.531250 0.875000
vt 0.750000 0.843750
vt 0.750000 0.875000
vt 0.718750 0.875000
vt 0.718750 0.843750
s 1
usemtl m_1eb71f20-f142-4fac-88ae-03e62d65592e
f 272/296/180 275/297/180 273/298/180 270/299/180
f 271/297/181 272/300/181 270/301/181 269/296/181
f 276/302/182 271/303/182 269/300/182 274/301/182
f 275/297/183 276/300/183 274/301/183 273/296/183
f 275/296/184 272/297/184 271/300/184 276/301/184
o step_section_ring_0_5
v 0.478340 0.392863 0.811846
v 0.400507 0.311104 0.728906
v 0.488740 0.379258 0.815497
v 0.410907 0.297499 0.732558
v 0.364339 0.296444 0.777298
v 0.442172 0.378204 0.860237
v 0.374740 0.282839 0.780949
v 0.452572 0.364599 0.863889
vn -0.5556 -0.5837 -0.5921
vn 0.5818 0.2358 -0.7784
vn 0.5556 0.5837 0.5921
vn -0.5818 -0.2358 0.7784
vn 0.5940 -0.7770 0.2085
vt 0.500000 0.875000
vt 0.500000 0.843750
vt 0.531250 0.843750
vt 0.531250 0.875000
vt 0.750000 0.843750
vt 0.750000 0.875000
vt 0.718750 0.875000
vt 0.718750 0.843750
s 1
usemtl m_1eb71f20-f142-4fac-88ae-03e62d65592e
f 280/304/185 283/305/185 281/306/185 278/307/185
f 279/305/186 280/308/186 278/309/186 277/304/186
f 284/310/187 279/311/187 277/308/187 282/309/187
f 283/305/188 284/308/188 282/309/188 281/304/188
f 283/304/189 280/305/189 279/308/189 284/309/189
o step_section_ring_0_6
v 0.470711 0.516425 0.843575
v 0.474506 0.381652 0.805584
v 0.484944 0.514031 0.853488
v 0.488740 0.379258 0.815497
v 0.438339 0.366992 0.853976
v 0.434543 0.501765 0.891967
v 0.452572 0.364599 0.863889
v 0.448777 0.499372 0.901880
vn 0.0271 -0.9621 -0.2712
vn 0.5818 0.2358 -0.7784
vn -0.0271 0.9621 0.2712
vn -0.5818 -0.2358 0.7784
vn 0.8129 -0.1367 0.5661
vt 0.500000 0.875000
vt 0.500000 0.843750
vt 0.531250 0.843750
vt 0.531250 0.875000
vt 0.750000 0.843750
vt 0.750000 0.875000
vt 0.718750 0.875000
vt 0.718750 0.843750
s 1
usemtl m_1eb71f20-f142-4fac-88ae-03e62d65592e
f 288/312/190 291/313/190 289/314/190 286/315/190
f 287/313/191 288/316/191 286/317/191 285/312/191
f 292/318/192 287/319/192 285/316/192 290/317/192
f 291/313/193 292/316/193 290/317/193 289/312/193
f 291/312/194 288/313/194 287/316/194 292/317/194
o step_section_ring_0_7
v 0.392015 0.612650 0.813908
v 0.475215 0.503811 0.843121
v 0.401744 0.622870 0.824276
v 0.484944 0.514031 0.853488
v 0.439048 0.489152 0.891512
v 0.355847 0.597990 0.862300
v 0.448777 0.499372 0.901880
v 0.365576 0.608210 0.872667
vn 0.5940 -0.7770 0.2085
vn 0.5818 0.2358 -0.7784
vn -0.5940 0.7770 -0.2085
vn -0.5818 -0.2358 0.7784
vn 0.5556 0.5837 0.5921
vt 0.500000 0.875000
vt 0.500000 0.843750
vt 0.531250 0.843750
vt 0.531250 0.875000
vt 0.750000 0.843750
vt 0.750000 0.875000
vt 0.718750 0.875000
vt 0.718750 0.843750
s 1
usemtl m_1eb71f20-f142-4fac-88ae-03e62d65592e
f 296/320/195 299/321/195 297/322/195 294/323/195
f 295/321/196 296/324/196 294/325/196 293/320/196
f 300/326/197 295/327/197 293/324/197 298/325/197
f 299/321/198 300/324/198 298/325/198 297/320/198
f 299/320/199 296/321/199 295/324/199 300/325/199
o step_section_ring_1_0
v 0.326991 0.658848 0.680502
v 0.452245 0.637786 0.767736
v 0.326469 0.677380 0.685726
v 0.451724 0.656317 0.772959
v 0.407424 0.619618 0.827706
v 0.282169 0.640681 0.740473
v 0.406902 0.638150 0.832930
v 0.281648 0.659212 0.745696
vn 0.8129 -0.1367 0.5661
vn 0.5818 0.2358 -0.7784
vn -0.8129 0.1367 -0.5661
vn -0.5818 -0.2358 0.7784
vn -0.0271 0.9621 0.2712
vt 0.500000 0.875000
vt 0.500000 0.843750
vt 0.531250 0.843750
vt 0.531250 0.875000
vt 0.750000 0.843750
vt 0.750000 0.875000
vt 0.718750 0.875000
vt 0.718750 0.843750
s 1
usemtl m_1eb71f20-f142-4fac-88ae-03e62d65592e
f 304/328/200 307/329/200 305/330/200 302/331/200
f 303/329/201 304/332/201 302/333/201 301/328/201
f 308/334/202 303/335/202 301/332/202 306/333/202
f 307/329/203 308/332/203 306/333/203 305/328/203
f 307/328/204 304/329/204 303/332/204 308/333/204
o step_section_ring_1_1
v 0.252293 0.572479 0.598509
v 0.337909 0.662414 0.689742
v 0.240853 0.587444 0.594492
v 0.326469 0.677380 0.685726
v 0.293088 0.644247 0.749713
v 0.207472 0.554312 0.658480
v 0.281648 0.659212 0.745696
v 0.196031 0.569277 0.654463
vn 0.5556 0.5837 0.5921
vn 0.5818 0.2358 -0.7784
vn -0.5556 -0.5837 -0.5921
vn -0.5818 -0.2358 0.7784
vn -0.5940 0.7770 -0.2085
vt 0.500000 0.875000
vt 0.500000 0.843750
vt 0.531250 0.843750
vt 0.531250 0.875000
vt 0.750000 0.843750
vt 0.750000 0.875000
vt 0.718750 0.875000
vt 0.718750 0.843750
s 1
usemtl m_1eb71f20-f142-4fac-88ae-03e62d65592e
f 312/336/205 315/337/205 313/338/205 310/339/205
f 311/337/206 312/340/206 310/341/206 309/336/206
f 316/342/207 311/343/207 309/340/207 314/341/207
f 315/337/208 316/340/208 314/341/208 313/336/208
f 315/336/209 312/337/209 311/340/209 316/341/209
o step_section_ring_1_2
v 0.260685 0.436561 0.563607
v 0.256510 0.584812 0.605397
v 0.245028 0.439194 0.552702
v 0.240853 0.587444 0.594492
v 0.211688 0.566644 0.665367
v 0.215863 0.418394 0.623577
v 0.196031 0.569277 0.654463
v 0.200207 0.421027 0.612673
vn -0.0271 0.9621 0.2712
vn 0.5818 0.2358 -0.7784
vn 0.0271 -0.9621 -0.2712
vn -0.5818 -0.2358 0.7784
vn -0.8129 0.1367 -0.5661
vt 0.500000 0.875000
vt 0.500000 0.843750
vt 0.531250 0.843750
vt 0.531250 0.875000
vt 0.750000 0.843750
vt 0.750000 0.875000
vt 0.718750 0.875000
vt 0.718750 0.843750
s 1
usemtl m_1eb71f20-f142-4fac-88ae-03e62d65592e
f 320/344/210 323/345/210 321/346/210 318/347/210
f 319/345/211 320/348/211 318/349/211 317/344/211
f 324/350/212 319/351/212 317/348/212 322/349/212
f 323/345/213 324/348/213 322/349/213 321/344/213
f 323/344/214 320/345/214 319/348/214 324/349/214
o step_section_ring_1_3
v 0.347251 0.330714 0.596240
v 0.255730 0.450436 0.564107
v 0.336549 0.319472 0.584836
v 0.245028 0.439194 0.552702
v 0.210909 0.432269 0.624077
v 0.302429 0.312546 0.656211
v 0.200207 0.421027 0.612673
v 0.291727 0.301304 0.644807
vn -0.5940 0.7770 -0.2085
vn 0.5818 0.2358 -0.7784
vn 0.5940 -0.7770 0.2085
vn -0.5818 -0.2358 0.7784
vn -0.5556 -0.5837 -0.5921
vt 0.500000 0.875000
vt 0.500000 0.843750
vt 0.531250 0.843750
vt 0.531250 0.875000
vt 0.750000 0.843750
vt 0.750000 0.875000
vt 0.718750 0.875000
vt 0.718750 0.843750
s 1
usemtl m_1eb71f20-f142-4fac-88ae-03e62d65592e
f 328/352/215 331/353/215 329/354/215 326/355/215
f 327/353/216 328/356/216 326/357/216 325/352/216
f 332/358/217 327/359/217 325/356/217 330/357/217
f 331/353/218 332/356/218 330/357/218 329/352/218
f 331/352/219 328/353/219 327/356/219 332/357/219
o step_section_ring_1_4
v 0.461281 0.316940 0.677293
v 0.336027 0.338003 0.590060
v 0.461803 0.298409 0.672070
v 0.336549 0.319472 0.584836
v 0.291205 0.319836 0.650030
v 0.416460 0.298773 0.737264
v 0.291727 0.301304 0.644807
v 0.416981 0.280242 0.732040
vn -0.8129 0.1367 -0.5661
vn 0.5818 0.2358 -0.7784
vn 0.8129 -0.1367 0.5661
vn -0.5818 -0.2358 0.7784
vn 0.0271 -0.9621 -0.2712
vt 0.500000 0.875000
vt 0.500000 0.843750
vt 0.531250 0.843750
vt 0.531250 0.875000
vt 0.750000 0.843750
vt 0.750000 0.875000
vt 0.718750 0.875000
vt 0.718750 0.843750
s 1
usemtl m_1eb71f20-f142-4fac-88ae-03e62d65592e
f 336/360/220 339/361/220 337/362/220 334/363/220
f 335/361/221 336/364/221 334/365/221 333/360/221
f 340/366/222 335/367/222 333/364/222 338/365/222
f 339/361/223 340/364/223 338/365/223 337/360/223
f 339/360/224 336/361/224 335/364/224 340/365/224
o step_section_ring_1_5
v 0.535979 0.403310 0.759286
v 0.450363 0.313374 0.668053
v 0.547419 0.388344 0.763303
v 0.461803 0.298409 0.672070
v 0.405541 0.295207 0.728024
v 0.491157 0.385142 0.819257
v 0.416981 0.280242 0.732040
v 0.502597 0.370177 0.823274
vn -0.5556 -0.5837 -0.5921
vn 0.5818 0.2358 -0.7784
vn 0.5556 0.5837 0.5921
vn -0.5818 -0.2358 0.7784
vn 0.5940 -0.7770 0.2085
vt 0.500000 0.875000
vt 0.500000 0.843750
vt 0.531250 0.843750
vt 0.531250 0.875000
vt 0.750000 0.843750
vt 0.750000 0.875000
vt 0.718750 0.875000
vt 0.718750 0.843750
s 1
usemtl m_1eb71f20-f142-4fac-88ae-03e62d65592e
f 344/368/225 347/369/225 345/370/225 342/371/225
f 343/369/226 344/372/226 342/373/226 341/368/226
f 348/374/227 343/375/227 341/372/227 346/373/227
f 347/369/228 348/372/228 346/373/228 345/368/228
f 347/368/229 344/369/229 343/372/229 348/373/229
o step_section_ring_1_6
v 0.527587 0.539227 0.794189
v 0.531762 0.390977 0.752399
v 0.543244 0.536595 0.805093
v 0.547419 0.388344 0.763303
v 0.486941 0.372810 0.812369
v 0.482766 0.521060 0.854159
v 0.502598 0.370177 0.823274
v 0.498422 0.518427 0.865064
vn 0.0271 -0.9621 -0.2712
vn 0.5818 0.2358 -0.7784
vn -0.0271 0.9621 0.2712
vn -0.5818 -0.2358 0.7784
vn 0.8129 -0.1367 0.5661
vt 0.500000 0.875000
vt 0.500000 0.843750
vt 0.531250 0.843750
vt 0.531250 0.875000
vt 0.750000 0.843750
vt 0.750000 0.875000
vt 0.718750 0.875000
vt 0.718750 0.843750
s 1
usemtl m_1eb71f20-f142-4fac-88ae-03e62d65592e
f 352/376/230 355/377/230 353/378/230 350/379/230
f 351/377/231 352/380/231 350/381/231 349/376/231
f 356/382/232 351/383/232 349/380/232 354/381/232
f 355/377/233 356/380/233 354/381/233 353/376/233
f 355/376/234 352/377/234 351/380/234 356/381/234
o step_section_ring_1_7
v 0.441022 0.645075 0.761555
v 0.532542 0.525353 0.793689
v 0.451724 0.656317 0.772959
v 0.543244 0.536595 0.805093
v 0.487720 0.507185 0.853659
v 0.396200 0.626908 0.821526
v 0.498422 0.518427 0.865064
v 0.406902 0.638150 0.832930
vn 0.5940 -0.7770 0.2085
vn 0.5818 0.2358 -0.7784
vn -0.5940 0.7770 -0.2085
vn -0.5818 -0.2358 0.7784
vn 0.5556 0.5837 0.5921
vt 0.500000 0.875000
vt 0.500000 0.843750
vt 0.531250 0.843750
vt 0.531250 0.875000
vt 0.750000 0.843750
vt 0.750000 0.875000
vt 0.718750 0.875000
vt 0.718750 0.843750
s 1
usemtl m_1eb71f20-f142-4fac-88ae-03e62d65592e
f 360/384/235 363/385/235 361/386/235 358/387/235
f 359/385/236 360/388/236 358/389/236 357/384/236
f 364/390/237 359/391/237 357/388/237 362/389/237
f 363/385/238 364/388/238 362/389/238 361/384/238
f 363/384/239 360/385/239 359/388/239 364/389/239
o step_section_ring_2_0
v 0.369330 0.695826 0.615030
v 0.507110 0.672657 0.710987
v 0.368756 0.716211 0.620776
v 0.506535 0.693042 0.716733
v 0.457806 0.652673 0.776955
v 0.320026 0.675842 0.680998
v 0.457232 0.673058 0.782701
v 0.319452 0.696227 0.686744
vn 0.8129 -0.1367 0.5661
vn 0.5818 0.2358 -0.7784
vn -0.8129 0.1367 -0.5661
vn -0.5818 -0.2358 0.7784
vn -0.0271 0.9621 0.2712
vt 0.500000 0.875000
vt 0.500000 0.843750
vt 0.531250 0.843750
vt 0.531250 0.875000
vt 0.750000 0.843750
vt 0.750000 0.875000
vt 0.718750 0.875000
vt 0.718750 0.843750
s 1
usemtl m_1eb71f20-f142-4fac-88ae-03e62d65592e
f 368/392/240 371/393/240 369/394/240 366/395/240
f 367/393/241 368/396/241 366/397/241 365/392/241
f 372/398/242 367/399/242 365/396/242 370/397/242
f 371/393/243 372/396/243 370/397/243 369/392/243
f 371/392/244 368/393/244 367/396/244 372/397/244
o step_section_ring_2_1
v 0.287162 0.600820 0.524838
v 0.381340 0.699749 0.625195
v 0.274578 0.617282 0.520419
v 0.368756 0.716211 0.620776
v 0.332036 0.679765 0.691162
v 0.237858 0.580836 0.590805
v 0.319452 0.696227 0.686744
v 0.225274 0.597298 0.586387
vn 0.5556 0.5837 0.5921
vn 0.5818 0.2358 -0.7784
vn -0.5556 -0.5837 -0.5921
vn -0.5818 -0.2358 0.7784
vn -0.5940 0.7770 -0.2085
vt 0.500000 0.875000
vt 0.500000 0.843750
vt 0.531250 0.843750
vt 0.531250 0.875000
vt 0.750000 0.843750
vt 0.750000 0.875000
vt 0.718750 0.875000
vt 0.718750 0.843750
s 1
usemtl m_1eb71f20-f142-4fac-88ae-03e62d65592e
f 376/400/245 379/401/245 377/402/245 374/403/245
f 375/401/246 376/404/246 374/405/246 373/400/246
f 380/406/247 375/407/247 373/404/247 378/405/247
f 379/401/248 380/404/248 378/405/248 377/400/248
f 379/400/249 376/401/249 375/404/249 380/405/249
o step_section_ring_2_2
v 0.296393 0.451310 0.486445
v 0.291801 0.614386 0.532414
v 0.279171 0.454206 0.474450
v 0.274578 0.617282 0.520419
v 0.242497 0.594402 0.598382
v 0.247089 0.431326 0.552413
v 0.225274 0.597298 0.586387
v 0.229867 0.434222 0.540418
vn -0.0271 0.9621 0.2712
vn 0.5818 0.2358 -0.7784
vn 0.0271 -0.9621 -0.2712
vn -0.5818 -0.2358 0.7784
vn -0.8129 0.1367 -0.5661
vt 0.500000 0.875000
vt 0.500000 0.843750
vt 0.531250 0.843750
vt 0.531250 0.875000
vt 0.750000 0.843750
vt 0.750000 0.875000
vt 0.718750 0.875000
vt 0.718750 0.843750
s 1
usemtl m_1eb71f20-f142-4fac-88ae-03e62d65592e
f 384/408/250 387/409/250 385/410/250 382/411/250
f 383/409/251 384/412/251 382/413/251 381/408/251
f 388/414/252 383/415/252 381/412/252 386/413/252
f 387/409/253 388/412/253 386/413/253 385/408/253
f 387/408/254 384/409/254 383/412/254 388/413/254
o step_section_ring_2_3
v 0.391615 0.334878 0.522342
v 0.290943 0.466572 0.486995
v 0.379843 0.322512 0.509797
v 0.279171 0.454206 0.474450
v 0.241639 0.446589 0.552963
v 0.342312 0.314894 0.588310
v 0.229867 0.434222 0.540418
v 0.330539 0.302528 0.575765
vn -0.5940 0.7770 -0.2085
vn 0.5818 0.2358 -0.7784
vn 0.5940 -0.7770 0.2085
vn -0.5818 -0.2358 0.7784
vn -0.5556 -0.5837 -0.5921
vt 0.500000 0.875000
vt 0.500000 0.843750
vt 0.531250 0.843750
vt 0.531250 0.875000
vt 0.750000 0.843750
vt 0.750000 0.875000
vt 0.718750 0.875000
vt 0.718750 0.843750
s 1
usemtl m_1eb71f20-f142-4fac-88ae-03e62d65592e
f 392/416/255 395/417/255 393/418/255 390/419/255
f 391/417/256 392/420/256 390/421/256 389/416/256
f 396/422/257 391/423/257 389/420/257 394/421/257
f 395/417/258 396/420/258 394/421/258 393/416/258
f 395/416/259 392/417/259 391/420/259 396/421/259
o step_section_ring_2_4
v 0.517049 0.319727 0.611500
v 0.379269 0.342896 0.515543
v 0.517623 0.299343 0.605754
v 0.379843 0.322512 0.509797
v 0.329965 0.322912 0.581511
v 0.467745 0.299743 0.677468
v 0.330539 0.302528 0.575765
v 0.468319 0.279359 0.671722
vn -0.8129 0.1367 -0.5661
vn 0.5818 0.2358 -0.7784
vn 0.8129 -0.1367 0.5661
vn -0.5818 -0.2358 0.7784
vn 0.0271 -0.9621 -0.2712
vt 0.500000 0.875000
vt 0.500000 0.843750
vt 0.531250 0.843750
vt 0.531250 0.875000
vt 0.750000 0.843750
vt 0.750000 0.875000
vt 0.718750 0.875000
vt 0.718750 0.843750
s 1
usemtl m_1eb71f20-f142-4fac-88ae-03e62d65592e
f 400/424/260 403/425/260 401/426/260 398/427/260
f 399/425/261 400/428/261 398/429/261 397/424/261
f 404/430/262 399/431/262 397/428/262 402/429/262
f 403/425/263 404/428/263 402/429/263 401/424/263
f 403/424/264 400/425/264 399/428/264 404/429/264
o step_section_ring_2_5
v 0.599217 0.414734 0.701693
v 0.505039 0.315805 0.601336
v 0.611801 0.398272 0.706111
v 0.517623 0.299343 0.605754
v 0.455735 0.295821 0.667304
v 0.549913 0.394750 0.767660
v 0.468319 0.279359 0.671722
v 0.562497 0.378288 0.772079
vn -0.5556 -0.5837 -0.5921
vn 0.5818 0.2358 -0.7784
vn 0.5556 0.5837 0.5921
vn -0.5818 -0.2358 0.7784
vn 0.5940 -0.7770 0.2085
vt 0.500000 0.875000
vt 0.500000 0.843750
vt 0.531250 0.843750
vt 0.531250 0.875000
vt 0.750000 0.843750
vt 0.750000 0.875000
vt 0.718750 0.875000
vt 0.718750 0.843750
s 1
usemtl m_1eb71f20-f142-4fac-88ae-03e62d65592e
f 408/432/265 411/433/265 409/434/265 406/435/265
f 407/433/266 408/436/266 406/437/266 405/432/266
f 412/438/267 407/439/267 405/436/267 410/437/267
f 411/433/268 412/436/268 410/437/268 409/432/268
f 411/432/269 408/433/269 407/436/269 412/437/269
o step_section_ring_2_6
v 0.589985 0.564243 0.740085
v 0.594578 0.401168 0.694116
v 0.607208 0.561347 0.752080
v 0.611801 0.398272 0.706111
v 0.545274 0.381184 0.760084
v 0.540682 0.544259 0.806053
v 0.562497 0.378288 0.772079
v 0.557904 0.541363 0.818048
vn 0.0271 -0.9621 -0.2712
vn 0.5818 0.2358 -0.7784
vn -0.0271 0.9621 0.2712
vn -0.5818 -0.2358 0.7784
vn 0.8129 -0.1367 0.5661
vt 0.500000 0.875000
vt 0.500000 0.843750
vt 0.531250 0.843750
vt 0.531250 0.875000
vt 0.750000 0.843750
vt 0.750000 0.875000
vt 0.718750 0.875000
vt 0.718750 0.843750
s 1
usemtl m_1eb71f20-f142-4fac-88ae-03e62d65592e
f 416/440/270 419/441/270 417/442/270 414/443/270
f 415/441/271 416/444/271 414/445/271 413/440/271
f 420/446/272 415/447/272 413/444/272 418/445/272
f 419/441/273 420/444/273 418/445/273 417/440/273
f 419/440/274 416/441/274 415/444/274 420/445/274
o step_section_ring_2_7
v 0.494763 0.680676 0.704189
v 0.595436 0.548981 0.739536
v 0.506536 0.693042 0.716733
v 0.607208 0.561347 0.752080
v 0.546132 0.528997 0.805503
v 0.445460 0.660692 0.770156
v 0.557904 0.541363 0.818048
v 0.457232 0.673058 0.782701
vn 0.5940 -0.7770 0.2085
vn 0.5818 0.2358 -0.7784
vn -0.5940 0.7770 -0.2085
vn -0.5818 -0.2358 0.7784
vn 0.5556 0.5837 0.5921
vt 0.500000 0.875000
vt 0.500000 0.843750
vt 0.531250 0.843750
vt 0.531250 0.875000
vt 0.750000 0.843750
vt 0.750000 0.875000
vt 0.718750 0.875000
vt 0.718750 0.843750
s 1
usemtl m_1eb71f20-f142-4fac-88ae-03e62d65592e
f 424/448/275 427/449/275 425/450/275 422/451/275
f 423/449/276 424/452/276 422/453/276 421/448/276
f 428/454/277 423/455/277 421/452/277 426/453/277
f 427/449/278 428/452/278 426/453/278 425/448/278
f 427/448/279 424/449/279 423/452/279 428/453/279
o turbine_wall_0_0
v 0.747537 0.391170 0.312897
v 0.595865 0.416675 0.207265
v 0.748169 0.368731 0.306572
v 0.596497 0.394236 0.200940
v 0.358412 0.320430 0.524974
v 0.510084 0.294925 0.630606
v 0.359044 0.297990 0.518648
v 0.510716 0.272485 0.624280
vn -0.8129 0.1367 -0.5661
vn 0.5818 0.2358 -0.7784
vn 0.8129 -0.1367 0.5661
vn -0.5818 -0.2358 0.7784
vn 0.0271 -0.9621 -0.2712
vt 0.125000 0.882812
vt 0.398438 0.882812
vt 0.398438 0.898438
vt 0.125000 0.898438
vt 0.250000 0.898438
vt 0.250000 0.914062
vt 0.125000 0.914062
vt 0.125000 0.867188
vt 0.398438 0.867188
vt 0.375000 0.898438
vt 0.375000 0.914062
vt 0.125000 0.742188
vt 0.398438 0.742188
s 1
usemtl m_1eb71f20-f142-4fac-88ae-03e62d65592e
f 432/456/280 435/457/280 433/458/280 430/459/280
f 431/459/281 432/460/281 430/461/281 429/462/281
f 436/463/282 431/464/282 429/457/282 434/456/282
f 435/460/283 436/465/283 434/466/283 433/461/283
f 435/467/284 432/468/284 431/464/284 436/463/284
o turbine_wall_0_1
v 0.837480 0.495550 0.412864
v 0.733807 0.386646 0.302389
v 0.851333 0.477428 0.417728
v 0.747660 0.368524 0.307253
v 0.497372 0.290813 0.618736
v 0.601045 0.399717 0.729211
v 0.511225 0.272692 0.623599
v 0.614898 0.381595 0.734075
vn -0.5556 -0.5837 -0.5921
vn 0.5818 0.2358 -0.7784
vn 0.5556 0.5837 0.5921
vn -0.5818 -0.2358 0.7784
vn 0.5940 -0.7770 0.2085
vt 0.125000 0.882812
vt 0.398438 0.882812
vt 0.398438 0.898438
vt 0.125000 0.898438
vt 0.250000 0.898438
vt 0.250000 0.914062
vt 0.125000 0.914062
vt 0.125000 0.867188
vt 0.398438 0.867188
vt 0.375000 0.898438
vt 0.375000 0.914062
vt 0.125000 0.742188
vt 0.398438 0.742188
s 1
usemtl m_1eb71f20-f142-4fac-88ae-03e62d65592e
f 440/469/285 443/470/285 441/471/285 438/472/285
f 439/472/286 440/473/286 438/474/286 437/475/286
f 444/476/287 439/477/287 437/470/287 442/469/287
f 443/473/288 444/478/288 442/479/288 441/474/288
f 443/480/289 440/481/289 439/477/289 444/476/289
o turbine_wall_0_2
v 0.827828 0.660340 0.454447
v 0.832883 0.480822 0.403843
v 0.846786 0.657152 0.467651
v 0.851842 0.477634 0.417047
v 0.595430 0.384577 0.721552
v 0.590375 0.564095 0.772156
v 0.614389 0.381389 0.734756
v 0.609334 0.560907 0.785360
vn 0.0271 -0.9621 -0.2712
vn 0.5818 0.2358 -0.7784
vn -0.0271 0.9621 0.2712
vn -0.5818 -0.2358 0.7784
vn 0.8129 -0.1367 0.5661
vt 0.125000 0.882812
vt 0.398438 0.882812
vt 0.398438 0.898438
vt 0.125000 0.898438
vt 0.250000 0.898438
vt 0.250000 0.914062
vt 0.125000 0.914062
vt 0.125000 0.867188
vt 0.398438 0.867188
vt 0.375000 0.898438
vt 0.375000 0.914062
vt 0.125000 0.742188
vt 0.398438 0.742188
s 1
usemtl m_1eb71f20-f142-4fac-88ae-03e62d65592e
f 448/482/290 451/483/290 449/484/290 446/485/290
f 447/485/291 448/486/291 446/487/291 445/488/291
f 452/489/292 447/490/292 445/483/292 450/482/292
f 451/486/293 452/491/293 450/492/293 449/487/293
f 451/493/294 448/494/294 447/490/294 452/489/294
o turbine_wall_0_3
v 0.722495 0.788306 0.415612
v 0.833318 0.643333 0.454523
v 0.735455 0.801919 0.429421
v 0.846278 0.656946 0.468332
v 0.596883 0.547500 0.770869
v 0.486060 0.692473 0.731959
v 0.609842 0.561113 0.784679
v 0.499019 0.706086 0.745768
vn 0.5940 -0.7770 0.2085
vn 0.5818 0.2358 -0.7784
vn -0.5940 0.7770 -0.2085
vn -0.5818 -0.2358 0.7784
vn 0.5556 0.5837 0.5921
vt 0.125000 0.882812
vt 0.398438 0.882812
vt 0.398438 0.898438
vt 0.125000 0.898438
vt 0.250000 0.898438
vt 0.250000 0.914062
vt 0.125000 0.914062
vt 0.125000 0.867188
vt 0.398438 0.867188
vt 0.375000 0.898438
vt 0.375000 0.914062
vt 0.125000 0.742188
vt 0.398438 0.742188
s 1
usemtl m_1eb71f20-f142-4fac-88ae-03e62d65592e
f 456/495/295 459/496/295 457/497/295 454/498/295
f 455/498/296 456/499/296 454/500/296 453/501/296
f 460/502/297 455/503/297 453/496/297 458/495/297
f 459/499/298 460/504/298 458/505/298 457/500/298
f 459/506/299 456/507/299 455/503/299 460/502/299
o turbine_wall_0_4
v 0.584924 0.805191 0.316783
v 0.736595 0.779686 0.422415
v 0.584292 0.827630 0.323108
v 0.735963 0.802125 0.428741
v 0.499142 0.683440 0.740123
v 0.347471 0.708945 0.634491
v 0.498510 0.705880 0.746449
v 0.346839 0.731385 0.640817
vn 0.8129 -0.1367 0.5661
vn 0.5818 0.2358 -0.7784
vn -0.8129 0.1367 -0.5661
vn -0.5818 -0.2358 0.7784
vn -0.0271 0.9621 0.2712
vt 0.125000 0.882812
vt 0.398438 0.882812
vt 0.398438 0.898438
vt 0.125000 0.898438
vt 0.250000 0.898438
vt 0.250000 0.914062
vt 0.125000 0.914062
vt 0.125000 0.867188
vt 0.398438 0.867188
vt 0.375000 0.898438
vt 0.375000 0.914062
vt 0.250000 0.218750
vt 0.523438 0.218750
vt 0.523438 0.343750
vt 0.250000 0.343750
s 1
usemtl m_1eb71f20-f142-4fac-88ae-03e62d65592e
f 464/508/300 467/509/300 465/510/300 462/511/300
f 463/511/301 464/512/301 462/513/301 461/514/301
f 468/515/302 463/516/302 461/509/302 466/508/302
f 467/512/303 468/517/303 466/518/303 465/513/303
f 467/519/304 464/520/304 463/521/304 468/522/304
o turbine_wall_0_5
v 0.493962 0.700399 0.218177
v 0.597636 0.809302 0.328653
v 0.480109 0.718520 0.213314
v 0.583783 0.827424 0.323789
v 0.361200 0.713470 0.645000
v 0.257527 0.604566 0.534524
v 0.347347 0.731591 0.640136
v 0.243674 0.622688 0.529660
vn 0.5556 0.5837 0.5921
vn 0.5818 0.2358 -0.7784
vn -0.5556 -0.5837 -0.5921
vn -0.5818 -0.2358 0.7784
vn -0.5940 0.7770 -0.2085
vt 0.125000 0.882812
vt 0.398438 0.882812
vt 0.398438 0.898438
vt 0.125000 0.898438
vt 0.250000 0.898438
vt 0.250000 0.914062
vt 0.125000 0.914062
vt 0.125000 0.867188
vt 0.398438 0.867188
vt 0.375000 0.898438
vt 0.375000 0.914062
vt 0.125000 0.742188
vt 0.398438 0.742188
s 1
usemtl m_1eb71f20-f142-4fac-88ae-03e62d65592e
f 472/523/305 475/524/305 473/525/305 470/526/305
f 471/526/306 472/527/306 470/528/306 469/529/306
f 476/530/307 471/531/307 469/524/307 474/523/307
f 475/527/308 476/532/308 474/533/308 473/528/308
f 475/534/309 472/535/309 471/531/309 476/530/309
o turbine_wall_0_6
v 0.504633 0.536021 0.175233
v 0.499577 0.715539 0.225837
v 0.485674 0.539209 0.162029
v 0.480618 0.718727 0.212633
v 0.262124 0.619293 0.543545
v 0.267180 0.439775 0.492941
v 0.243165 0.622481 0.530341
v 0.248221 0.442963 0.479737
vn -0.0271 0.9621 0.2712
vn 0.5818 0.2358 -0.7784
vn 0.0271 -0.9621 -0.2712
vn -0.5818 -0.2358 0.7784
vn -0.8129 0.1367 -0.5661
vt 0.125000 0.882812
vt 0.398438 0.882812
vt 0.398438 0.898438
vt 0.125000 0.898438
vt 0.250000 0.898438
vt 0.250000 0.914062
vt 0.125000 0.914062
vt 0.125000 0.867188
vt 0.398438 0.867188
vt 0.375000 0.898438
vt 0.375000 0.914062
vt 0.500000 0.875000
vt 0.773438 0.875000
vt 0.773438 1.000000
vt 0.500000 1.000000
s 1
usemtl m_1eb71f20-f142-4fac-88ae-03e62d65592e
f 480/536/310 483/537/310 481/538/310 478/539/310
f 479/539/311 480/540/311 478/541/311 477/542/311
f 484/543/312 479/544/312 477/537/312 482/536/312
f 483/540/313 484/545/313 482/546/313 481/541/313
f 483/547/314 480/548/314 479/549/314 484/550/314
o turbine_wall_0_7
v 0.608947 0.407642 0.215430
v 0.498124 0.552615 0.176519
v 0.595988 0.394029 0.201621
v 0.485165 0.539002 0.162710
v 0.261689 0.456783 0.492866
v 0.372512 0.311810 0.531777
v 0.248730 0.443170 0.479056
v 0.359553 0.298197 0.517967
vn -0.5940 0.7770 -0.2085
vn 0.5818 0.2358 -0.7784
vn 0.5940 -0.7770 0.2085
vn -0.5818 -0.2358 0.7784
vn -0.5556 -0.5837 -0.5921
vt 0.125000 0.882812
vt 0.398438 0.882812
vt 0.398438 0.898438
vt 0.125000 0.898438
vt 0.250000 0.898438
vt 0.250000 0.914062
vt 0.125000 0.914062
vt 0.125000 0.867188
vt 0.398438 0.867188
vt 0.375000 0.898438
vt 0.375000 0.914062
vt 0.125000 0.742188
vt 0.398438 0.742188
s 1
usemtl m_1eb71f20-f142-4fac-88ae-03e62d65592e
f 488/551/315 491/552/315 489/553/315 486/554/315
f 487/554/316 488/555/316 486/556/316 485/557/316
f 492/558/317 487/559/317 485/552/317 490/551/317
f 491/555/318 492/560/318 490/561/318 489/556/318
f 491/562/319 488/563/319 487/559/319 492/558/319
