# Made in Blockbench 5.1.5
mtllib steam_turbine.mtl

o coupler0
v 2 2 2
v 2 2 1
v 2 0 2
v 2 0 1
v 1.625 2 1
v 1.625 2 2
v 1.625 0 1
v 1.625 0 2
vt 0.625 0.84375
vt 0.65625 0.84375
vt 0.65625 0.59375
vt 0.625 0.59375
vt 0.5 0.84375
vt 0.625 0.84375
vt 0.625 0.59375
vt 0.5 0.59375
vt 0.625 0.84375
vt 0.65625 0.84375
vt 0.65625 0.59375
vt 0.625 0.59375
vt 0.65625 0.84375
vt 0.78125 0.84375
vt 0.78125 0.59375
vt 0.65625 0.59375
vt 0.625 0.84375
vt 0.65625 0.84375
vt 0.65625 0.71875
vt 0.625 0.71875
vt 0.625 0.71875
vt 0.65625 0.71875
vt 0.65625 0.59375
vt 0.625 0.59375
vn 0 0 -1
vn 1 0 0
vn 0 0 1
vn -1 0 0
vn 0 1 0
vn 0 -1 0
usemtl m_1eb71f20-f142-4fac-88ae-03e62d65592e
f 4/4/1 7/3/1 5/2/1 2/1/1
f 3/8/2 4/7/2 2/6/2 1/5/2
f 8/12/3 3/11/3 1/10/3 6/9/3
f 7/16/4 8/15/4 6/14/4 5/13/4
f 6/20/5 1/19/5 2/18/5 5/17/5
f 7/24/6 4/23/6 3/22/6 8/21/6
o mid_cutout_wall
v -0.5578125 2.5883568750000006 2.5875
v -0.5578125 2.5883568750000006 0.4125000000000001
v -0.5578125 0.41335687500000007 2.5875
v -0.5578125 0.41335687500000007 0.4125000000000001
v -0.559375 2.5883568750000006 0.4125000000000001
v -0.559375 2.5883568750000006 2.5875
v -0.559375 0.41335687500000007 0.4125000000000001
v -0.559375 0.41335687500000007 2.5875
vt 0 1
vt 0.5 1
vt 0.5 0.5
vt 0 0.5
vn -1 0 0
usemtl m_1eb71f20-f142-4fac-88ae-03e62d65592e
f 15/28/7 16/27/7 14/26/7 13/25/7
o front_cutout_wall
v -1.6252737499999999 2.3139818750000005 2.3131250000000003
v -1.6252737499999999 2.3139818750000005 0.6868749999999999
v -1.6252737499999999 0.6877318750000001 2.3131250000000003
v -1.6252737499999999 0.6877318750000001 0.6868749999999999
v -1.6262893749999998 2.3139818750000005 0.6868749999999999
v -1.6262893749999998 2.3139818750000005 2.3131250000000003
v -1.6262893749999998 0.6877318750000001 0.6868749999999999
v -1.6262893749999998 0.6877318750000001 2.3131250000000003
vt 0 1
vt 0.5 1
vt 0.5 0.5
vt 0 0.5
vn -1 0 0
usemtl m_1eb71f20-f142-4fac-88ae-03e62d65592e
f 23/32/8 24/31/8 22/30/8 21/29/8
o back_cutout_wall
v 1.6281249999999998 2.5883568750000006 0.4125000000000001
v 1.6281250000000003 2.5883568750000006 2.5875
v 1.6281249999999998 0.41335687500000007 0.4125000000000001
v 1.6281250000000003 0.41335687500000007 2.5875
v 1.6296875000000002 2.5883568750000006 2.5875
v 1.6296874999999997 2.5883568750000006 0.4125000000000001
v 1.6296875000000002 0.41335687500000007 2.5875
v 1.6296874999999997 0.41335687500000007 0.4125000000000001
vt 0 1
vt 0.5 1
vt 0.5 0.5
vt 0 0.5
vn 1 0 -1.2246467991473532e-16
usemtl m_1eb71f20-f142-4fac-88ae-03e62d65592e
f 31/36/9 32/35/9 30/34/9 29/33/9
o coupler1
v -2 2 1
v -2 2 2
v -2 0 1
v -2 0 2
v -1.625 2 2
v -1.625 2 1
v -1.625 0 2
v -1.625 0 1
vt 0.625 0.84375
vt 0.65625 0.84375
vt 0.65625 0.59375
vt 0.625 0.59375
vt 0.5 0.84375
vt 0.625 0.84375
vt 0.625 0.59375
vt 0.5 0.59375
vt 0.625 0.84375
vt 0.65625 0.84375
vt 0.65625 0.59375
vt 0.625 0.59375
vt 0.65625 0.84375
vt 0.78125 0.84375
vt 0.78125 0.59375
vt 0.65625 0.59375
vt 0.625 0.84375
vt 0.65625 0.84375
vt 0.65625 0.71875
vt 0.625 0.71875
vt 0.625 0.71875
vt 0.65625 0.71875
vt 0.65625 0.59375
vt 0.625 0.59375
vn 1.2246467991473532e-16 0 1
vn -1 0 1.2246467991473532e-16
vn -1.2246467991473532e-16 0 -1
vn 1 0 -1.2246467991473532e-16
vn 0 1 0
vn 0 -1 0
usemtl m_1eb71f20-f142-4fac-88ae-03e62d65592e
f 36/40/10 39/39/10 37/38/10 34/37/10
f 35/44/11 36/43/11 34/42/11 33/41/11
f 40/48/12 35/47/12 33/46/12 38/45/12
f 39/52/13 40/51/13 38/50/13 37/49/13
f 38/56/14 33/55/14 34/54/14 37/53/14
f 39/60/15 36/59/15 35/58/15 40/57/15
o turbine_wall_0_0
v 1.625 0.41874999999999996 2
v 1.625 0.41874999999999996 1
v 1.625 0.29374999999999996 2
v 1.625 0.29374999999999996 1
v -0.5625 0.41874999999999996 1
v -0.5625 0.41874999999999996 2
v -0.5625 0.29374999999999996 1
v -0.5625 0.29374999999999996 2
vt 0.125 0.8984375
vt 0.3984375 0.8984375
vt 0.3984375 0.8828125
vt 0.125 0.8828125
vt 0.125 0.9140625
vt 0.25 0.9140625
vt 0.25 0.8984375
vt 0.125 0.8984375
vt 0.125 0.8828125
vt 0.3984375 0.8828125
vt 0.3984375 0.8671875
vt 0.125 0.8671875
vt 0.25 0.9140625
vt 0.375 0.9140625
vt 0.375 0.8984375
vt 0.25 0.8984375
vt 0.125 0.8671875
vt 0.3984375 0.8671875
vt 0.3984375 0.7421875
vt 0.125 0.7421875
vn 0 0 -1
vn 1 0 0
vn 0 0 1
vn -1 0 0
vn 0 -1 0
usemtl m_1eb71f20-f142-4fac-88ae-03e62d65592e
f 44/64/16 47/63/16 45/62/16 42/61/16
f 43/68/17 44/67/17 42/66/17 41/65/17
f 48/72/18 43/71/18 41/70/18 46/69/18
f 47/76/19 48/75/19 46/74/19 45/73/19
f 47/80/20 44/79/20 43/78/20 48/77/20
o turbine_wall_0_1
v 1.6203125 1.0892452655932738 2.618718570296637
v 1.6203125 0.3821384844067262 1.9116117891100894
v 1.6203125 1.0008569179449553 2.707106917944955
v 1.6203125 0.2937501367584078 2.0000001367584077
v -0.5578124999999998 0.3821384844067262 1.9116117891100894
v -0.5578124999999998 1.0892452655932738 2.618718570296637
v -0.5578124999999998 0.2937501367584078 2.0000001367584077
v -0.5578124999999998 1.0008569179449553 2.707106917944955
vt 0.125 0.8984375
vt 0.3984375 0.8984375
vt 0.3984375 0.8828125
vt 0.125 0.8828125
vt 0.125 0.9140625
vt 0.25 0.9140625
vt 0.25 0.8984375
vt 0.125 0.8984375
vt 0.125 0.8828125
vt 0.3984375 0.8828125
vt 0.3984375 0.8671875
vt 0.125 0.8671875
vt 0.25 0.9140625
vt 0.375 0.9140625
vt 0.375 0.8984375
vt 0.25 0.8984375
vt 0.125 0.8671875
vt 0.3984375 0.8671875
vt 0.3984375 0.7421875
vt 0.125 0.7421875
vn 0 -0.7071067811865476 -0.7071067811865475
vn 1 0 0
vn 0 0.7071067811865476 0.7071067811865475
vn -1 0 0
vn 0 -0.7071067811865475 0.7071067811865476
usemtl m_1eb71f20-f142-4fac-88ae-03e62d65592e
f 52/84/21 55/83/21 53/82/21 50/81/21
f 51/88/22 52/87/22 50/86/22 49/85/22
f 56/92/23 51/91/23 49/90/23 54/89/23
f 55/96/24 56/95/24 54/94/24 53/93/24
f 55/100/25 52/99/25 51/98/25 56/97/25
o turbine_wall_0_2
v 1.625 2.000856875 2.582106875
v 1.625 1.000856875 2.582106875
v 1.625 2.000856875 2.707106875
v 1.625 1.000856875 2.707106875
v -0.5625 1.000856875 2.582106875
v -0.5625 2.000856875 2.582106875
v -0.5625 1.000856875 2.707106875
v -0.5625 2.000856875 2.707106875
vt 0.125 0.8984375
vt 0.3984375 0.8984375
vt 0.3984375 0.8828125
vt 0.125 0.8828125
vt 0.125 0.9140625
vt 0.25 0.9140625
vt 0.25 0.8984375
vt 0.125 0.8984375
vt 0.125 0.8828125
vt 0.3984375 0.8828125
vt 0.3984375 0.8671875
vt 0.125 0.8671875
vt 0.25 0.9140625
vt 0.375 0.9140625
vt 0.375 0.8984375
vt 0.25 0.8984375
vt 0.125 0.8671875
vt 0.3984375 0.8671875
vt 0.3984375 0.7421875
vt 0.125 0.7421875
vn 0 -1 -2.220446049250313e-16
vn 1 0 0
vn 0 1 2.220446049250313e-16
vn -1 0 0
vn 0 -2.220446049250313e-16 1
usemtl m_1eb71f20-f142-4fac-88ae-03e62d65592e
f 60/104/26 63/103/26 61/102/26 58/101/26
f 59/108/27 60/107/27 58/106/27 57/105/27
f 64/112/28 59/111/28 57/110/28 62/109/28
f 63/116/29 64/115/29 62/114/29 61/113/29
f 63/120/30 60/119/30 59/118/30 64/117/30
o turbine_wall_0_3
v 1.6203125 2.619575445296637 1.9116116094067264
v 1.6203125 1.9124686641100894 2.6187183905932736
v 1.6203125 2.7079637929449554 1.9999999570550449
v 1.6203125 2.000857011758408 2.7071067382415923
v -0.5578124999999998 1.9124686641100894 2.6187183905932736
v -0.5578124999999998 2.619575445296637 1.9116116094067264
v -0.5578124999999998 2.000857011758408 2.7071067382415923
v -0.5578124999999998 2.7079637929449554 1.9999999570550449
vt 0.125 0.8984375
vt 0.3984375 0.8984375
vt 0.3984375 0.8828125
vt 0.125 0.8828125
vt 0.125 0.9140625
vt 0.25 0.9140625
vt 0.25 0.8984375
vt 0.125 0.8984375
vt 0.125 0.8828125
vt 0.3984375 0.8828125
vt 0.3984375 0.8671875
vt 0.125 0.8671875
vt 0.25 0.9140625
vt 0.375 0.9140625
vt 0.375 0.8984375
vt 0.25 0.8984375
vt 0.125 0.8671875
vt 0.3984375 0.8671875
vt 0.3984375 0.7421875
vt 0.125 0.7421875
vn 0 -0.7071067811865477 0.7071067811865475
vn 1 0 0
vn 0 0.7071067811865477 -0.7071067811865475
vn -1 0 0
vn 0 0.7071067811865475 0.7071067811865477
usemtl m_1eb71f20-f142-4fac-88ae-03e62d65592e
f 68/124/31 71/123/31 69/122/31 66/121/31
f 67/128/32 68/127/32 66/126/32 65/125/32
f 72/132/33 67/131/33 65/130/33 70/129/33
f 71/136/34 72/135/34 70/134/34 69/133/34
f 71/140/35 68/139/35 67/138/35 72/137/35
o turbine_wall_0_4
v 1.625 2.58296375 1
v 1.625 2.58296375 2
v 1.625 2.70796375 1
v 1.625 2.70796375 2
v -0.5625 2.58296375 2
v -0.5625 2.58296375 1
v -0.5625 2.70796375 2
v -0.5625 2.70796375 1
vt 0.125 0.8984375
vt 0.3984375 0.8984375
vt 0.3984375 0.8828125
vt 0.125 0.8828125
vt 0.125 0.9140625
vt 0.25 0.9140625
vt 0.25 0.8984375
vt 0.125 0.8984375
vt 0.125 0.8828125
vt 0.3984375 0.8828125
vt 0.3984375 0.8671875
vt 0.125 0.8671875
vt 0.25 0.9140625
vt 0.375 0.9140625
vt 0.375 0.8984375
vt 0.25 0.8984375
vt 0.25 0.34375
vt 0.5234375 0.34375
vt 0.5234375 0.21875
vt 0.25 0.21875
vn 0 -1.2246467991473532e-16 1
vn 1 0 0
vn 0 1.2246467991473532e-16 -1
vn -1 0 0
vn 0 1 1.2246467991473532e-16
usemtl m_1eb71f20-f142-4fac-88ae-03e62d65592e
f 76/144/36 79/143/36 77/142/36 74/141/36
f 75/148/37 76/147/37 74/146/37 73/145/37
f 80/152/38 75/151/38 73/150/38 78/149/38
f 79/156/39 80/155/39 78/154/39 77/153/39
f 79/160/40 76/159/40 75/158/40 80/157/40
o turbine_wall_0_5
v 1.6203125 1.9124684844067261 0.3812814297033633
v 1.6203125 2.619575265593274 1.0883882108899108
v 1.6203125 2.0008568320550446 0.29289308205504483
v 1.6203125 2.707963613241592 0.9999998632415923
v -0.5578124999999998 2.619575265593274 1.0883882108899108
v -0.5578124999999998 1.9124684844067261 0.3812814297033633
v -0.5578124999999998 2.707963613241592 0.9999998632415923
v -0.5578124999999998 2.0008568320550446 0.29289308205504483
vt 0.125 0.8984375
vt 0.3984375 0.8984375
vt 0.3984375 0.8828125
vt 0.125 0.8828125
vt 0.125 0.9140625
vt 0.25 0.9140625
vt 0.25 0.8984375
vt 0.125 0.8984375
vt 0.125 0.8828125
vt 0.3984375 0.8828125
vt 0.3984375 0.8671875
vt 0.125 0.8671875
vt 0.25 0.9140625
vt 0.375 0.9140625
vt 0.375 0.8984375
vt 0.25 0.8984375
vt 0.125 0.8671875
vt 0.3984375 0.8671875
vt 0.3984375 0.7421875
vt 0.125 0.7421875
vn 0 0.7071067811865477 0.7071067811865475
vn 1 0 0
vn 0 -0.7071067811865477 -0.7071067811865475
vn -1 0 0
vn 0 0.7071067811865475 -0.7071067811865477
usemtl m_1eb71f20-f142-4fac-88ae-03e62d65592e
f 84/164/41 87/163/41 85/162/41 82/161/41
f 83/168/42 84/167/42 82/166/42 81/165/42
f 88/172/43 83/171/43 81/170/43 86/169/43
f 87/176/44 88/175/44 86/174/44 85/173/44
f 87/180/45 84/179/45 83/178/45 88/177/45
o turbine_wall_0_6
v 1.625 1.000856875 0.4178931250000001
v 1.625 2.000856875 0.41789312499999987
v 1.625 1.000856875 0.2928931250000001
v 1.625 2.000856875 0.29289312499999987
v -0.5625 2.000856875 0.41789312499999987
v -0.5625 1.000856875 0.4178931250000001
v -0.5625 2.000856875 0.29289312499999987
v -0.5625 1.000856875 0.2928931250000001
vt 0.125 0.8984375
vt 0.3984375 0.8984375
vt 0.3984375 0.8828125
vt 0.125 0.8828125
vt 0.125 0.9140625
vt 0.25 0.9140625
vt 0.25 0.8984375
vt 0.125 0.8984375
vt 0.125 0.8828125
vt 0.3984375 0.8828125
vt 0.3984375 0.8671875
vt 0.125 0.8671875
vt 0.25 0.9140625
vt 0.375 0.9140625
vt 0.375 0.8984375
vt 0.25 0.8984375
vt 0.5 1
vt 0.7734375 1
vt 0.7734375 0.875
vt 0.5 0.875
vn 0 1 -2.220446049250313e-16
vn 1 0 0
vn 0 -1 2.220446049250313e-16
vn -1 0 0
vn 0 -2.220446049250313e-16 -1
usemtl m_1eb71f20-f142-4fac-88ae-03e62d65592e
f 92/184/46 95/183/46 93/182/46 90/181/46
f 91/188/47 92/187/47 90/186/47 89/185/47
f 96/192/48 91/191/48 89/190/48 94/189/48
f 95/196/49 96/195/49 94/194/49 93/193/49
f 95/200/50 92/199/50 91/198/50 96/197/50
o turbine_wall_0_7
v 1.6203125 0.38213830470336324 1.0883883905932736
v 1.6203125 1.0892450858899108 0.3812816094067263
v 1.6203125 0.2937499570550448 1.0000000429449551
v 1.6203125 1.0008567382415923 0.29289326175840785
v -0.5578124999999998 1.0892450858899108 0.3812816094067263
v -0.5578124999999998 0.38213830470336324 1.0883883905932736
v -0.5578124999999998 1.0008567382415923 0.29289326175840785
v -0.5578124999999998 0.2937499570550448 1.0000000429449551
vt 0.125 0.8984375
vt 0.3984375 0.8984375
vt 0.3984375 0.8828125
vt 0.125 0.8828125
vt 0.125 0.9140625
vt 0.25 0.9140625
vt 0.25 0.8984375
vt 0.125 0.8984375
vt 0.125 0.8828125
vt 0.3984375 0.8828125
vt 0.3984375 0.8671875
vt 0.125 0.8671875
vt 0.25 0.9140625
vt 0.375 0.9140625
vt 0.375 0.8984375
vt 0.25 0.8984375
vt 0.125 0.8671875
vt 0.3984375 0.8671875
vt 0.3984375 0.7421875
vt 0.125 0.7421875
vn 0 0.7071067811865476 -0.7071067811865475
vn 1 0 0
vn 0 -0.7071067811865476 0.7071067811865475
vn -1 0 0
vn 0 -0.7071067811865475 -0.7071067811865476
usemtl m_1eb71f20-f142-4fac-88ae-03e62d65592e
f 100/204/51 103/203/51 101/202/51 98/201/51
f 99/208/52 100/207/52 98/206/52 97/205/52
f 104/212/53 99/211/53 97/210/53 102/209/53
f 103/216/54 104/215/54 102/214/54 101/213/54
f 103/220/55 100/219/55 99/218/55 104/217/55
o step_section_ring_0_0
v -1.293828125 2.3132487500000005 1.124625
v -1.293828125 2.3132487500000005 1.875375
v -1.293828125 2.4070925 1.124625
v -1.293828125 2.4070925 1.875375
v -1.6270156250000003 2.3132487500000005 1.875375
v -1.6270156250000003 2.3132487500000005 1.124625
v -1.6270156250000003 2.4070925 1.875375
v -1.6270156250000003 2.4070925 1.124625
vt 0.53125 0.875
vt 0.53125 0.84375
vt 0.5 0.84375
vt 0.5 0.875
vt 0.5 0.875
vt 0.75 0.875
vt 0.75 0.84375
vt 0.5 0.84375
vt 0.75 0.875
vt 0.75 0.84375
vt 0.71875 0.84375
vt 0.71875 0.875
vt 0.5 0.875
vt 0.75 0.875
vt 0.75 0.84375
vt 0.5 0.84375
vt 0.75 0.875
vt 0.75 0.84375
vt 0.5 0.84375
vt 0.5 0.875
vn 0 -1.2246467991473532e-16 1
vn 1 0 0
vn 0 1.2246467991473532e-16 -1
vn -1 0 0
vn 0 1 1.2246467991473532e-16
usemtl m_1eb71f20-f142-4fac-88ae-03e62d65592e
f 108/224/56 111/223/56 109/222/56 106/221/56
f 107/228/57 108/227/57 106/226/57 105/225/57
f 112/232/58 107/231/58 105/230/58 110/229/58
f 111/236/59 112/235/59 110/234/59 109/233/59
f 111/240/60 108/239/60 107/238/60 112/237/60
o step_section_ring_0_1
v -1.293828125 1.8098741410136117 0.6601223180105874
v -1.293828125 2.3407345569894122 1.190982733986388
v -1.293828125 1.8762316930105865 0.5937647660136126
v -1.293828125 2.407092108986387 1.1246251819894133
v -1.6270156250000003 2.3407345569894122 1.190982733986388
v -1.6270156250000003 1.8098741410136117 0.6601223180105874
v -1.6270156250000003 2.407092108986387 1.1246251819894133
v -1.6270156250000003 1.8762316930105865 0.5937647660136126
vt 0.53125 0.875
vt 0.53125 0.84375
vt 0.5 0.84375
vt 0.5 0.875
vt 0.5 0.875
vt 0.75 0.875
vt 0.75 0.84375
vt 0.5 0.84375
vt 0.75 0.875
vt 0.75 0.84375
vt 0.71875 0.84375
vt 0.71875 0.875
vt 0.5 0.875
vt 0.75 0.875
vt 0.75 0.84375
vt 0.5 0.84375
vt 0.75 0.875
vt 0.75 0.84375
vt 0.5 0.84375
vt 0.5 0.875
vn 0 0.7071067811865477 0.7071067811865475
vn 1 0 0
vn 0 -0.7071067811865477 -0.7071067811865475
vn -1 0 0
vn 0 0.7071067811865475 -0.7071067811865477
usemtl m_1eb71f20-f142-4fac-88ae-03e62d65592e
f 116/244/61 119/243/61 117/242/61 114/241/61
f 115/248/62 116/247/62 114/246/62 113/245/62
f 120/252/63 115/251/63 113/250/63 118/249/63
f 119/256/64 120/255/64 118/254/64 117/253/64
f 119/260/65 116/259/65 115/258/65 120/257/65
o step_section_ring_0_2
v -1.293828125 1.1254818750000002 0.6876081250000001
v -1.293828125 1.876231875 0.6876081249999999
v -1.293828125 1.1254818750000002 0.5937643750000001
v -1.293828125 1.876231875 0.5937643749999999
v -1.6270156250000003 1.876231875 0.6876081249999999
v -1.6270156250000003 1.1254818750000002 0.6876081250000001
v -1.6270156250000003 1.876231875 0.5937643749999999
v -1.6270156250000003 1.1254818750000002 0.5937643750000001
vt 0.53125 0.875
vt 0.53125 0.84375
vt 0.5 0.84375
vt 0.5 0.875
vt 0.5 0.875
vt 0.75 0.875
vt 0.75 0.84375
vt 0.5 0.84375
vt 0.75 0.875
vt 0.75 0.84375
vt 0.71875 0.84375
vt 0.71875 0.875
vt 0.5 0.875
vt 0.75 0.875
vt 0.75 0.84375
vt 0.5 0.84375
vt 0.75 0.875
vt 0.75 0.84375
vt 0.5 0.84375
vt 0.5 0.875
vn 0 1 -2.220446049250313e-16
vn 1 0 0
vn 0 -1 2.220446049250313e-16
vn -1 0 0
vn 0 -2.220446049250313e-16 -1
usemtl m_1eb71f20-f142-4fac-88ae-03e62d65592e
f 124/264/66 127/263/66 125/262/66 122/261/66
f 123/268/67 124/267/67 122/266/67 121/265/67
f 128/272/68 123/271/68 121/270/68 126/269/68
f 127/276/69 128/275/69 126/274/69 125/273/69
f 127/280/70 124/279/70 123/278/70 128/277/70
o step_section_ring_0_3
v -1.293828125 0.6609791930105872 1.1909827339863877
v -1.293828125 1.1918396089863879 0.6601223180105872
v -1.293828125 0.5946216410136121 1.1246251819894126
v -1.293828125 1.1254820569894126 0.5937647660136122
v -1.6270156250000003 1.1918396089863879 0.6601223180105872
v -1.6270156250000003 0.6609791930105872 1.1909827339863877
v -1.6270156250000003 1.1254820569894126 0.5937647660136122
v -1.6270156250000003 0.5946216410136121 1.1246251819894126
vt 0.53125 0.875
vt 0.53125 0.84375
vt 0.5 0.84375
vt 0.5 0.875
vt 0.5 0.875
vt 0.75 0.875
vt 0.75 0.84375
vt 0.5 0.84375
vt 0.75 0.875
vt 0.75 0.84375
vt 0.71875 0.84375
vt 0.71875 0.875
vt 0.5 0.875
vt 0.75 0.875
vt 0.75 0.84375
vt 0.5 0.84375
vt 0.75 0.875
vt 0.75 0.84375
vt 0.5 0.84375
vt 0.5 0.875
vn 0 0.7071067811865476 -0.7071067811865475
vn 1 0 0
vn 0 -0.7071067811865476 0.7071067811865475
vn -1 0 0
vn 0 -0.7071067811865475 -0.7071067811865476
usemtl m_1eb71f20-f142-4fac-88ae-03e62d65592e
f 132/284/71 135/283/71 133/282/71 130/281/71
f 131/288/72 132/287/72 130/286/72 129/285/72
f 136/292/73 131/291/73 129/290/73 134/289/73
f 135/296/74 136/295/74 134/294/74 133/293/74
f 135/300/75 132/299/75 131/298/75 136/297/75
o step_section_ring_0_4
v -1.293828125 0.688465 1.875375
v -1.293828125 0.688465 1.124625
v -1.293828125 0.59462125 1.875375
v -1.293828125 0.59462125 1.124625
v -1.6270156250000003 0.688465 1.124625
v -1.6270156250000003 0.688465 1.875375
v -1.6270156250000003 0.59462125 1.124625
v -1.6270156250000003 0.59462125 1.875375
vt 0.53125 0.875
vt 0.53125 0.84375
vt 0.5 0.84375
vt 0.5 0.875
vt 0.5 0.875
vt 0.75 0.875
vt 0.75 0.84375
vt 0.5 0.84375
vt 0.75 0.875
vt 0.75 0.84375
vt 0.71875 0.84375
vt 0.71875 0.875
vt 0.5 0.875
vt 0.75 0.875
vt 0.75 0.84375
vt 0.5 0.84375
vt 0.75 0.875
vt 0.75 0.84375
vt 0.5 0.84375
vt 0.5 0.875
vn 0 0 -1
vn 1 0 0
vn 0 0 1
vn -1 0 0
vn 0 -1 0
usemtl m_1eb71f20-f142-4fac-88ae-03e62d65592e
f 140/304/76 143/303/76 141/302/76 138/301/76
f 139/308/77 140/307/77 138/306/77 137/305/77
f 144/312/78 139/311/78 137/310/78 142/309/78
f 143/316/79 144/315/79 142/314/79 141/313/79
f 143/320/80 140/319/80 139/318/80 144/317/80
o step_section_ring_0_5
v -1.293828125 1.1918396089863879 2.339877681989413
v -1.293828125 0.6609791930105872 1.8090172660136123
v -1.293828125 1.1254820569894126 2.4062352339863877
v -1.293828125 0.5946216410136121 1.8753748180105874
v -1.6270156250000003 0.6609791930105872 1.8090172660136123
v -1.6270156250000003 1.1918396089863879 2.339877681989413
v -1.6270156250000003 0.5946216410136121 1.8753748180105874
v -1.6270156250000003 1.1254820569894126 2.4062352339863877
vt 0.53125 0.875
vt 0.53125 0.84375
vt 0.5 0.84375
vt 0.5 0.875
vt 0.5 0.875
vt 0.75 0.875
vt 0.75 0.84375
vt 0.5 0.84375
vt 0.75 0.875
vt 0.75 0.84375
vt 0.71875 0.84375
vt 0.71875 0.875
vt 0.5 0.875
vt 0.75 0.875
vt 0.75 0.84375
vt 0.5 0.84375
vt 0.75 0.875
vt 0.75 0.84375
vt 0.5 0.84375
vt 0.5 0.875
vn 0 -0.7071067811865476 -0.7071067811865475
vn 1 0 0
vn 0 0.7071067811865476 0.7071067811865475
vn -1 0 0
vn 0 -0.7071067811865475 0.7071067811865476
usemtl m_1eb71f20-f142-4fac-88ae-03e62d65592e
f 148/324/81 151/323/81 149/322/81 146/321/81
f 147/328/82 148/327/82 146/326/82 145/325/82
f 152/332/83 147/331/83 145/330/83 150/329/83
f 151/336/84 152/335/84 150/334/84 149/333/84
f 151/340/85 148/339/85 147/338/85 152/337/85
o step_section_ring_0_6
v -1.293828125 1.876231875 2.3123918750000003
v -1.293828125 1.125481875 2.312391875
v -1.293828125 1.876231875 2.4062356250000003
v -1.293828125 1.125481875 2.406235625
v -1.6270156250000003 1.125481875 2.312391875
v -1.6270156250000003 1.876231875 2.3123918750000003
v -1.6270156250000003 1.125481875 2.406235625
v -1.6270156250000003 1.876231875 2.4062356250000003
vt 0.53125 0.875
vt 0.53125 0.84375
vt 0.5 0.84375
vt 0.5 0.875
vt 0.5 0.875
vt 0.75 0.875
vt 0.75 0.84375
vt 0.5 0.84375
vt 0.75 0.875
vt 0.75 0.84375
vt 0.71875 0.84375
vt 0.71875 0.875
vt 0.5 0.875
vt 0.75 0.875
vt 0.75 0.84375
vt 0.5 0.84375
vt 0.75 0.875
vt 0.75 0.84375
vt 0.5 0.84375
vt 0.5 0.875
vn 0 -1 -2.220446049250313e-16
vn 1 0 0
vn 0 1 2.220446049250313e-16
vn -1 0 0
vn 0 -2.220446049250313e-16 1
usemtl m_1eb71f20-f142-4fac-88ae-03e62d65592e
f 156/344/86 159/343/86 157/342/86 154/341/86
f 155/348/87 156/347/87 154/346/87 153/345/87
f 160/352/88 155/351/88 153/350/88 158/349/88
f 159/356/89 160/355/89 158/354/89 157/353/89
f 159/360/90 156/359/90 155/358/90 160/357/90
o step_section_ring_0_7
v -1.293828125 2.3407345569894122 1.809017266013612
v -1.293828125 1.8098741410136117 2.3398776819894125
v -1.293828125 2.407092108986387 1.8753748180105867
v -1.293828125 1.8762316930105865 2.4062352339863873
v -1.6270156250000003 1.8098741410136117 2.3398776819894125
v -1.6270156250000003 2.3407345569894122 1.809017266013612
v -1.6270156250000003 1.8762316930105865 2.4062352339863873
v -1.6270156250000003 2.407092108986387 1.8753748180105867
vt 0.53125 0.875
vt 0.53125 0.84375
vt 0.5 0.84375
vt 0.5 0.875
vt 0.5 0.875
vt 0.75 0.875
vt 0.75 0.84375
vt 0.5 0.84375
vt 0.75 0.875
vt 0.75 0.84375
vt 0.71875 0.84375
vt 0.71875 0.875
vt 0.5 0.875
vt 0.75 0.875
vt 0.75 0.84375
vt 0.5 0.84375
vt 0.75 0.875
vt 0.75 0.84375
vt 0.5 0.84375
vt 0.5 0.875
vn 0 -0.7071067811865477 0.7071067811865475
vn 1 0 0
vn 0 0.7071067811865477 -0.7071067811865475
vn -1 0 0
vn 0 0.7071067811865475 0.7071067811865477
usemtl m_1eb71f20-f142-4fac-88ae-03e62d65592e
f 164/364/91 167/363/91 165/362/91 162/361/91
f 163/368/92 164/367/92 162/366/92 161/365/92
f 168/372/93 163/371/93 161/370/93 166/369/93
f 167/376/94 168/375/94 166/374/94 165/373/94
f 167/380/95 164/379/95 163/378/95 168/377/95
o step_section_ring_1_0
v -0.8816262500000001 2.3944875000000003 1.0870875
v -0.8816262500000001 2.3944875000000003 1.9129125
v -0.8816262500000001 2.4977156249999997 1.0870875
v -0.8816262500000001 2.4977156249999997 1.9129125
v -1.29453875 2.3944875000000003 1.9129125
v -1.29453875 2.3944875000000003 1.0870875
v -1.29453875 2.4977156249999997 1.9129125
v -1.29453875 2.4977156249999997 1.0870875
vt 0.53125 0.875
vt 0.53125 0.84375
vt 0.5 0.84375
vt 0.5 0.875
vt 0.5 0.875
vt 0.75 0.875
vt 0.75 0.84375
vt 0.5 0.84375
vt 0.75 0.875
vt 0.75 0.84375
vt 0.71875 0.84375
vt 0.71875 0.875
vt 0.5 0.875
vt 0.75 0.875
vt 0.75 0.84375
vt 0.5 0.84375
vt 0.75 0.875
vt 0.75 0.84375
vt 0.5 0.84375
vt 0.5 0.875
vn 0 -1.2246467991473532e-16 1
vn 1 0 0
vn 0 1.2246467991473532e-16 -1
vn -1 0 0
vn 0 1 1.2246467991473532e-16
usemtl m_1eb71f20-f142-4fac-88ae-03e62d65592e
f 172/384/96 175/383/96 173/382/96 170/381/96
f 171/388/97 172/387/97 170/386/97 169/385/97
f 176/392/98 171/391/98 169/390/98 174/389/98
f 175/396/99 176/395/99 174/394/99 173/393/99
f 175/400/100 172/399/100 171/398/100 176/397/100
o step_section_ring_1_1
v -0.8816262500000001 1.8407755216441037 0.5761342707825152
v -0.8816262500000001 2.424721979217485 1.1600807283558958
v -0.8816262500000001 1.9137688288407766 0.5031409635858425
v -0.8816262500000001 2.497715286414157 1.087087421159223
v -1.29453875 2.424721979217485 1.1600807283558958
v -1.29453875 1.8407755216441037 0.5761342707825152
v -1.29453875 2.497715286414157 1.087087421159223
v -1.29453875 1.9137688288407766 0.5031409635858425
vt 0.53125 0.875
vt 0.53125 0.84375
vt 0.5 0.84375
vt 0.5 0.875
vt 0.5 0.875
vt 0.75 0.875
vt 0.75 0.84375
vt 0.5 0.84375
vt 0.75 0.875
vt 0.75 0.84375
vt 0.71875 0.84375
vt 0.71875 0.875
vt 0.5 0.875
vt 0.75 0.875
vt 0.75 0.84375
vt 0.5 0.84375
vt 0.75 0.875
vt 0.75 0.84375
vt 0.5 0.84375
vt 0.5 0.875
vn 0 0.7071067811865477 0.7071067811865475
vn 1 0 0
vn 0 -0.7071067811865477 -0.7071067811865475
vn -1 0 0
vn 0 0.7071067811865475 -0.7071067811865477
usemtl m_1eb71f20-f142-4fac-88ae-03e62d65592e
f 180/404/101 183/403/101 181/402/101 178/401/101
f 179/408/102 180/407/102 178/406/102 177/405/102
f 184/412/103 179/411/103 177/410/103 182/409/103
f 183/416/104 184/415/104 182/414/104 181/413/104
f 183/420/105 180/419/105 179/418/105 184/417/105
o step_section_ring_1_2
v -0.8816262500000001 1.087944375 0.6063687500000003
v -0.8816262500000001 1.913769375 0.6063687500000001
v -0.8816262500000001 1.087944375 0.5031406250000001
v -0.8816262500000001 1.913769375 0.5031406249999999
v -1.29453875 1.913769375 0.6063687500000001
v -1.29453875 1.087944375 0.6063687500000003
v -1.29453875 1.913769375 0.5031406249999999
v -1.29453875 1.087944375 0.5031406250000001
vt 0.53125 0.875
vt 0.53125 0.84375
vt 0.5 0.84375
vt 0.5 0.875
vt 0.5 0.875
vt 0.75 0.875
vt 0.75 0.84375
vt 0.5 0.84375
vt 0.75 0.875
vt 0.75 0.84375
vt 0.71875 0.84375
vt 0.71875 0.875
vt 0.5 0.875
vt 0.75 0.875
vt 0.75 0.84375
vt 0.5 0.84375
vt 0.75 0.875
vt 0.75 0.84375
vt 0.5 0.84375
vt 0.5 0.875
vn 0 1 -2.220446049250313e-16
vn 1 0 0
vn 0 -1 2.220446049250313e-16
vn -1 0 0
vn 0 -2.220446049250313e-16 -1
usemtl m_1eb71f20-f142-4fac-88ae-03e62d65592e
f 188/424/106 191/423/106 189/422/106 186/421/106
f 187/428/107 188/427/107 186/426/107 185/425/107
f 192/432/108 187/431/108 185/430/108 190/429/108
f 191/436/109 192/435/109 190/434/109 189/433/109
f 191/440/110 188/439/110 187/438/110 192/437/110
o step_section_ring_1_3
v -0.8816262500000001 0.5769911457825151 1.1600807283558956
v -0.8816262500000001 1.1609376033558958 0.5761342707825151
v -0.8816262500000001 0.5039978385858426 1.087087421159223
v -0.8816262500000001 1.0879442961592232 0.5031409635858426
v -1.29453875 1.1609376033558958 0.5761342707825151
v -1.29453875 0.5769911457825151 1.1600807283558956
v -1.29453875 1.0879442961592232 0.5031409635858426
v -1.29453875 0.5039978385858426 1.087087421159223
vt 0.53125 0.875
vt 0.53125 0.84375
vt 0.5 0.84375
vt 0.5 0.875
vt 0.5 0.875
vt 0.75 0.875
vt 0.75 0.84375
vt 0.5 0.84375
vt 0.75 0.875
vt 0.75 0.84375
vt 0.71875 0.84375
vt 0.71875 0.875
vt 0.5 0.875
vt 0.75 0.875
vt 0.75 0.84375
vt 0.5 0.84375
vt 0.75 0.875
vt 0.75 0.84375
vt 0.5 0.84375
vt 0.5 0.875
vn 0 0.7071067811865476 -0.7071067811865475
vn 1 0 0
vn 0 -0.7071067811865476 0.7071067811865475
vn -1 0 0
vn 0 -0.7071067811865475 -0.7071067811865476
usemtl m_1eb71f20-f142-4fac-88ae-03e62d65592e
f 196/444/111 199/443/111 197/442/111 194/441/111
f 195/448/112 196/447/112 194/446/112 193/445/112
f 200/452/113 195/451/113 193/450/113 198/449/113
f 199/456/114 200/455/114 198/454/114 197/453/114
f 199/460/115 196/459/115 195/458/115 200/457/115
o step_section_ring_1_4
v -0.8816262500000001 0.607225625 1.9129125
v -0.8816262500000001 0.607225625 1.0870875
v -0.8816262500000001 0.5039975 1.9129125
v -0.8816262500000001 0.5039975 1.0870875
v -1.29453875 0.607225625 1.0870875
v -1.29453875 0.607225625 1.9129125
v -1.29453875 0.5039975 1.0870875
v -1.29453875 0.5039975 1.9129125
vt 0.53125 0.875
vt 0.53125 0.84375
vt 0.5 0.84375
vt 0.5 0.875
vt 0.5 0.875
vt 0.75 0.875
vt 0.75 0.84375
vt 0.5 0.84375
vt 0.75 0.875
vt 0.75 0.84375
vt 0.71875 0.84375
vt 0.71875 0.875
vt 0.5 0.875
vt 0.75 0.875
vt 0.75 0.84375
vt 0.5 0.84375
vt 0.75 0.875
vt 0.75 0.84375
vt 0.5 0.84375
vt 0.5 0.875
vn 0 0 -1
vn 1 0 0
vn 0 0 1
vn -1 0 0
vn 0 -1 0
usemtl m_1eb71f20-f142-4fac-88ae-03e62d65592e
f 204/464/116 207/463/116 205/462/116 202/461/116
f 203/468/117 204/467/117 202/466/117 201/465/117
f 208/472/118 203/471/118 201/470/118 206/469/118
f 207/476/119 208/475/119 206/474/119 205/473/119
f 207/480/120 204/479/120 203/478/120 208/477/120
o step_section_ring_1_5
v -0.8816262500000001 1.1609376033558956 2.4238657292174848
v -0.8816262500000001 0.5769911457825148 1.8399192716441042
v -0.8816262500000001 1.087944296159223 2.4968590364141576
v -0.8816262500000001 0.5039978385858422 1.9129125788407768
v -1.29453875 0.5769911457825148 1.8399192716441042
v -1.29453875 1.1609376033558956 2.4238657292174848
v -1.29453875 0.5039978385858422 1.9129125788407768
v -1.29453875 1.087944296159223 2.4968590364141576
vt 0.53125 0.875
vt 0.53125 0.84375
vt 0.5 0.84375
vt 0.5 0.875
vt 0.5 0.875
vt 0.75 0.875
vt 0.75 0.84375
vt 0.5 0.84375
vt 0.75 0.875
vt 0.75 0.84375
vt 0.71875 0.84375
vt 0.71875 0.875
vt 0.5 0.875
vt 0.75 0.875
vt 0.75 0.84375
vt 0.5 0.84375
vt 0.75 0.875
vt 0.75 0.84375
vt 0.5 0.84375
vt 0.5 0.875
vn 0 -0.7071067811865476 -0.7071067811865475
vn 1 0 0
vn 0 0.7071067811865476 0.7071067811865475
vn -1 0 0
vn 0 -0.7071067811865475 0.7071067811865476
usemtl m_1eb71f20-f142-4fac-88ae-03e62d65592e
f 212/484/121 215/483/121 213/482/121 210/481/121
f 211/488/122 212/487/122 210/486/122 209/485/122
f 216/492/123 211/491/123 209/490/123 214/489/123
f 215/496/124 216/495/124 214/494/124 213/493/124
f 215/500/125 212/499/125 211/498/125 216/497/125
o step_section_ring_1_6
v -0.8816262500000001 1.913769375 2.39363125
v -0.8816262500000001 1.087944375 2.3936312499999994
v -0.8816262500000001 1.913769375 2.496859375
v -0.8816262500000001 1.087944375 2.4968593749999997
v -1.29453875 1.087944375 2.3936312499999994
v -1.29453875 1.913769375 2.39363125
v -1.29453875 1.087944375 2.4968593749999997
v -1.29453875 1.913769375 2.496859375
vt 0.53125 0.875
vt 0.53125 0.84375
vt 0.5 0.84375
vt 0.5 0.875
vt 0.5 0.875
vt 0.75 0.875
vt 0.75 0.84375
vt 0.5 0.84375
vt 0.75 0.875
vt 0.75 0.84375
vt 0.71875 0.84375
vt 0.71875 0.875
vt 0.5 0.875
vt 0.75 0.875
vt 0.75 0.84375
vt 0.5 0.84375
vt 0.75 0.875
vt 0.75 0.84375
vt 0.5 0.84375
vt 0.5 0.875
vn 0 -1 -2.220446049250313e-16
vn 1 0 0
vn 0 1 2.220446049250313e-16
vn -1 0 0
vn 0 -2.220446049250313e-16 1
usemtl m_1eb71f20-f142-4fac-88ae-03e62d65592e
f 220/504/126 223/503/126 221/502/126 218/501/126
f 219/508/127 220/507/127 218/506/127 217/505/127
f 224/512/128 219/511/128 217/510/128 222/509/128
f 223/516/129 224/515/129 222/514/129 221/513/129
f 223/520/130 220/519/130 219/518/130 224/517/130
o step_section_ring_1_7
v -0.8816262500000001 2.4247219792174843 1.8399192716441046
v -0.8816262500000001 1.8407755216441037 2.423865729217485
v -0.8816262500000001 2.497715286414157 1.9129125788407775
v -0.8816262500000001 1.9137688288407764 2.496859036414158
v -1.29453875 1.8407755216441037 2.423865729217485
v -1.29453875 2.4247219792174843 1.8399192716441046
v -1.29453875 1.9137688288407764 2.496859036414158
v -1.29453875 2.497715286414157 1.9129125788407775
vt 0.53125 0.875
vt 0.53125 0.84375
vt 0.5 0.84375
vt 0.5 0.875
vt 0.5 0.875
vt 0.75 0.875
vt 0.75 0.84375
vt 0.5 0.84375
vt 0.75 0.875
vt 0.75 0.84375
vt 0.71875 0.84375
vt 0.71875 0.875
vt 0.5 0.875
vt 0.75 0.875
vt 0.75 0.84375
vt 0.5 0.84375
vt 0.75 0.875
vt 0.75 0.84375
vt 0.5 0.84375
vt 0.5 0.875
vn 0 -0.7071067811865477 0.7071067811865475
vn 1 0 0
vn 0 0.7071067811865477 -0.7071067811865475
vn -1 0 0
vn 0 0.7071067811865475 0.7071067811865477
usemtl m_1eb71f20-f142-4fac-88ae-03e62d65592e
f 228/524/131 231/523/131 229/522/131 226/521/131
f 227/528/132 228/527/132 226/526/132 225/525/132
f 232/532/133 227/531/133 225/530/133 230/529/133
f 231/536/134 232/535/134 230/534/134 229/533/134
f 231/540/135 228/539/135 227/538/135 232/537/135
o step_section_ring_2_0
v -0.429730625 2.48385125 1.045795625
v -0.429730625 2.48385125 1.954203125
v -0.429730625 2.597401875 1.045795625
v -0.429730625 2.597401875 1.954203125
v -0.8839343749999999 2.48385125 1.954203125
v -0.8839343749999999 2.48385125 1.045795625
v -0.8839343749999999 2.597401875 1.954203125
v -0.8839343749999999 2.597401875 1.045795625
vt 0.53125 0.875
vt 0.53125 0.84375
vt 0.5 0.84375
vt 0.5 0.875
vt 0.5 0.875
vt 0.75 0.875
vt 0.75 0.84375
vt 0.5 0.84375
vt 0.75 0.875
vt 0.75 0.84375
vt 0.71875 0.84375
vt 0.71875 0.875
vt 0.5 0.875
vt 0.75 0.875
vt 0.75 0.84375
vt 0.5 0.84375
vt 0.75 0.875
vt 0.75 0.84375
vt 0.5 0.84375
vt 0.5 0.875
vn 0 -1.2246467991473532e-16 1
vn 1 0 0
vn 0 1.2246467991473532e-16 -1
vn -1 0 0
vn 0 1 1.2246467991473532e-16
usemtl m_1eb71f20-f142-4fac-88ae-03e62d65592e
f 236/544/136 239/543/136 237/542/136 234/541/136
f 235/548/137 236/547/137 234/546/137 233/545/137
f 240/552/138 235/551/138 233/550/138 238/549/138
f 239/556/139 240/555/139 238/554/139 237/553/139
f 239/560/140 236/559/140 235/558/140 240/557/140
o step_section_ring_2_1
v -0.429730625 1.8747684608327744 0.48374731083650685
v -0.429730625 2.5171095641634933 1.1260884141672256
v -0.429730625 1.9550608777782452 0.40345489389103595
v -0.429730625 2.5974019811089644 1.0457959972217545
v -0.8839343749999999 2.5171095641634933 1.1260884141672256
v -0.8839343749999999 1.8747684608327744 0.48374731083650685
v -0.8839343749999999 2.5974019811089644 1.0457959972217545
v -0.8839343749999999 1.9550608777782452 0.40345489389103595
vt 0.53125 0.875
vt 0.53125 0.84375
vt 0.5 0.84375
vt 0.5 0.875
vt 0.5 0.875
vt 0.75 0.875
vt 0.75 0.84375
vt 0.5 0.84375
vt 0.75 0.875
vt 0.75 0.84375
vt 0.71875 0.84375
vt 0.71875 0.875
vt 0.5 0.875
vt 0.75 0.875
vt 0.75 0.84375
vt 0.5 0.84375
vt 0.75 0.875
vt 0.75 0.84375
vt 0.5 0.84375
vt 0.5 0.875
vn 0 0.7071067811865477 0.7071067811865475
vn 1 0 0
vn 0 -0.7071067811865477 -0.7071067811865475
vn -1 0 0
vn 0 0.7071067811865475 -0.7071067811865477
usemtl m_1eb71f20-f142-4fac-88ae-03e62d65592e
f 244/564/141 247/563/141 245/562/141 242/561/141
f 243/568/142 244/567/142 242/566/142 241/565/142
f 248/572/143 243/571/143 241/570/143 246/569/143
f 247/576/144 248/575/144 246/574/144 245/573/144
f 247/580/145 244/579/145 243/578/145 248/577/145
o step_section_ring_2_2
v -0.429730625 1.046653125 0.51700625
v -0.429730625 1.955060625 0.5170062499999998
v -0.429730625 1.046653125 0.403455
v -0.429730625 1.955060625 0.4034549999999998
v -0.8839343749999999 1.955060625 0.5170062499999998
v -0.8839343749999999 1.046653125 0.51700625
v -0.8839343749999999 1.955060625 0.4034549999999998
v -0.8839343749999999 1.046653125 0.403455
vt 0.53125 0.875
vt 0.53125 0.84375
vt 0.5 0.84375
vt 0.5 0.875
vt 0.5 0.875
vt 0.75 0.875
vt 0.75 0.84375
vt 0.5 0.84375
vt 0.75 0.875
vt 0.75 0.84375
vt 0.71875 0.84375
vt 0.71875 0.875
vt 0.5 0.875
vt 0.75 0.875
vt 0.75 0.84375
vt 0.5 0.84375
vt 0.75 0.875
vt 0.75 0.84375
vt 0.5 0.84375
vt 0.5 0.875
vn 0 1 -2.220446049250313e-16
vn 1 0 0
vn 0 -1 2.220446049250313e-16
vn -1 0 0
vn 0 -2.220446049250313e-16 -1
usemtl m_1eb71f20-f142-4fac-88ae-03e62d65592e
f 252/584/146 255/583/146 253/582/146 250/581/146
f 251/588/147 252/587/147 250/586/147 249/585/147
f 256/592/148 251/591/148 249/590/148 254/589/148
f 255/596/149 256/595/149 254/594/149 253/593/149
f 255/600/150 252/599/150 251/598/150 256/597/150
o step_section_ring_2_3
v -0.429730625 0.484604627778245 1.126088856108964
v -0.429730625 1.1269457311089637 0.48374775277824517
v -0.429730625 0.40431176889103604 1.045795997221755
v -0.429730625 1.0466528722217547 0.4034548938910362
v -0.8839343749999999 1.1269457311089637 0.48374775277824517
v -0.8839343749999999 0.484604627778245 1.126088856108964
v -0.8839343749999999 1.0466528722217547 0.4034548938910362
v -0.8839343749999999 0.40431176889103604 1.045795997221755
vt 0.53125 0.875
vt 0.53125 0.84375
vt 0.5 0.84375
vt 0.5 0.875
vt 0.5 0.875
vt 0.75 0.875
vt 0.75 0.84375
vt 0.5 0.84375
vt 0.75 0.875
vt 0.75 0.84375
vt 0.71875 0.84375
vt 0.71875 0.875
vt 0.5 0.875
vt 0.75 0.875
vt 0.75 0.84375
vt 0.5 0.84375
vt 0.75 0.875
vt 0.75 0.84375
vt 0.5 0.84375
vt 0.5 0.875
vn 0 0.7071067811865476 -0.7071067811865475
vn 1 0 0
vn 0 -0.7071067811865476 0.7071067811865475
vn -1 0 0
vn 0 -0.7071067811865475 -0.7071067811865476
usemtl m_1eb71f20-f142-4fac-88ae-03e62d65592e
f 260/604/151 263/603/151 261/602/151 258/601/151
f 259/608/152 260/607/152 258/606/152 257/605/152
f 264/612/153 259/611/153 257/610/153 262/609/153
f 263/616/154 264/615/154 262/614/154 261/613/154
f 263/620/155 260/619/155 259/618/155 264/617/155
o step_section_ring_2_4
v -0.429730625 0.5178631249999999 1.95420375
v -0.429730625 0.5178631249999999 1.04579625
v -0.429730625 0.4043118749999999 1.95420375
v -0.429730625 0.4043118749999999 1.04579625
v -0.8839343749999999 0.5178631249999999 1.04579625
v -0.8839343749999999 0.5178631249999999 1.95420375
v -0.8839343749999999 0.4043118749999999 1.04579625
v -0.8839343749999999 0.4043118749999999 1.95420375
vt 0.53125 0.875
vt 0.53125 0.84375
vt 0.5 0.84375
vt 0.5 0.875
vt 0.5 0.875
vt 0.75 0.875
vt 0.75 0.84375
vt 0.5 0.84375
vt 0.75 0.875
vt 0.75 0.84375
vt 0.71875 0.84375
vt 0.71875 0.875
vt 0.5 0.875
vt 0.75 0.875
vt 0.75 0.84375
vt 0.5 0.84375
vt 0.75 0.875
vt 0.75 0.84375
vt 0.5 0.84375
vt 0.5 0.875
vn 0 0 -1
vn 1 0 0
vn 0 0 1
vn -1 0 0
vn 0 -1 0
usemtl m_1eb71f20-f142-4fac-88ae-03e62d65592e
f 268/624/156 271/623/156 269/622/156 266/621/156
f 267/628/157 268/627/157 266/626/157 265/625/157
f 272/632/158 267/631/158 265/630/158 270/629/158
f 271/636/159 272/635/159 270/634/159 269/633/159
f 271/640/160 268/639/160 267/638/160 272/637/160
o step_section_ring_2_5
v -0.429730625 1.1269457311089637 2.516252247221755
v -0.429730625 0.4846046277782451 1.873911143891036
v -0.429730625 1.0466528722217547 2.5965451061089637
v -0.429730625 0.40431176889103615 1.954204002778245
v -0.8839343749999999 0.4846046277782451 1.873911143891036
v -0.8839343749999999 1.1269457311089637 2.516252247221755
v -0.8839343749999999 0.40431176889103615 1.954204002778245
v -0.8839343749999999 1.0466528722217547 2.5965451061089637
vt 0.53125 0.875
vt 0.53125 0.84375
vt 0.5 0.84375
vt 0.5 0.875
vt 0.5 0.875
vt 0.75 0.875
vt 0.75 0.84375
vt 0.5 0.84375
vt 0.75 0.875
vt 0.75 0.84375
vt 0.71875 0.84375
vt 0.71875 0.875
vt 0.5 0.875
vt 0.75 0.875
vt 0.75 0.84375
vt 0.5 0.84375
vt 0.75 0.875
vt 0.75 0.84375
vt 0.5 0.84375
vt 0.5 0.875
vn 0 -0.7071067811865476 -0.7071067811865475
vn 1 0 0
vn 0 0.7071067811865476 0.7071067811865475
vn -1 0 0
vn 0 -0.7071067811865475 0.7071067811865476
usemtl m_1eb71f20-f142-4fac-88ae-03e62d65592e
f 276/644/161 279/643/161 277/642/161 274/641/161
f 275/648/162 276/647/162 274/646/162 273/645/162
f 280/652/163 275/651/163 273/650/163 278/649/163
f 279/656/164 280/655/164 278/654/164 277/653/164
f 279/660/165 276/659/165 275/658/165 280/657/165
o step_section_ring_2_6
v -0.429730625 1.955060625 2.4829937500000003
v -0.429730625 1.046653125 2.48299375
v -0.429730625 1.955060625 2.5965450000000003
v -0.429730625 1.046653125 2.596545
v -0.8839343749999999 1.046653125 2.48299375
v -0.8839343749999999 1.955060625 2.4829937500000003
v -0.8839343749999999 1.046653125 2.596545
v -0.8839343749999999 1.955060625 2.5965450000000003
vt 0.53125 0.875
vt 0.53125 0.84375
vt 0.5 0.84375
vt 0.5 0.875
vt 0.5 0.875
vt 0.75 0.875
vt 0.75 0.84375
vt 0.5 0.84375
vt 0.75 0.875
vt 0.75 0.84375
vt 0.71875 0.84375
vt 0.71875 0.875
vt 0.5 0.875
vt 0.75 0.875
vt 0.75 0.84375
vt 0.5 0.84375
vt 0.75 0.875
vt 0.75 0.84375
vt 0.5 0.84375
vt 0.5 0.875
vn 0 -1 -2.220446049250313e-16
vn 1 0 0
vn 0 1 2.220446049250313e-16
vn -1 0 0
vn 0 -2.220446049250313e-16 1
usemtl m_1eb71f20-f142-4fac-88ae-03e62d65592e
f 284/664/166 287/663/166 285/662/166 282/661/166
f 283/668/167 284/667/167 282/666/167 281/665/167
f 288/672/168 283/671/168 281/670/168 286/669/168
f 287/676/169 288/675/169 286/674/169 285/673/169
f 287/680/170 284/679/170 283/678/170 288/677/170
o step_section_ring_2_7
v -0.429730625 2.5171095641634933 1.8739115858327744
v -0.429730625 1.8747684608327744 2.516252689163493
v -0.429730625 2.5974019811089644 1.9542040027782452
v -0.429730625 1.9550608777782452 2.5965451061089637
v -0.8839343749999999 1.8747684608327744 2.516252689163493
v -0.8839343749999999 2.5171095641634933 1.8739115858327744
v -0.8839343749999999 1.9550608777782452 2.5965451061089637
v -0.8839343749999999 2.5974019811089644 1.9542040027782452
vt 0.53125 0.875
vt 0.53125 0.84375
vt 0.5 0.84375
vt 0.5 0.875
vt 0.5 0.875
vt 0.75 0.875
vt 0.75 0.84375
vt 0.5 0.84375
vt 0.75 0.875
vt 0.75 0.84375
vt 0.71875 0.84375
vt 0.71875 0.875
vt 0.5 0.875
vt 0.75 0.875
vt 0.75 0.84375
vt 0.5 0.84375
vt 0.75 0.875
vt 0.75 0.84375
vt 0.5 0.84375
vt 0.5 0.875
vn 0 -0.7071067811865477 0.7071067811865475
vn 1 0 0
vn 0 0.7071067811865477 -0.7071067811865475
vn -1 0 0
vn 0 0.7071067811865475 0.7071067811865477
usemtl m_1eb71f20-f142-4fac-88ae-03e62d65592e
f 292/684/171 295/683/171 293/682/171 290/681/171
f 291/688/172 292/687/172 290/686/172 289/685/172
f 296/692/173 291/691/173 289/690/173 294/689/173
f 295/696/174 296/695/174 294/694/174 293/693/174
f 295/700/175 292/699/175 291/698/175 296/697/175
o main_body_ring_0
v 1.6234278124999992 2.7113207687500003 0.9406912500000002
v 1.6234278124999992 2.7113207687500003 2.0593087500000005
v 1.6234278124999992 2.85114795625 0.9406912500000002
v 1.6234278124999992 2.85114795625 2.0593087500000005
v 1.4994784374999997 2.7113207687500003 2.0593087500000005
v 1.4994784374999997 2.7113207687500003 0.9406912500000002
v 1.4994784374999997 2.85114795625 2.0593087500000005
v 1.4994784374999997 2.85114795625 0.9406912500000002
vt 0.53125 0.875
vt 0.53125 0.84375
vt 0.5 0.84375
vt 0.5 0.875
vt 0.5 0.875
vt 0.75 0.875
vt 0.75 0.84375
vt 0.5 0.84375
vt 0.75 0.875
vt 0.75 0.84375
vt 0.71875 0.84375
vt 0.71875 0.875
vt 0.5 0.875
vt 0.75 0.875
vt 0.75 0.84375
vt 0.5 0.84375
vt 0.75 0.875
vt 0.75 0.84375
vt 0.5 0.84375
vt 0.5 0.875
vn 0 -1.2246467991473532e-16 1
vn 1 0 0
vn 0 1.2246467991473532e-16 -1
vn -1 0 0
vn 0 1 1.2246467991473532e-16
usemtl m_1eb71f20-f142-4fac-88ae-03e62d65592e
f 300/704/176 303/703/176 301/702/176 298/701/176
f 299/708/177 300/707/177 298/706/177 297/705/177
f 304/712/178 299/711/178 297/710/178 302/709/178
f 303/716/179 304/715/179 302/714/179 301/713/179
f 303/720/180 300/719/180 299/718/180 304/717/180
o main_body_ring_1
v 1.6234278124999992 1.9612926013602814 0.24858225383577537
v 1.6234278124999992 2.7522746211642244 1.0395642736397182
v 1.6234278124999992 2.0601653538357745 0.14970950136028255
v 1.6234278124999992 2.8511473736397175 0.9406915211642253
v 1.4994784374999997 2.7522746211642244 1.0395642736397182
v 1.4994784374999997 1.9612926013602814 0.24858225383577537
v 1.4994784374999997 2.8511473736397175 0.9406915211642253
v 1.4994784374999997 2.0601653538357745 0.14970950136028255
vt 0.53125 0.875
vt 0.53125 0.84375
vt 0.5 0.84375
vt 0.5 0.875
vt 0.5 0.875
vt 0.75 0.875
vt 0.75 0.84375
vt 0.5 0.84375
vt 0.75 0.875
vt 0.75 0.84375
vt 0.71875 0.84375
vt 0.71875 0.875
vt 0.5 0.875
vt 0.75 0.875
vt 0.75 0.84375
vt 0.5 0.84375
vt 0.75 0.875
vt 0.75 0.84375
vt 0.5 0.84375
vt 0.5 0.875
vn 0 0.7071067811865477 0.7071067811865475
vn 1 0 0
vn 0 -0.7071067811865477 -0.7071067811865475
vn -1 0 0
vn 0 0.7071067811865475 -0.7071067811865477
usemtl m_1eb71f20-f142-4fac-88ae-03e62d65592e
f 308/724/181 311/723/181 309/722/181 306/721/181
f 307/728/182 308/727/182 306/726/182 305/725/182
f 312/732/183 307/731/183 305/730/183 310/729/183
f 311/736/184 312/735/184 310/734/184 309/733/184
f 311/740/185 308/739/185 307/738/185 312/737/185
o main_body_ring_2
v 1.6234278124999992 0.941548125 0.2895361062499998
v 1.6234278124999992 2.0601656250000002 0.2895361062499996
v 1.6234278124999992 0.941548125 0.14970891874999992
v 1.6234278124999992 2.0601656250000002 0.1497089187499997
v 1.4994784374999997 2.0601656250000002 0.2895361062499996
v 1.4994784374999997 0.941548125 0.2895361062499998
v 1.4994784374999997 2.0601656250000002 0.1497089187499997
v 1.4994784374999997 0.941548125 0.14970891874999992
vt 0.53125 0.875
vt 0.53125 0.84375
vt 0.5 0.84375
vt 0.5 0.875
vt 0.5 0.875
vt 0.75 0.875
vt 0.75 0.84375
vt 0.5 0.84375
vt 0.75 0.875
vt 0.75 0.84375
vt 0.71875 0.84375
vt 0.71875 0.875
vt 0.5 0.875
vt 0.75 0.875
vt 0.75 0.84375
vt 0.5 0.84375
vt 0.75 0.875
vt 0.75 0.84375
vt 0.5 0.84375
vt 0.5 0.875
vn 0 1 -2.220446049250313e-16
vn 1 0 0
vn 0 -1 2.220446049250313e-16
vn -1 0 0
vn 0 -2.220446049250313e-16 -1
usemtl m_1eb71f20-f142-4fac-88ae-03e62d65592e
f 316/744/186 319/743/186 317/742/186 314/741/186
f 315/748/187 316/747/187 314/746/187 313/745/187
f 320/752/188 315/751/188 313/750/188 318/749/188
f 319/756/189 320/755/189 318/754/189 317/753/189
f 319/760/190 316/759/190 315/758/190 320/757/190
o main_body_ring_3
v 1.6234278124999992 0.24943912883577485 1.0395642736397177
v 1.6234278124999992 1.0404211486397177 0.24858225383577492
v 1.6234278124999992 0.15056637636028208 0.9406915211642249
v 1.6234278124999992 0.941548396164225 0.14970950136028216
v 1.4994784374999997 1.0404211486397177 0.24858225383577492
v 1.4994784374999997 0.24943912883577485 1.0395642736397177
v 1.4994784374999997 0.941548396164225 0.14970950136028216
v 1.4994784374999997 0.15056637636028208 0.9406915211642249
vt 0.53125 0.875
vt 0.53125 0.84375
vt 0.5 0.84375
vt 0.5 0.875
vt 0.5 0.875
vt 0.75 0.875
vt 0.75 0.84375
vt 0.5 0.84375
vt 0.75 0.875
vt 0.75 0.84375
vt 0.71875 0.84375
vt 0.71875 0.875
vt 0.5 0.875
vt 0.75 0.875
vt 0.75 0.84375
vt 0.5 0.84375
vt 0.75 0.875
vt 0.75 0.84375
vt 0.5 0.84375
vt 0.5 0.875
vn 0 0.7071067811865476 -0.7071067811865475
vn 1 0 0
vn 0 -0.7071067811865476 0.7071067811865475
vn -1 0 0
vn 0 -0.7071067811865475 -0.7071067811865476
usemtl m_1eb71f20-f142-4fac-88ae-03e62d65592e
f 324/764/191 327/763/191 325/762/191 322/761/191
f 323/768/192 324/767/192 322/766/192 321/765/192
f 328/772/193 323/771/193 321/770/193 326/769/193
f 327/776/194 328/775/194 326/774/194 325/773/194
f 327/780/195 324/779/195 323/778/195 328/777/195
o main_body_ring_4
v 1.6234278124999992 0.2903929812499999 2.05930875
v 1.6234278124999992 0.2903929812499999 0.94069125
v 1.6234278124999992 0.1505657937499998 2.05930875
v 1.6234278124999992 0.1505657937499998 0.94069125
v 1.4994784374999997 0.2903929812499999 0.94069125
v 1.4994784374999997 0.2903929812499999 2.05930875
v 1.4994784374999997 0.1505657937499998 0.94069125
v 1.4994784374999997 0.1505657937499998 2.05930875
vt 0.53125 0.875
vt 0.53125 0.84375
vt 0.5 0.84375
vt 0.5 0.875
vt 0.5 0.875
vt 0.75 0.875
vt 0.75 0.84375
vt 0.5 0.84375
vt 0.75 0.875
vt 0.75 0.84375
vt 0.71875 0.84375
vt 0.71875 0.875
vt 0.5 0.875
vt 0.75 0.875
vt 0.75 0.84375
vt 0.5 0.84375
vt 0.75 0.875
vt 0.75 0.84375
vt 0.5 0.84375
vt 0.5 0.875
vn 0 0 -1
vn 1 0 0
vn 0 0 1
vn -1 0 0
vn 0 -1 0
usemtl m_1eb71f20-f142-4fac-88ae-03e62d65592e
f 332/784/196 335/783/196 333/782/196 330/781/196
f 331/788/197 332/787/197 330/786/197 329/785/197
f 336/792/198 331/791/198 329/790/198 334/789/198
f 335/796/199 336/795/199 334/794/199 333/793/199
f 335/800/200 332/799/200 331/798/200 336/797/200
o main_body_ring_5
v 1.6234278124999992 1.0404211486397181 2.751417746164225
v 1.6234278124999992 0.24943912883577513 1.9604357263602825
v 1.6234278124999992 0.9415483961642253 2.850290498639718
v 1.6234278124999992 0.15056637636028236 2.059308478835775
v 1.4994784374999997 0.24943912883577513 1.9604357263602825
v 1.4994784374999997 1.0404211486397181 2.751417746164225
v 1.4994784374999997 0.15056637636028236 2.059308478835775
v 1.4994784374999997 0.9415483961642253 2.850290498639718
vt 0.53125 0.875
vt 0.53125 0.84375
vt 0.5 0.84375
vt 0.5 0.875
vt 0.5 0.875
vt 0.75 0.875
vt 0.75 0.84375
vt 0.5 0.84375
vt 0.75 0.875
vt 0.75 0.84375
vt 0.71875 0.84375
vt 0.71875 0.875
vt 0.5 0.875
vt 0.75 0.875
vt 0.75 0.84375
vt 0.5 0.84375
vt 0.75 0.875
vt 0.75 0.84375
vt 0.5 0.84375
vt 0.5 0.875
vn 0 -0.7071067811865476 -0.7071067811865475
vn 1 0 0
vn 0 0.7071067811865476 0.7071067811865475
vn -1 0 0
vn 0 -0.7071067811865475 0.7071067811865476
usemtl m_1eb71f20-f142-4fac-88ae-03e62d65592e
f 340/804/201 343/803/201 341/802/201 338/801/201
f 339/808/202 340/807/202 338/806/202 337/805/202
f 344/812/203 339/811/203 337/810/203 342/809/203
f 343/816/204 344/815/204 342/814/204 341/813/204
f 343/820/205 340/819/205 339/818/205 344/817/205
o main_body_ring_6
v 1.6234278124999992 2.0601656250000007 2.7104638937500005
v 1.6234278124999992 0.9415481249999995 2.71046389375
v 1.6234278124999992 2.0601656250000007 2.8502910812500004
v 1.6234278124999992 0.9415481249999995 2.85029108125
v 1.4994784374999997 0.9415481249999995 2.71046389375
v 1.4994784374999997 2.0601656250000007 2.7104638937500005
v 1.4994784374999997 0.9415481249999995 2.85029108125
v 1.4994784374999997 2.0601656250000007 2.8502910812500004
vt 0.53125 0.875
vt 0.53125 0.84375
vt 0.5 0.84375
vt 0.5 0.875
vt 0.5 0.875
vt 0.75 0.875
vt 0.75 0.84375
vt 0.5 0.84375
vt 0.75 0.875
vt 0.75 0.84375
vt 0.71875 0.84375
vt 0.71875 0.875
vt 0.5 0.875
vt 0.75 0.875
vt 0.75 0.84375
vt 0.5 0.84375
vt 0.75 0.875
vt 0.75 0.84375
vt 0.5 0.84375
vt 0.5 0.875
vn 0 -1 -2.220446049250313e-16
vn 1 0 0
vn 0 1 2.220446049250313e-16
vn -1 0 0
vn 0 -2.220446049250313e-16 1
usemtl m_1eb71f20-f142-4fac-88ae-03e62d65592e
f 348/824/206 351/823/206 349/822/206 346/821/206
f 347/828/207 348/827/207 346/826/207 345/825/207
f 352/832/208 347/831/208 345/830/208 350/829/208
f 351/836/209 352/835/209 350/834/209 349/833/209
f 351/840/210 348/839/210 347/838/210 352/837/210
o main_body_ring_7
v 1.6234278124999992 2.752274621164225 1.9604357263602814
v 1.6234278124999992 1.9612926013602818 2.751417746164224
v 1.6234278124999992 2.8511473736397175 2.0593084788357743
v 1.6234278124999992 2.0601653538357745 2.8502904986397173
v 1.4994784374999997 1.9612926013602818 2.751417746164224
v 1.4994784374999997 2.752274621164225 1.9604357263602814
v 1.4994784374999997 2.0601653538357745 2.8502904986397173
v 1.4994784374999997 2.8511473736397175 2.0593084788357743
vt 0.53125 0.875
vt 0.53125 0.84375
vt 0.5 0.84375
vt 0.5 0.875
vt 0.5 0.875
vt 0.75 0.875
vt 0.75 0.84375
vt 0.5 0.84375
vt 0.75 0.875
vt 0.75 0.84375
vt 0.71875 0.84375
vt 0.71875 0.875
vt 0.5 0.875
vt 0.75 0.875
vt 0.75 0.84375
vt 0.5 0.84375
vt 0.75 0.875
vt 0.75 0.84375
vt 0.5 0.84375
vt 0.5 0.875
vn 0 -0.7071067811865477 0.7071067811865475
vn 1 0 0
vn 0 0.7071067811865477 -0.7071067811865475
vn -1 0 0
vn 0 0.7071067811865475 0.7071067811865477
usemtl m_1eb71f20-f142-4fac-88ae-03e62d65592e
f 356/844/211 359/843/211 357/842/211 354/841/211
f 355/848/212 356/847/212 354/846/212 353/845/212
f 360/852/213 355/851/213 353/850/213 358/849/213
f 359/856/214 360/855/214 358/854/214 357/853/214
f 359/860/215 356/859/215 355/858/215 360/857/215
o pipe0_1
v -0.375 1.75 2.9375
v -0.375 1.75 2.8125
v -0.375 0.625 2.9375
v -0.375 0.625 2.8125
v -0.5 1.75 2.8125
v -0.5 1.75 2.9375
v -0.5 0.625 2.8125
v -0.5 0.625 2.9375
vt 0.859375 1
vt 0.921875 1
vt 0.921875 0.625
vt 0.859375 0.625
vt 0.859375 1
vt 0.921875 1
vt 0.921875 0.625
vt 0.859375 0.625
vt 0.859375 1
vt 0.921875 1
vt 0.921875 0.625
vt 0.859375 0.625
vt 0.859375 1
vt 0.921875 1
vt 0.921875 0.625
vt 0.859375 0.625
vt 0.859375 1
vt 0.921875 1
vt 0.921875 0.9375
vt 0.859375 0.9375
vt 0.859375 0.6875
vt 0.921875 0.6875
vt 0.921875 0.625
vt 0.859375 0.625
vn 0 0 -1
vn 1 0 0
vn 0 0 1
vn -1 0 0
vn 0 1 0
vn 0 -1 0
usemtl m_1eb71f20-f142-4fac-88ae-03e62d65592e
f 364/864/216 367/863/216 365/862/216 362/861/216
f 363/868/217 364/867/217 362/866/217 361/865/217
f 368/872/218 363/871/218 361/870/218 366/869/218
f 367/876/219 368/875/219 366/874/219 365/873/219
f 366/880/220 361/879/220 362/878/220 365/877/220
f 367/884/221 364/883/221 363/882/221 368/881/221
o pipe0_2
v -0.37968749999999996 1.9508711280270434 2.6981111115253196
v -0.37968749999999996 1.8551155726371713 2.617762660314502
v -0.37968749999999996 1.75 2.9375
v -0.37968749999999996 1.6542444446101277 2.857151548789183
v -0.49531250000000004 1.8551155726371713 2.617762660314502
v -0.49531250000000004 1.9508711280270434 2.6981111115253196
v -0.49531250000000004 1.6542444446101277 2.857151548789183
v -0.49531250000000004 1.75 2.9375
vt 0.859375 1
vt 0.921875 1
vt 0.921875 0.8203125
vt 0.859375 0.8203125
vt 0.859375 1
vt 0.921875 1
vt 0.921875 0.8203125
vt 0.859375 0.8203125
vt 0.859375 1
vt 0.921875 1
vt 0.921875 0.8203125
vt 0.859375 0.8203125
vt 0.859375 1
vt 0.921875 1
vt 0.921875 0.8203125
vt 0.859375 0.8203125
vt 0.859375 1
vt 0.921875 1
vt 0.921875 0.9375
vt 0.859375 0.9375
vt 0.859375 0.6875
vt 0.921875 0.6875
vt 0.921875 0.625
vt 0.859375 0.625
vn 0 -0.766044443118978 -0.6427876096865393
vn 1 0 0
vn 0 0.766044443118978 0.6427876096865393
vn -1 0 0
vn 0 0.6427876096865393 -0.766044443118978
vn 0 -0.6427876096865393 0.766044443118978
usemtl m_1eb71f20-f142-4fac-88ae-03e62d65592e
f 372/888/222 375/887/222 373/886/222 370/885/222
f 371/892/223 372/891/223 370/890/223 369/889/223
f 376/896/224 371/895/224 369/894/224 374/893/224
f 375/900/225 376/899/225 374/898/225 373/897/225
f 374/904/226 369/903/226 370/902/226 373/901/226
f 375/908/227 372/907/227 371/906/227 376/905/227
o pipe1_0
v -0.1875 1.75 2.9375
v -0.1875 1.75 2.8125
v -0.1875 0.625 2.9375
v -0.1875 0.625 2.8125
v -0.3125 1.75 2.8125
v -0.3125 1.75 2.9375
v -0.3125 0.625 2.8125
v -0.3125 0.625 2.9375
vt 0.859375 1
vt 0.921875 1
vt 0.921875 0.625
vt 0.859375 0.625
vt 0.859375 1
vt 0.921875 1
vt 0.921875 0.625
vt 0.859375 0.625
vt 0.859375 1
vt 0.921875 1
vt 0.921875 0.625
vt 0.859375 0.625
vt 0.859375 1
vt 0.921875 1
vt 0.921875 0.625
vt 0.859375 0.625
vt 0.859375 1
vt 0.921875 1
vt 0.921875 0.9375
vt 0.859375 0.9375
vt 0.859375 0.6875
vt 0.921875 0.6875
vt 0.921875 0.625
vt 0.859375 0.625
vn 0 0 -1
vn 1 0 0
vn 0 0 1
vn -1 0 0
vn 0 1 0
vn 0 -1 0
usemtl m_1eb71f20-f142-4fac-88ae-03e62d65592e
f 380/912/228 383/911/228 381/910/228 378/909/228
f 379/916/229 380/915/229 378/914/229 377/913/229
f 384/920/230 379/919/230 377/918/230 382/917/230
f 383/924/231 384/923/231 382/922/231 381/921/231
f 382/928/232 377/927/232 378/926/232 381/925/232
f 383/932/233 380/931/233 379/930/233 384/929/233
o pipe1_1
v -0.19218749999999996 1.9508711280270434 2.6981111115253196
v -0.19218749999999996 1.8551155726371713 2.617762660314502
v -0.19218749999999996 1.75 2.9375
v -0.19218749999999996 1.6542444446101277 2.857151548789183
v -0.30781250000000004 1.8551155726371713 2.617762660314502
v -0.30781250000000004 1.9508711280270434 2.6981111115253196
v -0.30781250000000004 1.6542444446101277 2.857151548789183
v -0.30781250000000004 1.75 2.9375
vt 0.859375 1
vt 0.921875 1
vt 0.921875 0.8203125
vt 0.859375 0.8203125
vt 0.859375 1
vt 0.921875 1
vt 0.921875 0.8203125
vt 0.859375 0.8203125
vt 0.859375 1
vt 0.921875 1
vt 0.921875 0.8203125
vt 0.859375 0.8203125
vt 0.859375 1
vt 0.921875 1
vt 0.921875 0.8203125
vt 0.859375 0.8203125
vt 0.859375 1
vt 0.921875 1
vt 0.921875 0.9375
vt 0.859375 0.9375
vt 0.859375 0.6875
vt 0.921875 0.6875
vt 0.921875 0.625
vt 0.859375 0.625
vn 0 -0.766044443118978 -0.6427876096865393
vn 1 0 0
vn 0 0.766044443118978 0.6427876096865393
vn -1 0 0
vn 0 0.6427876096865393 -0.766044443118978
vn 0 -0.6427876096865393 0.766044443118978
usemtl m_1eb71f20-f142-4fac-88ae-03e62d65592e
f 388/936/234 391/935/234 389/934/234 386/933/234
f 387/940/235 388/939/235 386/938/235 385/937/235
f 392/944/236 387/943/236 385/942/236 390/941/236
f 391/948/237 392/947/237 390/946/237 389/945/237
f 390/952/238 385/951/238 386/950/238 389/949/238
f 391/956/239 388/955/239 387/954/239 392/953/239
o pipe2_0
v 0 1.75 2.9375
v 0 1.75 2.8125
v 0 0.625 2.9375
v 0 0.625 2.8125
v -0.125 1.75 2.8125
v -0.125 1.75 2.9375
v -0.125 0.625 2.8125
v -0.125 0.625 2.9375
vt 0.859375 1
vt 0.921875 1
vt 0.921875 0.625
vt 0.859375 0.625
vt 0.859375 1
vt 0.921875 1
vt 0.921875 0.625
vt 0.859375 0.625
vt 0.859375 1
vt 0.921875 1
vt 0.921875 0.625
vt 0.859375 0.625
vt 0.859375 1
vt 0.921875 1
vt 0.921875 0.625
vt 0.859375 0.625
vt 0.859375 1
vt 0.921875 1
vt 0.921875 0.9375
vt 0.859375 0.9375
vt 0.859375 0.6875
vt 0.921875 0.6875
vt 0.921875 0.625
vt 0.859375 0.625
vn 0 0 -1
vn 1 0 0
vn 0 0 1
vn -1 0 0
vn 0 1 0
vn 0 -1 0
usemtl m_1eb71f20-f142-4fac-88ae-03e62d65592e
f 396/960/240 399/959/240 397/958/240 394/957/240
f 395/964/241 396/963/241 394/962/241 393/961/241
f 400/968/242 395/967/242 393/966/242 398/965/242
f 399/972/243 400/971/243 398/970/243 397/969/243
f 398/976/244 393/975/244 394/974/244 397/973/244
f 399/980/245 396/979/245 395/978/245 400/977/245
o pipe2_1
v -0.004687499999999956 1.9508711280270434 2.6981111115253196
v -0.004687499999999956 1.8551155726371713 2.617762660314502
v -0.004687499999999956 1.75 2.9375
v -0.004687499999999956 1.6542444446101277 2.857151548789183
v -0.12031250000000004 1.8551155726371713 2.617762660314502
v -0.12031250000000004 1.9508711280270434 2.6981111115253196
v -0.12031250000000004 1.6542444446101277 2.857151548789183
v -0.12031250000000004 1.75 2.9375
vt 0.859375 1
vt 0.921875 1
vt 0.921875 0.8203125
vt 0.859375 0.8203125
vt 0.859375 1
vt 0.921875 1
vt 0.921875 0.8203125
vt 0.859375 0.8203125
vt 0.859375 1
vt 0.921875 1
vt 0.921875 0.8203125
vt 0.859375 0.8203125
vt 0.859375 1
vt 0.921875 1
vt 0.921875 0.8203125
vt 0.859375 0.8203125
vt 0.859375 1
vt 0.921875 1
vt 0.921875 0.9375
vt 0.859375 0.9375
vt 0.859375 0.6875
vt 0.921875 0.6875
vt 0.921875 0.625
vt 0.859375 0.625
vn 0 -0.766044443118978 -0.6427876096865393
vn 1 0 0
vn 0 0.766044443118978 0.6427876096865393
vn -1 0 0
vn 0 0.6427876096865393 -0.766044443118978
vn 0 -0.6427876096865393 0.766044443118978
usemtl m_1eb71f20-f142-4fac-88ae-03e62d65592e
f 404/984/246 407/983/246 405/982/246 402/981/246
f 403/988/247 404/987/247 402/986/247 401/985/247
f 408/992/248 403/991/248 401/990/248 406/989/248
f 407/996/249 408/995/249 406/994/249 405/993/249
f 406/1000/250 401/999/250 402/998/250 405/997/250
f 407/1004/251 404/1003/251 403/1002/251 408/1001/251
o pipe3_0
v 0.1875 1.75 2.9375
v 0.1875 1.75 2.8125
v 0.1875 0.625 2.9375
v 0.1875 0.625 2.8125
v 0.0625 1.75 2.8125
v 0.0625 1.75 2.9375
v 0.0625 0.625 2.8125
v 0.0625 0.625 2.9375
vt 0.859375 1
vt 0.921875 1
vt 0.921875 0.625
vt 0.859375 0.625
vt 0.859375 1
vt 0.921875 1
vt 0.921875 0.625
vt 0.859375 0.625
vt 0.859375 1
vt 0.921875 1
vt 0.921875 0.625
vt 0.859375 0.625
vt 0.859375 1
vt 0.921875 1
vt 0.921875 0.625
vt 0.859375 0.625
vt 0.859375 1
vt 0.921875 1
vt 0.921875 0.9375
vt 0.859375 0.9375
vt 0.859375 0.6875
vt 0.921875 0.6875
vt 0.921875 0.625
vt 0.859375 0.625
vn 0 0 -1
vn 1 0 0
vn 0 0 1
vn -1 0 0
vn 0 1 0
vn 0 -1 0
usemtl m_1eb71f20-f142-4fac-88ae-03e62d65592e
f 412/1008/252 415/1007/252 413/1006/252 410/1005/252
f 411/1012/253 412/1011/253 410/1010/253 409/1009/253
f 416/1016/254 411/1015/254 409/1014/254 414/1013/254
f 415/1020/255 416/1019/255 414/1018/255 413/1017/255
f 414/1024/256 409/1023/256 410/1022/256 413/1021/256
f 415/1028/257 412/1027/257 411/1026/257 416/1025/257
o pipe3_1
v 0.18281250000000004 1.9508711280270434 2.6981111115253196
v 0.18281250000000004 1.8551155726371713 2.617762660314502
v 0.18281250000000004 1.75 2.9375
v 0.18281250000000004 1.6542444446101277 2.857151548789183
v 0.06718749999999996 1.8551155726371713 2.617762660314502
v 0.06718749999999996 1.9508711280270434 2.6981111115253196
v 0.06718749999999996 1.6542444446101277 2.857151548789183
v 0.06718749999999996 1.75 2.9375
vt 0.859375 1
vt 0.921875 1
vt 0.921875 0.8203125
vt 0.859375 0.8203125
vt 0.859375 1
vt 0.921875 1
vt 0.921875 0.8203125
vt 0.859375 0.8203125
vt 0.859375 1
vt 0.921875 1
vt 0.921875 0.8203125
vt 0.859375 0.8203125
vt 0.859375 1
vt 0.921875 1
vt 0.921875 0.8203125
vt 0.859375 0.8203125
vt 0.859375 1
vt 0.921875 1
vt 0.921875 0.9375
vt 0.859375 0.9375
vt 0.859375 0.6875
vt 0.921875 0.6875
vt 0.921875 0.625
vt 0.859375 0.625
vn 0 -0.766044443118978 -0.6427876096865393
vn 1 0 0
vn 0 0.766044443118978 0.6427876096865393
vn -1 0 0
vn 0 0.6427876096865393 -0.766044443118978
vn 0 -0.6427876096865393 0.766044443118978
usemtl m_1eb71f20-f142-4fac-88ae-03e62d65592e
f 420/1032/258 423/1031/258 421/1030/258 418/1029/258
f 419/1036/259 420/1035/259 418/1034/259 417/1033/259
f 424/1040/260 419/1039/260 417/1038/260 422/1037/260
f 423/1044/261 424/1043/261 422/1042/261 421/1041/261
f 422/1048/262 417/1047/262 418/1046/262 421/1045/262
f 423/1052/263 420/1051/263 419/1050/263 424/1049/263
o pipe4_0
v 0.375 1.75 2.9375
v 0.375 1.75 2.8125
v 0.375 0.625 2.9375
v 0.375 0.625 2.8125
v 0.25 1.75 2.8125
v 0.25 1.75 2.9375
v 0.25 0.625 2.8125
v 0.25 0.625 2.9375
vt 0.859375 1
vt 0.921875 1
vt 0.921875 0.625
vt 0.859375 0.625
vt 0.859375 1
vt 0.921875 1
vt 0.921875 0.625
vt 0.859375 0.625
vt 0.859375 1
vt 0.921875 1
vt 0.921875 0.625
vt 0.859375 0.625
vt 0.859375 1
vt 0.921875 1
vt 0.921875 0.625
vt 0.859375 0.625
vt 0.859375 1
vt 0.921875 1
vt 0.921875 0.9375
vt 0.859375 0.9375
vt 0.859375 0.6875
vt 0.921875 0.6875
vt 0.921875 0.625
vt 0.859375 0.625
vn 0 0 -1
vn 1 0 0
vn 0 0 1
vn -1 0 0
vn 0 1 0
vn 0 -1 0
usemtl m_1eb71f20-f142-4fac-88ae-03e62d65592e
f 428/1056/264 431/1055/264 429/1054/264 426/1053/264
f 427/1060/265 428/1059/265 426/1058/265 425/1057/265
f 432/1064/266 427/1063/266 425/1062/266 430/1061/266
f 431/1068/267 432/1067/267 430/1066/267 429/1065/267
f 430/1072/268 425/1071/268 426/1070/268 429/1069/268
f 431/1076/269 428/1075/269 427/1074/269 432/1073/269
o pipe4_1
v 0.37031250000000004 1.9508711280270434 2.6981111115253196
v 0.37031250000000004 1.8551155726371713 2.617762660314502
v 0.37031250000000004 1.75 2.9375
v 0.37031250000000004 1.6542444446101277 2.857151548789183
v 0.25468749999999996 1.8551155726371713 2.617762660314502
v 0.25468749999999996 1.9508711280270434 2.6981111115253196
v 0.25468749999999996 1.6542444446101277 2.857151548789183
v 0.25468749999999996 1.75 2.9375
vt 0.859375 1
vt 0.921875 1
vt 0.921875 0.8203125
vt 0.859375 0.8203125
vt 0.859375 1
vt 0.921875 1
vt 0.921875 0.8203125
vt 0.859375 0.8203125
vt 0.859375 1
vt 0.921875 1
vt 0.921875 0.8203125
vt 0.859375 0.8203125
vt 0.859375 1
vt 0.921875 1
vt 0.921875 0.8203125
vt 0.859375 0.8203125
vt 0.859375 1
vt 0.921875 1
vt 0.921875 0.9375
vt 0.859375 0.9375
vt 0.859375 0.6875
vt 0.921875 0.6875
vt 0.921875 0.625
vt 0.859375 0.625
vn 0 -0.766044443118978 -0.6427876096865393
vn 1 0 0
vn 0 0.766044443118978 0.6427876096865393
vn -1 0 0
vn 0 0.6427876096865393 -0.766044443118978
vn 0 -0.6427876096865393 0.766044443118978
usemtl m_1eb71f20-f142-4fac-88ae-03e62d65592e
f 436/1080/270 439/1079/270 437/1078/270 434/1077/270
f 435/1084/271 436/1083/271 434/1082/271 433/1081/271
f 440/1088/272 435/1087/272 433/1086/272 438/1085/272
f 439/1092/273 440/1091/273 438/1090/273 437/1089/273
f 438/1096/274 433/1095/274 434/1094/274 437/1093/274
f 439/1100/275 436/1099/275 435/1098/275 440/1097/275
o pipe5_0
v 0.5625 1.75 2.9375
v 0.5625 1.75 2.8125
v 0.5625 0.625 2.9375
v 0.5625 0.625 2.8125
v 0.4375 1.75 2.8125
v 0.4375 1.75 2.9375
v 0.4375 0.625 2.8125
v 0.4375 0.625 2.9375
vt 0.859375 1
vt 0.921875 1
vt 0.921875 0.625
vt 0.859375 0.625
vt 0.859375 1
vt 0.921875 1
vt 0.921875 0.625
vt 0.859375 0.625
vt 0.859375 1
vt 0.921875 1
vt 0.921875 0.625
vt 0.859375 0.625
vt 0.859375 1
vt 0.921875 1
vt 0.921875 0.625
vt 0.859375 0.625
vt 0.859375 1
vt 0.921875 1
vt 0.921875 0.9375
vt 0.859375 0.9375
vt 0.859375 0.6875
vt 0.921875 0.6875
vt 0.921875 0.625
vt 0.859375 0.625
vn 0 0 -1
vn 1 0 0
vn 0 0 1
vn -1 0 0
vn 0 1 0
vn 0 -1 0
usemtl m_1eb71f20-f142-4fac-88ae-03e62d65592e
f 444/1104/276 447/1103/276 445/1102/276 442/1101/276
f 443/1108/277 444/1107/277 442/1106/277 441/1105/277
f 448/1112/278 443/1111/278 441/1110/278 446/1109/278
f 447/1116/279 448/1115/279 446/1114/279 445/1113/279
f 446/1120/280 441/1119/280 442/1118/280 445/1117/280
f 447/1124/281 444/1123/281 443/1122/281 448/1121/281
o pipe5_1
v 0.5578125 1.9508711280270434 2.6981111115253196
v 0.5578125 1.8551155726371713 2.617762660314502
v 0.5578125 1.75 2.9375
v 0.5578125 1.6542444446101277 2.857151548789183
v 0.44218749999999996 1.8551155726371713 2.617762660314502
v 0.44218749999999996 1.9508711280270434 2.6981111115253196
v 0.44218749999999996 1.6542444446101277 2.857151548789183
v 0.44218749999999996 1.75 2.9375
vt 0.859375 1
vt 0.921875 1
vt 0.921875 0.8203125
vt 0.859375 0.8203125
vt 0.859375 1
vt 0.921875 1
vt 0.921875 0.8203125
vt 0.859375 0.8203125
vt 0.859375 1
vt 0.921875 1
vt 0.921875 0.8203125
vt 0.859375 0.8203125
vt 0.859375 1
vt 0.921875 1
vt 0.921875 0.8203125
vt 0.859375 0.8203125
vt 0.859375 1
vt 0.921875 1
vt 0.921875 0.9375
vt 0.859375 0.9375
vt 0.859375 0.6875
vt 0.921875 0.6875
vt 0.921875 0.625
vt 0.859375 0.625
vn 0 -0.766044443118978 -0.6427876096865393
vn 1 0 0
vn 0 0.766044443118978 0.6427876096865393
vn -1 0 0
vn 0 0.6427876096865393 -0.766044443118978
vn 0 -0.6427876096865393 0.766044443118978
usemtl m_1eb71f20-f142-4fac-88ae-03e62d65592e
f 452/1128/282 455/1127/282 453/1126/282 450/1125/282
f 451/1132/283 452/1131/283 450/1130/283 449/1129/283
f 456/1136/284 451/1135/284 449/1134/284 454/1133/284
f 455/1140/285 456/1139/285 454/1138/285 453/1137/285
f 454/1144/286 449/1143/286 450/1142/286 453/1141/286
f 455/1148/287 452/1147/287 451/1146/287 456/1145/287
o pipe6_0
v 0.75 1.75 2.9375
v 0.75 1.75 2.8125
v 0.75 0.625 2.9375
v 0.75 0.625 2.8125
v 0.625 1.75 2.8125
v 0.625 1.75 2.9375
v 0.625 0.625 2.8125
v 0.625 0.625 2.9375
vt 0.859375 1
vt 0.921875 1
vt 0.921875 0.625
vt 0.859375 0.625
vt 0.859375 1
vt 0.921875 1
vt 0.921875 0.625
vt 0.859375 0.625
vt 0.859375 1
vt 0.921875 1
vt 0.921875 0.625
vt 0.859375 0.625
vt 0.859375 1
vt 0.921875 1
vt 0.921875 0.625
vt 0.859375 0.625
vt 0.859375 1
vt 0.921875 1
vt 0.921875 0.9375
vt 0.859375 0.9375
vt 0.859375 0.6875
vt 0.921875 0.6875
vt 0.921875 0.625
vt 0.859375 0.625
vn 0 0 -1
vn 1 0 0
vn 0 0 1
vn -1 0 0
vn 0 1 0
vn 0 -1 0
usemtl m_1eb71f20-f142-4fac-88ae-03e62d65592e
f 460/1152/288 463/1151/288 461/1150/288 458/1149/288
f 459/1156/289 460/1155/289 458/1154/289 457/1153/289
f 464/1160/290 459/1159/290 457/1158/290 462/1157/290
f 463/1164/291 464/1163/291 462/1162/291 461/1161/291
f 462/1168/292 457/1167/292 458/1166/292 461/1165/292
f 463/1172/293 460/1171/293 459/1170/293 464/1169/293
o pipe6_1
v 0.7453125 1.9508711280270434 2.6981111115253196
v 0.7453125 1.8551155726371713 2.617762660314502
v 0.7453125 1.75 2.9375
v 0.7453125 1.6542444446101277 2.857151548789183
v 0.6296875 1.8551155726371713 2.617762660314502
v 0.6296875 1.9508711280270434 2.6981111115253196
v 0.6296875 1.6542444446101277 2.857151548789183
v 0.6296875 1.75 2.9375
vt 0.859375 1
vt 0.921875 1
vt 0.921875 0.8203125
vt 0.859375 0.8203125
vt 0.859375 1
vt 0.921875 1
vt 0.921875 0.8203125
vt 0.859375 0.8203125
vt 0.859375 1
vt 0.921875 1
vt 0.921875 0.8203125
vt 0.859375 0.8203125
vt 0.859375 1
vt 0.921875 1
vt 0.921875 0.8203125
vt 0.859375 0.8203125
vt 0.859375 1
vt 0.921875 1
vt 0.921875 0.9375
vt 0.859375 0.9375
vt 0.859375 0.6875
vt 0.921875 0.6875
vt 0.921875 0.625
vt 0.859375 0.625
vn 0 -0.766044443118978 -0.6427876096865393
vn 1 0 0
vn 0 0.766044443118978 0.6427876096865393
vn -1 0 0
vn 0 0.6427876096865393 -0.766044443118978
vn 0 -0.6427876096865393 0.766044443118978
usemtl m_1eb71f20-f142-4fac-88ae-03e62d65592e
f 468/1176/294 471/1175/294 469/1174/294 466/1173/294
f 467/1180/295 468/1179/295 466/1178/295 465/1177/295
f 472/1184/296 467/1183/296 465/1182/296 470/1181/296
f 471/1188/297 472/1187/297 470/1186/297 469/1185/297
f 470/1192/298 465/1191/298 466/1190/298 469/1189/298
f 471/1196/299 468/1195/299 467/1194/299 472/1193/299
o pipe7_0
v 0.9375 1.75 2.9375
v 0.9375 1.75 2.8125
v 0.9375 0.625 2.9375
v 0.9375 0.625 2.8125
v 0.8125 1.75 2.8125
v 0.8125 1.75 2.9375
v 0.8125 0.625 2.8125
v 0.8125 0.625 2.9375
vt 0.859375 1
vt 0.921875 1
vt 0.921875 0.625
vt 0.859375 0.625
vt 0.859375 1
vt 0.921875 1
vt 0.921875 0.625
vt 0.859375 0.625
vt 0.859375 1
vt 0.921875 1
vt 0.921875 0.625
vt 0.859375 0.625
vt 0.859375 1
vt 0.921875 1
vt 0.921875 0.625
vt 0.859375 0.625
vt 0.859375 1
vt 0.921875 1
vt 0.921875 0.9375
vt 0.859375 0.9375
vt 0.859375 0.6875
vt 0.921875 0.6875
vt 0.921875 0.625
vt 0.859375 0.625
vn 0 0 -1
vn 1 0 0
vn 0 0 1
vn -1 0 0
vn 0 1 0
vn 0 -1 0
usemtl m_1eb71f20-f142-4fac-88ae-03e62d65592e
f 476/1200/300 479/1199/300 477/1198/300 474/1197/300
f 475/1204/301 476/1203/301 474/1202/301 473/1201/301
f 480/1208/302 475/1207/302 473/1206/302 478/1205/302
f 479/1212/303 480/1211/303 478/1210/303 477/1209/303
f 478/1216/304 473/1215/304 474/1214/304 477/1213/304
f 479/1220/305 476/1219/305 475/1218/305 480/1217/305
o pipe7_1
v 0.9328125 1.9508711280270434 2.6981111115253196
v 0.9328125 1.8551155726371713 2.617762660314502
v 0.9328125 1.75 2.9375
v 0.9328125 1.6542444446101277 2.857151548789183
v 0.8171875 1.8551155726371713 2.617762660314502
v 0.8171875 1.9508711280270434 2.6981111115253196
v 0.8171875 1.6542444446101277 2.857151548789183
v 0.8171875 1.75 2.9375
vt 0.859375 1
vt 0.921875 1
vt 0.921875 0.8203125
vt 0.859375 0.8203125
vt 0.859375 1
vt 0.921875 1
vt 0.921875 0.8203125
vt 0.859375 0.8203125
vt 0.859375 1
vt 0.921875 1
vt 0.921875 0.8203125
vt 0.859375 0.8203125
vt 0.859375 1
vt 0.921875 1
vt 0.921875 0.8203125
vt 0.859375 0.8203125
vt 0.859375 1
vt 0.921875 1
vt 0.921875 0.9375
vt 0.859375 0.9375
vt 0.859375 0.6875
vt 0.921875 0.6875
vt 0.921875 0.625
vt 0.859375 0.625
vn 0 -0.766044443118978 -0.6427876096865393
vn 1 0 0
vn 0 0.766044443118978 0.6427876096865393
vn -1 0 0
vn 0 0.6427876096865393 -0.766044443118978
vn 0 -0.6427876096865393 0.766044443118978
usemtl m_1eb71f20-f142-4fac-88ae-03e62d65592e
f 484/1224/306 487/1223/306 485/1222/306 482/1221/306
f 483/1228/307 484/1227/307 482/1226/307 481/1225/307
f 488/1232/308 483/1231/308 481/1230/308 486/1229/308
f 487/1236/309 488/1235/309 486/1234/309 485/1233/309
f 486/1240/310 481/1239/310 482/1238/310 485/1237/310
f 487/1244/311 484/1243/311 483/1242/311 488/1241/311
o dial0
v 0.6875 0.375 -0.0015625000000002442
v 0.6875 0.375 -0.0015625000000002442
v 0.6875 0.25 -0.0015625000000002442
v 0.6875 0.25 -0.0015625000000002442
v 0.5625 0.375 -0.0015625000000002442
v 0.5625 0.375 -0.0015625000000002442
v 0.5625 0.25 -0.0015625000000002442
v 0.5625 0.25 -0.0015625000000002442
vt 0.9296875 1
vt 1 1
vt 1 0.9296875
vt 0.9296875 0.9296875
vn 0 0 -1
usemtl m_1eb71f20-f142-4fac-88ae-03e62d65592e
f 492/1248/312 495/1247/312 493/1246/312 490/1245/312
o dial1
v 0.5 0.375 -0.0015625000000002442
v 0.5 0.375 -0.0015625000000002442
v 0.5 0.25 -0.0015625000000002442
v 0.5 0.25 -0.0015625000000002442
v 0.375 0.375 -0.0015625000000002442
v 0.375 0.375 -0.0015625000000002442
v 0.375 0.25 -0.0015625000000002442
v 0.375 0.25 -0.0015625000000002442
vt 0.9296875 0.9296875
vt 1 0.9296875
vt 1 0.859375
vt 0.9296875 0.859375
vn 0 0 -1
usemtl m_1eb71f20-f142-4fac-88ae-03e62d65592e
f 500/1252/313 503/1251/313 501/1250/313 498/1249/313
o baseplate
v 1 0.625 3
v 1 0.625 0
v 1 0 3
v 1 0 0
v -1 0.625 0
v -1 0.625 3
v -1 0 0
v -1 0 3
vt 0.25 0.5
vt 0.75 0.5
vt 0.75 0.34375
vt 0.25 0.34375
vt 0.859375 1
vt 0.859375 0.625
vt 0.78125 0.625
vt 0.78125 1
vt 0.5 0.59375
vt 0.75 0.59375
vt 0.75 0.515625
vt 0.5 0.515625
vt 0.859375 1
vt 0.859375 0.625
vt 0.78125 0.625
vt 0.78125 1
vt 0 0.5
vt 0.25 0.5
vt 0.25 0.125
vt 0 0.125
vt 0 0.5
vt 0.25 0.5
vt 0.25 0.125
vt 0 0.125
vn 0 0 -1
vn 1 0 0
vn 0 0 1
vn -1 0 0
vn 0 1 0
vn 0 -1 0
usemtl m_1eb71f20-f142-4fac-88ae-03e62d65592e
f 508/1256/314 511/1255/314 509/1254/314 506/1253/314
f 507/1260/315 508/1259/315 506/1258/315 505/1257/315
f 512/1264/316 507/1263/316 505/1262/316 510/1261/316
f 511/1268/317 512/1267/317 510/1266/317 509/1265/317
f 510/1272/318 505/1271/318 506/1270/318 509/1269/318
f 511/1276/319 508/1275/319 507/1274/319 512/1273/319